<svg width="24" height="24" viewBox="0 0 24 24" fill="none" xmlns="http://www.w3.org/2000/svg">
<path fill-rule="evenodd" clip-rule="evenodd" d="M5.014 9.83405C5.00438 9.88818 4.99969 9.94307 5 9.99805H4C3.73478 9.99805 3.48043 10.1034 3.29289 10.2909C3.10536 10.4785 3 10.7328 3 10.998C3 11.2633 3.10536 11.5176 3.29289 11.7052C3.48043 11.8927 3.73478 11.998 4 11.998H20C20.2652 11.998 20.5196 11.8927 20.7071 11.7052C20.8946 11.5176 21 11.2633 21 10.998C21 10.7328 20.8946 10.4785 20.7071 10.2909C20.5196 10.1034 20.2652 9.99805 20 9.99805H19C19.0003 9.94307 18.9956 9.88818 18.986 9.83405L18.265 5.50405C18.1481 4.80357 17.7864 4.16729 17.2444 3.70842C16.7024 3.24954 16.0152 2.99782 15.305 2.99805H8.695C7.98468 2.99786 7.29734 3.24972 6.75531 3.7088C6.21328 4.16788 5.85173 4.80439 5.735 5.50505L5.014 9.83405Z" fill="#0060AA"/>
<path d="M9.44978 13.8359C8.74858 13.2929 7.88687 12.9982 7 12.998C5.93913 12.998 4.92172 13.4195 4.17157 14.1696C3.42143 14.9198 3 15.9372 3 16.998C3.00284 17.9701 3.35937 18.9079 4.00303 19.6363C4.64669 20.3648 5.53346 20.834 6.49778 20.9565C7.46209 21.0789 8.43802 20.8463 9.24333 20.3018C10.0486 19.7574 10.6283 18.9385 10.874 17.998H13.126C13.3686 18.9416 13.9472 19.7642 14.7533 20.3114C15.5594 20.8587 16.5375 21.0929 17.504 20.9701C18.4705 20.8474 19.3589 20.3761 20.0026 19.6448C20.6463 18.9134 21.001 17.9723 21 16.998C20.9972 16.026 20.6406 15.0882 19.997 14.3598C19.3533 13.6313 18.4665 13.1621 17.5022 13.0396C16.5379 12.9171 15.562 13.1498 14.7567 13.6942C13.9514 14.2387 13.3717 15.0576 13.126 15.998H10.874C10.6519 15.1394 10.151 14.3789 9.44978 13.8359Z" fill="#EF4665"/>
</svg>
