<svg width="16" height="22" viewBox="0 0 16 22" fill="none" xmlns="http://www.w3.org/2000/svg">
<path d="M1 11.25C0.585786 11.25 0.25 11.5858 0.25 12C0.25 12.4142 0.585786 12.75 1 12.75L1 11.25ZM11.5303 12.5303C11.8232 12.2374 11.8232 11.7626 11.5303 11.4697L6.75736 6.6967C6.46447 6.40381 5.98959 6.40381 5.6967 6.6967C5.40381 6.98959 5.40381 7.46447 5.6967 7.75736L9.93934 12L5.6967 16.2426C5.40381 16.5355 5.40381 17.0104 5.6967 17.3033C5.98959 17.5962 6.46447 17.5962 6.75736 17.3033L11.5303 12.5303ZM1 12.75L11 12.75L11 11.25L1 11.25L1 12.75Z" fill="#EF4665"/>
</svg>
