<svg width="11" height="22" viewBox="0 0 11 22" fill="none" xmlns="http://www.w3.org/2000/svg">
<g clip-path="url(#clip0_2076_698)">
<path fill-rule="evenodd" clip-rule="evenodd" d="M6.2332 15.1966C6.03696 15.3909 5.77096 15.5 5.49362 15.5C5.21628 15.5 4.95028 15.3909 4.75404 15.1966L0.806385 11.2847C0.610144 11.0901 0.499935 10.8262 0.5 10.551C0.500032 10.4147 0.527137 10.2798 0.579766 10.154C0.632396 10.0281 0.709519 9.91374 0.806733 9.81741C0.903947 9.72109 1.01935 9.64469 1.14635 9.59258C1.27335 9.54047 1.40946 9.51367 1.5469 9.5137C1.68435 9.51373 1.82045 9.5406 1.94742 9.59277C2.0744 9.64494 2.18976 9.72139 2.28693 9.81776L5.49362 12.9958L8.70031 9.81707C8.7968 9.71794 8.91225 9.63885 9.03991 9.58442C9.16757 9.52999 9.30489 9.50131 9.44385 9.50004C9.58281 9.49878 9.72063 9.52497 9.84928 9.57707C9.97792 9.62917 10.0948 9.70615 10.1931 9.80352C10.2914 9.90088 10.3692 10.0167 10.4219 10.1441C10.4746 10.2716 10.5011 10.4082 10.5 10.546C10.4988 10.6837 10.47 10.8199 10.4152 10.9465C10.3604 11.0731 10.2808 11.1876 10.1809 11.2833L6.2332 15.198V15.1966Z" fill="#EF4665"/>
</g>
<defs>
<clipPath id="clip0_2076_698">
<rect width="10" height="22" fill="white" transform="translate(0.5)"/>
</clipPath>
</defs>
</svg>
