<svg width="8" height="6" viewBox="0 0 8 6" fill="none" xmlns="http://www.w3.org/2000/svg">
<path fill-rule="evenodd" clip-rule="evenodd" d="M4.4322 5.30911C4.31952 5.43134 4.16671 5.5 4.00738 5.5C3.84805 5.5 3.69525 5.43134 3.58257 5.30911L0.183439 1.62092C0.12605 1.56078 0.0802739 1.48884 0.0487829 1.4093C0.0172918 1.32975 0.000715982 1.2442 2.26867e-05 1.15763C-0.000670608 1.07107 0.0145326 0.985216 0.044745 0.905091C0.0749573 0.824966 0.119574 0.752172 0.175991 0.690957C0.232409 0.629742 0.299497 0.581331 0.373342 0.54855C0.447187 0.515768 0.526309 0.499272 0.606093 0.500025C0.685876 0.500777 0.764722 0.518762 0.838031 0.552931C0.911339 0.5871 0.977643 0.636769 1.03307 0.699038L4.00738 3.92629L6.9817 0.699038C7.09502 0.580277 7.2468 0.514562 7.40435 0.516048C7.5619 0.517533 7.7126 0.5861 7.82401 0.70698C7.93542 0.827861 7.99861 0.991383 7.99998 1.16233C8.00135 1.33327 7.94078 1.49796 7.83133 1.62092L4.4322 5.30911Z" fill="#0082D6"/>
</svg>
