<svg width="15" height="16" viewBox="0 0 15 16" fill="none" xmlns="http://www.w3.org/2000/svg">
<path d="M11.4226 0.744078C11.2663 0.587797 11.0543 0.5 10.8333 0.5C10.6123 0.5 10.4004 0.587797 10.2441 0.744078C10.0878 0.900358 10 1.11232 10 1.33333V2.16667H5V1.33333C5 1.11232 4.9122 0.900358 4.75592 0.744078C4.59964 0.587797 4.38768 0.5 4.16667 0.5C3.94565 0.5 3.73369 0.587797 3.57741 0.744078C3.42113 0.900358 3.33333 1.11232 3.33333 1.33333V2.16667H1.66667C1.22464 2.16667 0.800716 2.34226 0.488155 2.65482C0.175595 2.96738 0 3.39131 0 3.83333V6.33333H15V3.83333C15 3.39131 14.8244 2.96738 14.5118 2.65482C14.1993 2.34226 13.7754 2.16667 13.3333 2.16667H11.6667V1.33333C11.6667 1.11232 11.5789 0.900358 11.4226 0.744078Z" fill="#093654" fill-opacity="0.6"/>
<path d="M15 8V13.8333C15 14.2754 14.8244 14.6993 14.5118 15.0118C14.1993 15.3244 13.7754 15.5 13.3333 15.5H1.66667C1.22464 15.5 0.800716 15.3244 0.488155 15.0118C0.175595 14.6993 0 14.2754 0 13.8333V8H15Z" fill="#093654" fill-opacity="0.6"/>
</svg>
