<svg width="18" height="18" viewBox="0 0 18 18" fill="none" xmlns="http://www.w3.org/2000/svg">
<path d="M7.44125 16.2302C7.76795 16.3829 8.03074 16.5355 8.20894 16.648C8.46544 16.8098 8.68054 17 9.00094 17C9.31414 17 9.53644 16.808 9.79114 16.648C9.96934 16.5355 10.2321 16.3829 10.5588 16.2302C11.2185 15.9202 12.0987 15.6286 13.05 15.6286C14.2011 15.6286 15.2442 16.0565 15.912 16.4167C16.1228 16.5288 16.3577 16.5858 16.5956 16.5826C16.8335 16.5794 17.0668 16.5161 17.2746 16.3984C17.6589 16.1826 18 15.7493 18 15.1714V3.74286C18 3.17509 17.7345 2.58811 17.1918 2.25349C16.4952 1.82377 14.9274 1 13.05 1C11.7513 1 10.6065 1.39314 9.80374 1.76983C9.48514 1.91977 9.21334 2.06971 9.00004 2.19771C8.78674 2.06971 8.51494 1.91977 8.19634 1.76983C7.39355 1.39406 6.24875 1 4.95006 1C3.07267 1 1.50487 1.82286 0.808278 2.25349C0.558766 2.41008 0.353271 2.62945 0.211684 2.89037C0.0700959 3.15129 -0.00278965 3.44493 8.1669e-05 3.74286V15.1714C8.1669e-05 15.7502 0.34118 16.1826 0.725478 16.3984C1.10618 16.6114 1.62187 16.6681 2.08897 16.4167C2.75587 16.0565 3.79896 15.6286 4.95006 15.6286C5.90135 15.6286 6.78155 15.9211 7.44125 16.2302Z" fill="#0082D6"/>
</svg>
