<svg width="47" height="49" viewBox="0 0 47 49" fill="none" xmlns="http://www.w3.org/2000/svg">
<g opacity="0.2">
<path d="M10.2266 5.0354C4.61239 5.0354 0 9.61574 0 15.3419C0 21.0681 4.55181 25.7102 10.1661 25.7102H22.8368V38.6317C22.8368 44.3573 27.3886 49 33.0029 49C38.6177 49 43.0714 44.3579 43.0714 38.6317V25.7676L23.3304 5.0354H10.2266Z" fill="#0060AA"/>
<path d="M23.9286 -9.62253C23.9286 -15.3532 28.3912 -20 34.0047 -20C39.6171 -20 44.1684 -15.3538 44.1684 -9.62253V3.3104H56.8363C62.4486 3.3104 67 7.95721 67 13.6879C67 19.4191 62.4492 23.9646 56.8363 23.9646H44.2632L23.9286 3.20354V-9.62253Z" fill="#EF4665"/>
</g>
</svg>
