<svg width="16" height="16" viewBox="0 0 16 16" fill="none" xmlns="http://www.w3.org/2000/svg">
<path fill-rule="evenodd" clip-rule="evenodd" d="M11.7694 15.9977C10.6157 15.9553 7.34601 15.5034 3.92173 12.0799C0.498241 8.65562 0.0471701 5.38676 0.00390585 4.23224C-0.0601894 2.47283 1.28741 0.76389 2.84413 0.0964986C3.03159 0.0155519 3.23687 -0.015267 3.43984 0.00706618C3.6428 0.0293994 3.83647 0.104117 4.00185 0.223888C5.28375 1.15808 6.16826 2.57138 6.92779 3.68263C7.09491 3.92677 7.16636 4.22387 7.12854 4.5173C7.09071 4.81074 6.94625 5.08 6.72269 5.27379L5.15957 6.43472C5.08405 6.48925 5.03089 6.56934 5.00996 6.66011C4.98904 6.75088 5.00177 6.84616 5.0458 6.92825C5.39992 7.57161 6.02966 8.52983 6.75073 9.2509C7.4726 9.97197 8.47569 10.6434 9.16391 11.0376C9.25021 11.086 9.35177 11.0995 9.44774 11.0754C9.54371 11.0513 9.62678 10.9913 9.67988 10.9078L10.6974 9.35906C10.8845 9.11057 11.1604 8.9441 11.4675 8.89452C11.7745 8.84493 12.0889 8.91608 12.3446 9.09307C13.4719 9.87343 14.7875 10.7427 15.7505 11.9757C15.88 12.1423 15.9624 12.3406 15.989 12.5499C16.0156 12.7592 15.9856 12.9718 15.9019 13.1655C15.2313 14.7302 13.5344 16.0626 11.7694 15.9977Z" fill="#FFFFFE"/>
</svg>
