<svg width="14" height="16" viewBox="0 0 14 16" fill="none" xmlns="http://www.w3.org/2000/svg">
<path d="M10.1111 9.6C11.1132 9.60006 12.0767 9.99803 12.8005 10.7109C13.5243 11.4238 13.9526 12.3966 13.9961 13.4264L14 13.6V14.4C14.0001 14.8037 13.8519 15.1925 13.5851 15.4884C13.3182 15.7844 12.9525 15.9657 12.5611 15.996L12.4444 16H1.55556C1.16311 16.0001 0.785115 15.8477 0.497352 15.5732C0.209588 15.2987 0.0333226 14.9225 0.00388898 14.52L0 14.4V13.6C5.78997e-05 12.5692 0.386977 11.5783 1.08007 10.8338C1.77316 10.0893 2.71892 9.64874 3.72011 9.604L3.88889 9.6H10.1111ZM7 0C8.0314 0 9.02055 0.421427 9.74986 1.17157C10.4792 1.92172 10.8889 2.93913 10.8889 4C10.8889 5.06087 10.4792 6.07828 9.74986 6.82843C9.02055 7.57857 8.0314 8 7 8C5.9686 8 4.97945 7.57857 4.25014 6.82843C3.52083 6.07828 3.11111 5.06087 3.11111 4C3.11111 2.93913 3.52083 1.92172 4.25014 1.17157C4.97945 0.421427 5.9686 0 7 0Z" fill="#093654"/>
</svg>
