<svg width="20" height="20" viewBox="0 0 20 20" fill="none" xmlns="http://www.w3.org/2000/svg">
<path d="M14.1841 2.75105C14.0174 2.59031 13.7913 2.5 13.5556 2.5C13.3198 2.5 13.0937 2.59031 12.927 2.75105C12.7603 2.9118 12.6667 3.12981 12.6667 3.35714V4.21429H7.33333V3.35714C7.33333 3.12981 7.23968 2.9118 7.07298 2.75105C6.90628 2.59031 6.68019 2.5 6.44444 2.5C6.2087 2.5 5.9826 2.59031 5.81591 2.75105C5.64921 2.9118 5.55556 3.12981 5.55556 3.35714V4.21429H3.77778C3.30628 4.21429 2.8541 4.3949 2.5207 4.71639C2.1873 5.03788 2 5.47391 2 5.92857V8.5H18V5.92857C18 5.47391 17.8127 5.03788 17.4793 4.71639C17.1459 4.3949 16.6937 4.21429 16.2222 4.21429H14.4444V3.35714C14.4444 3.12981 14.3508 2.9118 14.1841 2.75105Z" fill="#EF4665"/>
<path d="M18 9.5V15.7222C18 16.1937 17.8127 16.6459 17.4793 16.9793C17.1459 17.3127 16.6937 17.5 16.2222 17.5H3.77778C3.30628 17.5 2.8541 17.3127 2.5207 16.9793C2.1873 16.6459 2 16.1937 2 15.7222V9.5H18Z" fill="#0060AA"/>
</svg>
