<svg width="24" height="24" viewBox="0 0 24 24" fill="none" xmlns="http://www.w3.org/2000/svg">
<path d="M6.89286 15.3462C9.51214 15.3462 11.8193 13.9398 13.1493 11.8127H16.4376L15.2026 9.40138C15.002 9.00943 14.6882 8.69301 14.3056 8.4968C14.3614 8.00001 14.3718 7.49884 14.3368 7C14.7749 7.13023 15.1834 7.35104 15.5378 7.64924C15.8922 7.94744 16.1853 8.31693 16.3996 8.73567L17.9414 11.7448L20.2444 12.5985C20.9041 12.8429 21.475 13.2939 21.8788 13.8896C22.2826 14.4853 22.4996 15.1965 22.5 15.9257V16.4048C22.5 17.4083 21.9273 18.2705 21.1021 18.6592C20.9955 19.2958 20.6826 19.8751 20.2156 20.3006C19.7487 20.7261 19.1559 20.9722 18.5359 20.9978C17.9159 21.0234 17.3062 20.827 16.8084 20.4414C16.3105 20.0557 15.9546 19.5041 15.7998 18.8783H10.2002C10.0454 19.5041 9.6895 20.0557 9.19165 20.4414C8.6938 20.827 8.0841 21.0234 7.46413 20.9978C6.84415 20.9722 6.25131 20.7261 5.78436 20.3006C5.31741 19.8751 5.00454 19.2958 4.89786 18.6592C4.48148 18.4635 4.12815 18.1468 3.88022 17.7472C3.63228 17.3476 3.50027 16.882 3.5 16.4062V14.8317C3.5 14.7224 3.50452 14.614 3.51357 14.5066C4.52871 15.0437 5.67686 15.3462 6.89286 15.3462ZM6.21429 18.173C6.21429 18.5479 6.35727 18.9074 6.61178 19.1724C6.8663 19.4375 7.21149 19.5864 7.57143 19.5864C7.93137 19.5864 8.27656 19.4375 8.53107 19.1724C8.78559 18.9074 8.92857 18.5479 8.92857 18.173C8.92857 17.7981 8.78559 17.4386 8.53107 17.1736C8.27656 16.9085 7.93137 16.7596 7.57143 16.7596C7.21149 16.7596 6.8663 16.9085 6.61178 17.1736C6.35727 17.4386 6.21429 17.7981 6.21429 18.173ZM18.4286 16.7596C18.0686 16.7596 17.7234 16.9085 17.4689 17.1736C17.2144 17.4386 17.0714 17.7981 17.0714 18.173C17.0714 18.5479 17.2144 18.9074 17.4689 19.1724C17.7234 19.4375 18.0686 19.5864 18.4286 19.5864C18.7885 19.5864 19.1337 19.4375 19.3882 19.1724C19.6427 18.9074 19.7857 18.5479 19.7857 18.173C19.7857 17.7981 19.6427 17.4386 19.3882 17.1736C19.1337 16.9085 18.7885 16.7596 18.4286 16.7596Z" fill="#0060AA"/>
<path fill-rule="evenodd" clip-rule="evenodd" d="M12.5 8.5C12.5 9.95869 11.9205 11.3576 10.8891 12.3891C9.85764 13.4205 8.45869 14 7 14C5.54131 14 4.14236 13.4205 3.11091 12.3891C2.07946 11.3576 1.5 9.95869 1.5 8.5C1.5 7.04131 2.07946 5.64236 3.11091 4.61091C4.14236 3.57946 5.54131 3 7 3C8.45869 3 9.85764 3.57946 10.8891 4.61091C11.9205 5.64236 12.5 7.04131 12.5 8.5ZM6.56788 5.62343C6.68248 5.50883 6.83792 5.44444 7 5.44444C7.16208 5.44444 7.31751 5.50883 7.43212 5.62343C7.54673 5.73804 7.61111 5.89348 7.61111 6.05556V7.88889H8.83333C8.99541 7.88889 9.15085 7.95327 9.26545 8.06788C9.38006 8.18248 9.44444 8.33792 9.44444 8.5C9.44444 8.66208 9.38006 8.81751 9.26545 8.93212C9.15085 9.04673 8.99541 9.11111 8.83333 9.11111H7C6.83792 9.11111 6.68248 9.04673 6.56788 8.93212C6.45327 8.81751 6.38889 8.66208 6.38889 8.5V6.05556C6.38889 5.89348 6.45327 5.73804 6.56788 5.62343Z" fill="#EF4665"/>
</svg>
