<svg width="24" height="24" viewBox="0 0 24 24" fill="none" xmlns="http://www.w3.org/2000/svg">
<path fill-rule="evenodd" clip-rule="evenodd" d="M12.9989 3C13.5035 2.99984 13.9895 3.19041 14.3594 3.5335C14.7294 3.87659 14.956 4.34684 14.9939 4.85L14.9989 5V19H15.9989H19.9989H20.9989C21.2538 19.0003 21.4989 19.0979 21.6843 19.2728C21.8696 19.4478 21.9811 19.687 21.9961 19.9414C22.011 20.1958 21.9282 20.4464 21.7646 20.6418C21.601 20.8373 21.369 20.9629 21.1159 20.993L20.9989 21H2.99889C2.74401 20.9997 2.49886 20.9021 2.31352 20.7272C2.12819 20.5522 2.01666 20.313 2.00172 20.0586C1.98678 19.8042 2.06957 19.5536 2.23316 19.3582C2.39675 19.1627 2.6288 19.0371 2.88189 19.007L2.99889 19H3.99889V5C3.99873 4.49542 4.1893 4.00943 4.53239 3.63945C4.87548 3.26947 5.34574 3.04284 5.84889 3.005L5.99889 3H12.9989ZM7.99889 15H10.9989V17H7.99889V15ZM7.99889 11H10.9989V13H7.99889V11ZM7.99889 7H10.9989V9H7.99889V7Z" fill="#0060AA"/>
<path d="M16.1148 9.17974C16.0399 9.26964 15.9989 9.38297 15.9989 9.5V18H19.9989L19.9939 10.85C19.9561 10.3468 19.7294 9.87659 19.3594 9.5335C18.9895 9.19041 18.5035 8.99984 17.9989 9H16.4989L16.4089 9.008C16.2938 9.02907 16.1897 9.08984 16.1148 9.17974Z" fill="#EF4665"/>
</svg>
