<svg width="35" height="35" viewBox="0 0 35 35" fill="none" xmlns="http://www.w3.org/2000/svg">
<rect x="0.5" y="0.5" width="34" height="34" rx="17" stroke="#B8E0FF"/>
<path fill-rule="evenodd" clip-rule="evenodd" d="M17.5057 18.846L20.8733 22.2098C21.052 22.3883 21.2944 22.4886 21.5471 22.4886C21.7998 22.4886 22.0422 22.3883 22.2209 22.2098C22.3996 22.0313 22.5 21.7893 22.5 21.5368C22.5 21.2844 22.3996 21.0423 22.2209 20.8638L18.852 17.5L22.2203 14.1362C22.3087 14.0478 22.3789 13.9429 22.4267 13.8274C22.4746 13.712 22.4992 13.5882 22.4991 13.4633C22.4991 13.3383 22.4744 13.2146 22.4265 13.0991C22.3786 12.9837 22.3084 12.8788 22.22 12.7905C22.1315 12.7021 22.0264 12.6321 21.9108 12.5843C21.7953 12.5365 21.6714 12.5119 21.5463 12.5119C21.4212 12.512 21.2973 12.5366 21.1817 12.5844C21.0662 12.6323 20.9611 12.7024 20.8727 12.7908L17.5057 16.1546L14.138 12.7908C14.0502 12.6999 13.9451 12.6273 13.8289 12.5774C13.7128 12.5275 13.5878 12.5012 13.4613 12.5C13.3348 12.4989 13.2094 12.5229 13.0923 12.5707C12.9752 12.6185 12.8688 12.6891 12.7793 12.7784C12.6898 12.8677 12.6191 12.9739 12.5711 13.0908C12.5232 13.2077 12.499 13.333 12.5 13.4593C12.5011 13.5856 12.5273 13.7105 12.5772 13.8266C12.627 13.9427 12.6995 14.0477 12.7905 14.1356L16.1594 17.5L12.7911 20.8644C12.7002 20.9523 12.6277 21.0573 12.5778 21.1734C12.5279 21.2895 12.5017 21.4144 12.5007 21.5407C12.4996 21.667 12.5238 21.7923 12.5717 21.9092C12.6197 22.0261 12.6905 22.1323 12.78 22.2216C12.8694 22.3109 12.9758 22.3815 13.0929 22.4293C13.21 22.4771 13.3354 22.5011 13.4619 22.5C13.5884 22.4988 13.7134 22.4725 13.8296 22.4226C13.9458 22.3727 14.0509 22.3001 14.1387 22.2092L17.5057 18.846Z" fill="#3AA9FA"/>
</svg>
