<svg width="55" height="47" viewBox="0 0 55 47" fill="none" xmlns="http://www.w3.org/2000/svg">
<path d="M39.5294 0C41.776 0 43.9305 0.882865 45.519 2.45437C47.1076 4.02588 48 6.15731 48 8.37976V11.173H25.4118C22.4164 11.173 19.5437 12.3502 17.4256 14.4455C15.3076 16.5409 14.1176 19.3828 14.1176 22.346V33.519C14.1176 36.4352 15.2471 39.0944 17.0993 41.0832L14.1176 43.2954C11.7911 45.0216 8.47059 43.3792 8.47059 40.5022V36.3123C6.22405 36.3123 4.06952 35.4294 2.48098 33.8579C0.892435 32.2864 0 30.155 0 27.9325V8.37976C0 6.15731 0.892435 4.02588 2.48098 2.45437C4.06952 0.882865 6.22405 0 8.47059 0H39.5294Z" fill="#EBF6FF"/>
<path d="M52.4991 17.5064C50.8979 15.9016 48.7261 15 46.4615 15H26.5385C24.2739 15 22.1021 15.9016 20.5009 17.5064C18.8996 19.1112 18 21.2878 18 23.5573V32.1147C18 34.3842 18.8996 36.5608 20.5009 38.1656C22.1021 39.7704 24.2739 40.672 26.5385 40.672H34.0466L40.6269 46.1658C42.9437 48.1026 46.4615 46.4511 46.4615 43.4275V40.672C48.7261 40.672 50.8979 39.7704 52.4991 38.1656C54.1004 36.5608 55 34.3842 55 32.1147V23.5573C55 21.2878 54.1004 19.1112 52.4991 17.5064Z" fill="#FFEBEE"/>
</svg>
