<svg width="79" height="80" viewBox="0 0 79 80" fill="none" xmlns="http://www.w3.org/2000/svg">
<g opacity="0.2">
<path d="M19.2322 47.1681C8.67405 47.1681 0 55.7978 0 66.5863C0 77.3748 8.56013 86.1207 19.1183 86.1207H42.9469V110.466C42.9469 121.253 51.507 130 62.0651 130C72.6244 130 81 121.254 81 110.466V86.2288L43.875 47.1681H19.2322Z" fill="#0060AA"/>
<path d="M45 19.5518C45 8.75486 53.3923 0 63.9491 0C74.5037 0 83.063 8.75371 83.063 19.5518V43.9181H106.886C117.441 43.9181 126 52.673 126 63.4699C126 74.268 117.442 82.8319 106.886 82.8319H83.2413L45 43.7168V19.5518Z" fill="#EF4665"/>
</g>
</svg>
