<svg width="20" height="20" viewBox="0 0 20 20" fill="none" xmlns="http://www.w3.org/2000/svg">
<path fill-rule="evenodd" clip-rule="evenodd" d="M13.5 1C14.0046 0.99984 14.4906 1.19041 14.8605 1.5335C15.2305 1.87659 15.4572 2.34684 15.495 2.85L15.5 3V17C15.5002 17.5046 15.3096 17.9906 14.9665 18.3605C14.6234 18.7305 14.1532 18.9572 13.65 18.995L13.5 19H3.5C2.99542 19.0002 2.50943 18.8096 2.13945 18.4665C1.76947 18.1234 1.54284 17.6532 1.505 17.15L1.5 17V3C1.49984 2.49542 1.69041 2.00943 2.0335 1.63945C2.37659 1.26947 2.84684 1.04284 3.35 1.005L3.5 1H13.5ZM8.5 11C7.659 11 6.76 11.137 6.031 11.461C5.337 11.77 4.5 12.404 4.5 13.5C4.49903 13.7546 4.5952 14 4.76892 14.1861C4.94264 14.3723 5.18081 14.4851 5.43487 14.5017C5.68893 14.5183 5.93975 14.4373 6.13619 14.2753C6.33262 14.1134 6.45987 13.8826 6.492 13.63L6.5 13.515L6.55 13.464C6.63922 13.392 6.73821 13.3331 6.844 13.289C7.24 13.113 7.84 13 8.5 13C9.159 13 9.76 13.113 10.156 13.289C10.266 13.338 10.346 13.386 10.402 13.426L10.449 13.464L10.5 13.515C10.502 13.7802 10.6093 14.0338 10.7982 14.2199C10.9871 14.406 11.2423 14.5095 11.5075 14.5075C11.7727 14.5055 12.0263 14.3982 12.2124 14.2093C12.3985 14.0204 12.502 13.7652 12.5 13.5C12.5 12.404 11.663 11.77 10.969 11.461C10.24 11.137 9.34 11 8.5 11ZM8.5 6C7.96957 6 7.46086 6.21071 7.08579 6.58579C6.71071 6.96086 6.5 7.46957 6.5 8C6.5 8.53043 6.71071 9.03914 7.08579 9.41421C7.46086 9.78929 7.96957 10 8.5 10C9.03043 10 9.53914 9.78929 9.91421 9.41421C10.2893 9.03914 10.5 8.53043 10.5 8C10.5 7.46957 10.2893 6.96086 9.91421 6.58579C9.53914 6.21071 9.03043 6 8.5 6Z" fill="#0060AA"/>
<path d="M16.5 17.3873L17.474 17.0633C17.7727 16.9638 18.0326 16.7728 18.2167 16.5174C18.4009 16.262 18.5 15.9551 18.5 15.6403V4.36028C18.5 4.04542 18.4009 3.73855 18.2167 3.48315C18.0326 3.22775 17.7727 3.03678 17.474 2.93728L16.5 2.61328V17.3873Z" fill="#EF4665"/>
</svg>
