<svg width="53" height="55" viewBox="0 0 53 55" fill="none" xmlns="http://www.w3.org/2000/svg">
<g opacity="0.08">
<path d="M8.08972 19.9035C3.64861 19.9035 0 23.4881 0 27.9695C0 32.4508 3.60069 36.0838 8.04181 36.0838H18.065V46.1962C18.065 50.6771 21.6656 54.3105 26.1068 54.3105C30.5483 54.3105 34.0714 50.6776 34.0714 46.1962V36.1287L18.4554 19.9035H8.08972Z" fill="#0060AA"/>
<path d="M18.9286 8.43205C18.9286 3.94718 22.4587 0.310547 26.8992 0.310547C31.3389 0.310547 34.9392 3.9467 34.9392 8.43205V18.5535H44.96C49.3997 18.5535 53 22.1901 53 26.675C53 31.1603 49.4001 34.7176 44.96 34.7176H35.0142L18.9286 18.4698V8.43205Z" fill="#EF4665"/>
</g>
</svg>
