<svg width="20" height="20" viewBox="0 0 20 20" fill="none" xmlns="http://www.w3.org/2000/svg">
<path fill-rule="evenodd" clip-rule="evenodd" d="M11.8 2C12.5161 2 13.2028 2.26075 13.7092 2.7249C14.2155 3.18904 14.5 3.81856 14.5 4.47496H17.2C17.6774 4.47496 18.1352 4.64879 18.4728 4.95822C18.8104 5.26765 19 5.68733 19 6.12493V8H16.9892C16.8419 7.83875 16.6331 7.80551 16.4053 7.78068L16.3 7.7749H3.7C3.47061 7.77514 3.24997 7.85565 3.08317 8H1V6.12493C1 5.68733 1.18964 5.26765 1.52721 4.95822C1.86477 4.64879 2.32261 4.47496 2.8 4.47496H5.5C5.5 3.81856 5.78446 3.18904 6.29081 2.7249C6.79716 2.26075 7.48392 2 8.2 2H11.8ZM8.2 3.64997H11.8L11.9053 3.65575C12.1242 3.67939 12.3261 3.77586 12.4726 3.92686C12.619 4.07786 12.7 4.27289 12.7 4.47496H7.3L7.3063 4.37844C7.33209 4.17776 7.43733 3.99273 7.60206 3.85846C7.7668 3.72418 7.97956 3.65 8.2 3.64997Z" fill="#EF4665"/>
<path d="M18.4728 17.4759C18.8104 17.1403 19 16.6851 19 16.2105V9.10487H17.1975C17.184 9.33254 17.0836 9.54651 16.9168 9.70306C16.75 9.85962 16.5294 9.94694 16.3 9.94719H10.9V10.842L10.8937 10.9466C10.8666 11.1731 10.7536 11.3807 10.5776 11.5271C10.4017 11.6735 10.1763 11.7475 9.94726 11.7342C9.71826 11.7208 9.50304 11.621 9.34556 11.4552C9.18809 11.2894 9.10025 11.07 9.1 10.842V9.94719H3.7L3.5947 9.94093C3.36691 9.91399 3.15807 9.8016 3.01084 9.62672C2.86361 9.45184 2.7891 9.22766 2.80255 9H1V16.2105C1 16.6851 1.18964 17.1403 1.52721 17.4759C1.86477 17.8115 2.32261 18 2.8 18H17.2C17.6774 18 18.1352 17.8115 18.4728 17.4759Z" fill="#0060AA"/>
</svg>
