<svg width="22" height="16" viewBox="0 0 22 16" fill="none" xmlns="http://www.w3.org/2000/svg">
<path d="M11 0.5C15.0469 0.5 19.9782 3.08964 21.703 6.8225C21.8636 7.17393 22 7.58321 22 8C22 8.41571 21.8647 8.82607 21.703 9.1775C19.9771 12.9104 15.0458 15.5 11 15.5C6.9531 15.5 2.0218 12.9104 0.297 9.1775C0.1364 8.825 0 8.41679 0 8C0 7.58429 0.1353 7.17393 0.297 6.8225C2.0229 3.08964 6.9542 0.5 11 0.5ZM11 3.71429C9.83305 3.71429 8.71389 4.16581 7.88873 4.96954C7.06357 5.77327 6.6 6.86336 6.6 8C6.6 9.13664 7.06357 10.2267 7.88873 11.0305C8.71389 11.8342 9.83305 12.2857 11 12.2857C12.167 12.2857 13.2861 11.8342 14.1113 11.0305C14.9364 10.2267 15.4 9.13664 15.4 8C15.4 6.86336 14.9364 5.77327 14.1113 4.96954C13.2861 4.16581 12.167 3.71429 11 3.71429ZM11 5.85714C11.5835 5.85714 12.1431 6.08291 12.5556 6.48477C12.9682 6.88663 13.2 7.43168 13.2 8C13.2 8.56832 12.9682 9.11336 12.5556 9.51523C12.1431 9.91709 11.5835 10.1429 11 10.1429C10.4165 10.1429 9.85695 9.91709 9.44437 9.51523C9.03179 9.11336 8.8 8.56832 8.8 8C8.8 7.43168 9.03179 6.88663 9.44437 6.48477C9.85695 6.08291 10.4165 5.85714 11 5.85714Z" fill="#093654" fill-opacity="0.6"/>
</svg>
