<svg width="24" height="24" viewBox="0 0 24 24" fill="none" xmlns="http://www.w3.org/2000/svg">
<path d="M9.768 3C10.0378 3.00003 10.3041 3.05996 10.5473 3.17536C10.7905 3.29075 11.0043 3.45866 11.1729 3.66667L12.4329 5.22222H19.2C19.6774 5.22222 20.1352 5.40952 20.4728 5.74292C20.8104 6.07632 21 6.5285 21 7V11.72C19.9671 10.7408 18.6066 10.1696 17.1759 10.1147C15.7453 10.0598 14.3439 10.525 13.2373 11.4221C12.1306 12.3193 11.3955 13.5861 11.1711 14.9827C10.9467 16.3792 11.2487 17.8086 12.0198 19H4.8C4.32261 19 3.86477 18.8127 3.52721 18.4793C3.18964 18.1459 3 17.6937 3 17.2222V4.77778C3 4.30628 3.18964 3.8541 3.52721 3.5207C3.86477 3.1873 4.32261 3 4.8 3H9.768Z" fill="#0060AA"/>
<path fill-rule="evenodd" clip-rule="evenodd" d="M18.5307 12.3045C18.0454 12.1035 17.5253 12 17 12C15.9391 12 14.9217 12.4214 14.1716 13.1716C13.4214 13.9217 13 14.9391 13 16C13 17.0609 13.4214 18.0783 14.1716 18.8284C14.9217 19.5786 15.9391 20 17 20C17.5253 20 18.0454 19.8965 18.5307 19.6955C19.016 19.4945 19.457 19.1999 19.8284 18.8284C20.1999 18.457 20.4945 18.016 20.6955 17.5307C20.8965 17.0454 21 16.5253 21 16C21 15.4747 20.8965 14.9546 20.6955 14.4693C20.4945 13.984 20.1999 13.543 19.8284 13.1716C19.457 12.8001 19.016 12.5055 18.5307 12.3045ZM14.9307 15.1876C14.7774 15.5774 14.7374 16.0025 14.8153 16.4141C14.8933 16.8256 15.0859 17.2068 15.3711 17.5136C15.6562 17.8203 16.0223 18.0403 16.427 18.1481C16.8317 18.2559 17.2587 18.247 17.6587 18.1227L17.8124 18.0693L14.9307 15.1876ZM16.1876 13.9307C16.44 13.832 16.7138 13.7778 17 13.7778C17.3621 13.7776 17.7187 13.8659 18.0388 14.035C18.359 14.2041 18.633 14.4489 18.8369 14.748C19.0409 15.0472 19.1687 15.3916 19.2092 15.7514C19.2497 16.1112 19.2017 16.4754 19.0693 16.8124L16.1876 13.9307Z" fill="#EF4665"/>
</svg>
