<svg width="18" height="14" viewBox="0 0 18 14" fill="none" xmlns="http://www.w3.org/2000/svg">
<path fill-rule="evenodd" clip-rule="evenodd" d="M2.7 0C1.98392 0 1.29716 0.276562 0.790812 0.768845C0.284464 1.26113 0 1.92881 0 2.625V3.5H18V2.625C18 1.92881 17.7155 1.26113 17.2092 0.768845C16.7028 0.276562 16.0161 0 15.3 0H2.7ZM18 5.25H0V11.375C0 12.0712 0.284464 12.7389 0.790812 13.2312C1.29716 13.7234 1.98392 14 2.7 14H15.3C16.0161 14 16.7028 13.7234 17.2092 13.2312C17.7155 12.7389 18 12.0712 18 11.375V5.25ZM5.4 9.625C5.4 9.39294 5.49482 9.17038 5.6636 9.00628C5.83239 8.84219 6.06131 8.75 6.3 8.75H10.2726L10.1637 8.64412C9.99482 8.48005 9.8999 8.25748 9.89982 8.02537C9.89973 7.79326 9.99449 7.57062 10.1632 7.40644C10.332 7.24225 10.5609 7.14997 10.7997 7.14989C11.0384 7.1498 11.2674 7.24193 11.4363 7.406L13.0815 9.00638C13.2502 9.17046 13.345 9.39298 13.345 9.625C13.345 9.85702 13.2502 10.0795 13.0815 10.2436L11.4363 11.8431C11.3533 11.9267 11.254 11.9934 11.1442 12.0392C11.0344 12.0851 10.9163 12.1092 10.7968 12.1102C10.6773 12.1112 10.5587 12.0891 10.4481 12.0451C10.3375 12.0011 10.237 11.9361 10.1525 11.854C10.068 11.7718 10.0012 11.6741 9.95596 11.5666C9.91071 11.4591 9.88794 11.3438 9.88897 11.2276C9.89001 11.1115 9.91484 10.9966 9.96201 10.8899C10.0092 10.7831 10.0777 10.6866 10.1637 10.6059L10.2726 10.5H6.3C6.06131 10.5 5.83239 10.4078 5.6636 10.2437C5.49482 10.0796 5.4 9.85706 5.4 9.625Z" fill="#0082D6"/>
</svg>
