<svg width="18" height="14" viewBox="0 0 18 14" fill="none" xmlns="http://www.w3.org/2000/svg">
<path fill-rule="evenodd" clip-rule="evenodd" d="M16.2 0.5C16.6774 0.5 17.1352 0.695663 17.4728 1.04394C17.8104 1.39223 18 1.8646 18 2.35714V11.6429C18 12.1354 17.8104 12.6078 17.4728 12.9561C17.1352 13.3043 16.6774 13.5 16.2 13.5H1.8C1.32261 13.5 0.864773 13.3043 0.527208 12.9561C0.189642 12.6078 0 12.1354 0 11.6429V2.35714C0 1.8646 0.189642 1.39223 0.527208 1.04394C0.864773 0.695663 1.32261 0.5 1.8 0.5H16.2ZM1.9125 8.85714L1.8 8.85993V10.7226C1.91176 10.706 2.02569 10.7143 2.13405 10.7471C2.24241 10.7799 2.34267 10.8363 2.42803 10.9126C2.51339 10.9889 2.58186 11.0832 2.62878 11.1892C2.67571 11.2951 2.7 11.4103 2.7 11.5268L2.6982 11.5853L2.691 11.6429H4.4964L4.5 11.5268C4.5 10.8188 4.22739 10.1397 3.74214 9.63906C3.25689 9.13841 2.59875 8.85714 1.9125 8.85714ZM16.0875 8.85714C15.4276 8.85715 14.7926 9.1173 14.3125 9.58438C13.8323 10.0515 13.5433 10.6902 13.5045 11.3699L13.5 11.5268C13.5 11.5658 13.5 11.6048 13.5027 11.6429H15.3081C15.2906 11.5178 15.3016 11.3903 15.3403 11.2704C15.3789 11.1505 15.4441 11.0416 15.5307 10.9523C15.6173 10.863 15.7228 10.7957 15.839 10.7558C15.9552 10.716 16.0788 10.7046 16.2 10.7226V8.85993L16.0875 8.85714ZM9 3.28571C8.04522 3.28571 7.12955 3.67704 6.45442 4.3736C5.77928 5.07017 5.4 6.01491 5.4 7C5.4 7.98509 5.77928 8.92983 6.45442 9.6264C7.12955 10.323 8.04522 10.7143 9 10.7143C9.95478 10.7143 10.8705 10.323 11.5456 9.6264C12.2207 8.92983 12.6 7.98509 12.6 7C12.6 6.01491 12.2207 5.07017 11.5456 4.3736C10.8705 3.67704 9.95478 3.28571 9 3.28571ZM9 5.14286C9.47739 5.14286 9.93523 5.33852 10.2728 5.6868C10.6104 6.03508 10.8 6.50745 10.8 7C10.8 7.49254 10.6104 7.96492 10.2728 8.3132C9.93523 8.66148 9.47739 8.85714 9 8.85714C8.52261 8.85714 8.06477 8.66148 7.72721 8.3132C7.38964 7.96492 7.2 7.49254 7.2 7C7.2 6.50745 7.38964 6.03508 7.72721 5.6868C8.06477 5.33852 8.52261 5.14286 9 5.14286ZM4.5 2.35714H2.7V2.47321C2.7 2.58972 2.67571 2.70486 2.62878 2.81083C2.58186 2.9168 2.51339 3.01112 2.42803 3.08739C2.34267 3.16366 2.24241 3.2201 2.13405 3.25287C2.02569 3.28565 1.91176 3.294 1.8 3.27736V5.14007L1.9125 5.14286C2.2523 5.14286 2.58876 5.0738 2.90269 4.93964C3.21662 4.80548 3.50187 4.60884 3.74214 4.36094C3.98241 4.11304 4.173 3.81874 4.30304 3.49484C4.43307 3.17095 4.5 2.8238 4.5 2.47321V2.35714ZM15.3081 2.35714H13.5027L13.5 2.47321C13.5 3.15408 13.7522 3.80921 14.2049 4.3046C14.6576 4.79999 15.2766 5.09819 15.9354 5.13821L16.1442 5.14193L16.2 5.14007V3.27736C16.0882 3.294 15.9743 3.28565 15.866 3.25287C15.7576 3.2201 15.6573 3.16366 15.572 3.08739C15.4866 3.01112 15.4181 2.9168 15.3712 2.81083C15.3243 2.70486 15.3 2.58972 15.3 2.47321L15.3018 2.41471L15.3081 2.35714Z" fill="#0082D6"/>
</svg>
