<svg width="20" height="21" viewBox="0 0 20 21" fill="none" xmlns="http://www.w3.org/2000/svg">
<path fill-rule="evenodd" clip-rule="evenodd" d="M18.2 3C18.6774 3 19.1352 3.18437 19.4728 3.51256C19.8104 3.84075 20 4.28587 20 4.75V8.25C19.1334 7.61812 18.0615 7.31135 16.981 7.38601C15.9005 7.46066 14.884 7.91173 14.118 8.65641C13.3521 9.40108 12.8881 10.3894 12.8113 11.4399C12.7345 12.4903 13.0501 13.5325 13.7 14.375V17H3.8C3.32261 17 2.86477 16.8156 2.52721 16.4874C2.18964 16.1592 2 15.7141 2 15.25V4.75C2 4.28587 2.18964 3.84075 2.52721 3.51256C2.86477 3.18437 3.32261 3 3.8 3H18.2ZM7.4 10.875H5.6C5.3613 10.875 5.13239 10.9672 4.9636 11.1313C4.79482 11.2954 4.7 11.5179 4.7 11.75C4.7 11.9821 4.79482 12.2046 4.9636 12.3687C5.13239 12.5328 5.3613 12.625 5.6 12.625H7.4C7.63869 12.625 7.86761 12.5328 8.0364 12.3687C8.20518 12.2046 8.3 11.9821 8.3 11.75C8.3 11.5179 8.20518 11.2954 8.0364 11.1313C7.86761 10.9672 7.63869 10.875 7.4 10.875ZM11 7.375H5.6C5.37061 7.37525 5.14997 7.46064 4.98317 7.61374C4.81637 7.76684 4.71599 7.97608 4.70255 8.19872C4.6891 8.42136 4.76361 8.64058 4.91084 8.8116C5.05807 8.98263 5.26691 9.09253 5.4947 9.11888L5.6 9.125H11C11.2294 9.12475 11.45 9.03936 11.6168 8.88626C11.7836 8.73316 11.884 8.52392 11.8975 8.30128C11.9109 8.07864 11.8364 7.85942 11.6892 7.6884C11.5419 7.51737 11.3331 7.40747 11.1053 7.38112L11 7.375Z" fill="#0060AA"/>
<path d="M18.9177 9.44537C18.5007 9.15532 18.0063 9.00001 17.5 9C16.9937 9.00001 16.4993 9.15532 16.0823 9.44537C15.6653 9.73542 15.3452 10.1465 15.1646 10.6243C14.9839 11.1021 14.9511 11.6241 15.0705 12.1211C15.1899 12.6181 15.4559 13.0668 15.8333 13.4078V17.5791C15.8333 17.6509 15.8515 17.7215 15.8861 17.7841C15.9207 17.8468 15.9706 17.8995 16.0311 17.9372C16.0915 17.9749 16.1605 17.9964 16.2315 17.9996C16.3025 18.0028 16.3731 17.9876 16.4366 17.9554L17.5 17.4183L18.5634 17.9554C18.6269 17.9876 18.6975 18.0028 18.7685 17.9996C18.8395 17.9964 18.9085 17.9749 18.9689 17.9372C19.0294 17.8995 19.0793 17.8468 19.1139 17.7841C19.1485 17.7215 19.1667 17.6509 19.1667 17.5791V13.4078C19.5441 13.0668 19.8101 12.6181 19.9295 12.1211C20.0489 11.6241 20.0161 11.1021 19.8354 10.6243C19.6548 10.1465 19.3347 9.73542 18.9177 9.44537Z" fill="#EF4665"/>
</svg>
