<svg width="20" height="21" viewBox="0 0 20 21" fill="none" xmlns="http://www.w3.org/2000/svg">
<path fill-rule="evenodd" clip-rule="evenodd" d="M10 1.5C11.7239 1.5 13.3772 2.20718 14.5962 3.46598C15.8152 4.72477 16.5 6.43206 16.5 8.21226C16.5 10.5105 15.2867 12.3792 14.03 13.7074C13.5305 14.23 12.9936 14.7131 12.4241 15.1527C11.9093 15.5519 10.7323 16.3001 10.7323 16.3001C10.5091 16.4311 10.2568 16.5 10 16.5C9.74324 16.5 9.26767 16.3001 9.26767 16.3001C9.26767 16.3001 8.11853 15.5677 7.57593 15.1527C7.00614 14.7134 6.4693 14.2302 5.97 13.7074C4.71333 12.3792 3.5 10.5105 3.5 8.21226C3.5 6.43206 4.18482 4.72477 5.40381 3.46598C6.62279 2.20718 8.27609 1.5 10 1.5ZM8.77435 6.94659C9.09941 6.61091 9.54029 6.42233 10 6.42233C10.4597 6.42233 10.9006 6.61091 11.2257 6.94659C11.5507 7.28227 11.7333 7.73754 11.7333 8.21226C11.7333 8.68698 11.5507 9.14226 11.2257 9.47794C10.9006 9.81362 10.4597 10.0022 10 10.0022C9.54029 10.0022 9.09941 9.81362 8.77435 9.47794C8.44929 9.14226 8.26667 8.68698 8.26667 8.21226C8.26667 7.73754 8.44929 7.28227 8.77435 6.94659Z" fill="#0060AA"/>
<path d="M5.38 15.5296C5.60278 15.4746 5.84225 15.4968 6.04573 15.5913C6.24921 15.6857 6.40002 15.8447 6.465 16.0333C6.52998 16.2219 6.5038 16.4247 6.39221 16.5969C6.28063 16.7692 6.09278 16.8968 5.87 16.9519C5.4325 17.06 5.1175 17.1741 4.91538 17.2778C5.12363 17.3837 5.45262 17.5022 5.90937 17.6126C6.92 17.857 8.36637 18.0185 10 18.0185C11.6336 18.0185 13.08 17.857 14.0906 17.6126C14.5482 17.5022 14.8764 17.3837 15.0846 17.2778C14.8834 17.1741 14.5684 17.06 14.1309 16.9519C13.9116 16.8944 13.7278 16.7664 13.619 16.5952C13.5102 16.4241 13.4852 16.2237 13.5494 16.0371C13.6135 15.8506 13.7617 15.6928 13.962 15.5979C14.1623 15.503 14.3986 15.4784 14.62 15.5296C15.2045 15.6741 15.74 15.8593 16.1513 16.097C16.5319 16.3185 17 16.7044 17 17.2778C17 17.8578 16.5205 18.2467 16.1337 18.4681C15.7155 18.7067 15.1686 18.8926 14.571 19.037C13.3653 19.3296 11.75 19.5 10 19.5C8.25 19.5 6.63475 19.3296 5.429 19.037C4.83138 18.8926 4.2845 18.7067 3.86625 18.4681C3.4795 18.2459 3 17.8578 3 17.2778C3 16.7044 3.46812 16.3185 3.84875 16.097C4.26 15.8593 4.7955 15.6741 5.38 15.5296Z" fill="#EF4665"/>
</svg>
