<svg width="20" height="20" viewBox="0 0 20 20" fill="none" xmlns="http://www.w3.org/2000/svg">
<path d="M16.6645 3.80261C16.5728 3.78549 16.4778 3.77734 16.3813 3.77734H3.61355L3.47151 3.78386C3.37894 3.79201 3.28797 3.80831 3.2002 3.83276L10.0014 10.7773L16.8002 3.83439L16.6645 3.80261Z" fill="#EF4665"/>
<path d="M2.0544 4.55469L9.1544 11.6874C9.36444 11.8986 9.64499 12.0239 9.94175 12.0392C10.2385 12.0545 10.5304 11.9586 10.7608 11.7702L10.852 11.6874L17.9472 4.55951C17.9704 4.64791 17.9856 4.73791 17.9936 4.83032L18 4.97095V14.6142C18.0001 15.0196 17.8477 15.4102 17.5732 15.7075C17.2987 16.0048 16.9225 16.1869 16.52 16.2173L16.4 16.2214H3.6C3.19634 16.2215 2.80755 16.0683 2.51156 15.7926C2.21558 15.5169 2.03427 15.139 2.004 14.7347L2 14.6142V4.97095C2 4.87452 2.008 4.7813 2.024 4.68969L2.0544 4.55469Z" fill="#0060AA"/>
</svg>
