<svg width="36" height="36" viewBox="0 0 36 36" fill="none" xmlns="http://www.w3.org/2000/svg">
<path d="M18.0004 9C15.5433 9 13.5444 11.0839 13.5444 13.6457C13.5444 16.2073 15.5433 18.2902 18.0004 18.2902C20.4574 18.2902 22.4552 16.2073 22.4552 13.6457C22.4552 11.0839 20.4574 9 18.0004 9ZM18.0004 11.7219C19.0173 11.7219 19.8442 12.5853 19.8442 13.6457C19.8442 14.7056 19.0173 15.5683 18.0004 15.5683C16.9832 15.5683 16.1554 14.7056 16.1554 13.6457C16.1554 12.5853 16.9832 11.7219 18.0004 11.7219ZM14.3267 18.4483C13.8858 18.4412 13.4523 18.6677 13.2008 19.0856C12.8165 19.7222 13.0006 20.5623 13.6097 20.9627C14.4154 21.4897 15.2897 21.8637 16.1964 22.0792L13.7063 24.6769C13.1965 25.2087 13.197 26.0699 13.7068 26.6017C13.9624 26.8672 14.2957 27 14.6298 27C14.9637 27 15.2981 26.867 15.5529 26.6012L17.9993 24.0491L20.4479 26.6012C20.9573 27.1328 21.7832 27.1328 22.2934 26.6012C22.8034 26.0697 22.8034 25.2075 22.2934 24.6769L19.8022 22.0798C20.7091 21.8643 21.5837 21.4901 22.3889 20.9627C22.9992 20.5623 23.1836 19.7213 22.7994 19.0856C22.4148 18.4489 21.6095 18.2571 20.9987 18.6581C19.1745 19.8546 16.8241 19.8538 15.0004 18.6581C14.7905 18.5203 14.5576 18.4521 14.3267 18.4483Z" fill="#0060AA"/>
</svg>
