<svg width="130" height="110" viewBox="0 0 130 110" fill="none" xmlns="http://www.w3.org/2000/svg">
<g opacity="0.2">
<path d="M93.4332 0C98.7432 0 103.836 2.06628 107.59 5.74428C111.345 9.42228 113.455 14.4107 113.455 19.6122V26.1496H60.0642C52.9842 26.1496 46.1941 28.9046 41.1878 33.8086C36.1815 38.7126 33.369 45.3639 33.369 52.2992V78.4488C33.369 85.2738 36.0385 91.4974 40.4165 96.1521L33.369 101.33C27.8698 105.37 20.0214 101.526 20.0214 94.7923V84.9862C14.7114 84.9862 9.61887 82.9199 5.86413 79.2419C2.10939 75.5639 0 70.5755 0 65.374V19.6122C0 14.4107 2.10939 9.42228 5.86413 5.74428C9.61887 2.06628 14.7114 0 20.0214 0H93.4332Z" fill="#0060AA"/>
<path d="M124.088 40.9724C120.304 37.2164 115.17 35.1064 109.818 35.1064H62.7267C57.3742 35.1064 52.2409 37.2164 48.456 40.9724C44.6712 44.7283 42.5449 49.8225 42.5449 55.1342V75.162C42.5449 80.4737 44.6712 85.5679 48.456 89.3238C52.2409 93.0797 57.3742 95.1898 62.7267 95.1898H80.4733L96.0267 108.048C101.503 112.581 109.818 108.715 109.818 101.639V95.1898C115.17 95.1898 120.304 93.0797 124.088 89.3238C127.873 85.5679 129.999 80.4737 129.999 75.162V55.1342C129.999 49.8225 127.873 44.7283 124.088 40.9724Z" fill="#EF4665"/>
</g>
</svg>
