<svg width="20" height="20" viewBox="0 0 20 20" fill="none" xmlns="http://www.w3.org/2000/svg">
<path fill-rule="evenodd" clip-rule="evenodd" d="M16 1C16.5046 0.99984 16.9906 1.19041 17.3605 1.5335C17.7305 1.87659 17.9572 2.34684 17.995 2.85L18 3V7.02C17.2445 6.87669 16.4662 6.90969 15.7255 7.11644C14.9849 7.32319 14.302 7.69811 13.73 8.212L13.534 8.397L7.878 14.054C7.36391 14.5682 7.05403 15.2515 7.006 15.977L6.999 16.175V19.004C6.99908 19.2757 7.03609 19.5462 7.109 19.808L7.169 20H4C3.49542 20.0002 3.00943 19.8096 2.63945 19.4665C2.26947 19.1234 2.04284 18.6532 2.005 18.15L2 18V3C1.99984 2.49542 2.19041 2.00943 2.5335 1.63945C2.87659 1.26947 3.34684 1.04284 3.85 1.005L4 1H16ZM10 5H6C5.73478 5 5.48043 5.10536 5.29289 5.29289C5.10536 5.48043 5 5.73478 5 6C5 6.26522 5.10536 6.51957 5.29289 6.70711C5.48043 6.89464 5.73478 7 6 7H10C10.2652 7 10.5196 6.89464 10.7071 6.70711C10.8946 6.51957 11 6.26522 11 6C11 5.73478 10.8946 5.48043 10.7071 5.29289C10.5196 5.10536 10.2652 5 10 5Z" fill="#0060AA"/>
<path d="M17.7216 15.4936L13.5064 11.2784L9.29115 15.4936C9.10479 15.6799 9.00006 15.9326 9 16.196V19.0065C9 19.27 9.10469 19.5227 9.29105 19.709C9.4774 19.8953 9.73015 20 9.99369 20H12.8028C13.0664 19.9999 13.3191 19.8952 13.5054 19.7089L17.7216 15.4936Z" fill="#EF4665"/>
<path d="M19.773 10.8406C19.6232 10.479 19.4036 10.1504 19.1267 9.87361L19.1277 9.87262C18.5686 9.31388 17.8105 9 17.0201 9C16.2296 9 15.4715 9.31388 14.9125 9.87262L19.1267 14.0889C19.4036 13.8121 19.6232 13.4835 19.773 13.1219C19.9229 12.7603 20 12.3727 20 11.9812C20 11.5898 19.9229 11.2022 19.773 10.8406Z" fill="#EF4665"/>
</svg>
