<svg width="130" height="130" viewBox="0 0 130 130" fill="none" xmlns="http://www.w3.org/2000/svg">
<g opacity="0.2">
<path d="M58.4983 0C49.879 0 41.6127 3.424 35.518 9.51875C29.4232 15.6135 25.9992 23.8798 25.9992 32.499C25.9992 41.1183 29.4232 49.3846 35.518 55.4793C41.6127 61.5741 49.879 64.9981 58.4983 64.9981C67.1176 64.9981 75.3838 61.5741 81.4786 55.4793C87.5733 49.3846 90.9973 41.1183 90.9973 32.499C90.9973 23.8798 87.5733 15.6135 81.4786 9.51875C75.3838 3.424 67.1176 0 58.4983 0ZM58.4983 71.4979C42.9312 71.4979 28.7617 76.0088 18.3425 82.3656C13.1426 85.5375 8.69674 89.2814 5.48584 93.3503C2.32693 97.3411 0 102.132 0 107.247C0 112.739 2.67142 117.068 6.51931 120.155C10.1592 123.08 14.9626 125.017 20.0649 126.369C30.3216 129.08 44.0102 129.996 58.4983 129.996L62.9506 129.964C64.0392 129.949 65.1066 129.661 66.0548 129.126C67.003 128.591 67.8017 127.826 68.3775 126.902C68.9534 125.979 69.2879 124.925 69.3504 123.838C69.413 122.751 69.2015 121.666 68.7355 120.682C66.2652 115.467 64.9885 109.767 64.9981 103.997C64.9981 95.8592 67.4875 88.3194 71.7384 82.0731C72.3702 81.1449 72.7508 80.0688 72.8431 78.9497C72.9354 77.8306 72.7361 76.7067 72.2648 75.6875C71.7935 74.6683 71.0662 73.7886 70.1538 73.1341C69.2414 72.4796 68.175 72.0727 67.0585 71.9529C64.2636 71.6539 61.4037 71.4979 58.4983 71.4979Z" fill="#0060AA"/>
<path d="M103.995 84.3545C98.6591 81.4296 92.6402 81.8001 87.7459 84.6535C81.7921 88.1244 77.8272 94.9947 78.0027 102.781C78.2302 112.973 86.1079 120.961 96.7546 127.286L96.7642 127.291C98.9908 128.609 101.334 129.996 103.995 129.996C106.657 129.996 108.989 128.616 111.211 127.301L111.236 127.286C121.883 120.961 129.761 112.98 129.995 102.775C130.164 94.9882 126.199 88.1244 120.245 84.6535C115.351 81.8001 109.332 81.4296 103.995 84.3545Z" fill="#D82848"/>
</g>
</svg>
