<svg width="130" height="137" viewBox="0 0 130 137" fill="none" xmlns="http://www.w3.org/2000/svg">
<g opacity="0.2">
<path fill-rule="evenodd" clip-rule="evenodd" d="M100.72 7.22833e-07C104.351 -0.00115041 107.847 1.37264 110.509 3.84598C113.17 6.31933 114.801 9.70942 115.073 13.3367L115.109 14.418V43.3982C109.674 42.3651 104.074 42.603 98.746 44.0935C93.4176 45.5839 88.5046 48.2867 84.3894 51.9914L82.9793 53.325L42.2882 94.1064C38.5897 97.8129 36.3603 102.739 36.0148 107.969L35.9644 109.397V129.791C35.965 131.75 36.2312 133.7 36.7558 135.587L37.1874 136.971H14.3886C10.7586 136.972 7.26219 135.599 4.60042 133.125C1.93866 130.652 0.308229 127.262 0.0359731 123.635L7.2136e-07 122.553V14.418C-0.00114806 10.7805 1.36985 7.27702 3.83815 4.60982C6.30645 1.94262 9.68963 0.308859 13.3095 0.0360466L14.3886 7.22833e-07H100.72ZM57.5546 28.836H28.7773C26.8692 28.836 25.0393 29.5956 23.6901 30.9475C22.3409 32.2995 21.583 34.1331 21.583 36.045C21.583 37.957 22.3409 39.7906 23.6901 41.1426C25.0393 42.4945 26.8692 43.2541 28.7773 43.2541H57.5546C59.4626 43.2541 61.2925 42.4945 62.6417 41.1426C63.9909 39.7906 64.7489 37.957 64.7489 36.045C64.7489 34.1331 63.9909 32.2995 62.6417 30.9475C61.2925 29.5956 59.4626 28.836 57.5546 28.836Z" fill="#0060AA"/>
<path d="M113.505 104.3L82.9866 73.7121L52.4683 104.3C51.119 105.652 50.3608 107.485 50.3604 109.397V129.791C50.3604 131.703 51.1183 133.537 52.4675 134.889C53.8167 136.24 55.6466 137 57.5547 137H77.893C79.8009 137 81.6305 136.24 82.9794 134.888L113.505 104.3Z" fill="#EF4665"/>
<path d="M128.357 70.5353C127.272 67.9112 125.682 65.5269 123.678 63.5186L123.685 63.5114C119.637 59.4569 114.149 57.1793 108.426 57.1793C102.703 57.1793 97.214 59.4569 93.1666 63.5114L123.678 94.1064C125.682 92.0981 127.272 89.7138 128.357 87.0896C129.442 84.4655 130 81.6529 130 78.8125C130 75.9721 129.442 73.1595 128.357 70.5353Z" fill="#EF4665"/>
</g>
</svg>
