<svg width="20" height="21" viewBox="0 0 20 21" fill="none" xmlns="http://www.w3.org/2000/svg">
<g clip-path="url(#clip0_2076_652)">
<path d="M10.5367 2.50033C11.6413 0.587514 14.0869 -0.0679922 15.9998 1.03658C16.7576 1.47409 17.3511 2.14807 17.6893 2.9552C18.0274 3.76233 18.0915 4.65807 17.8718 5.50514C17.7507 5.97173 17.1824 6.10313 16.8594 5.78928L16.8232 5.75119L15.9659 4.76584C15.5838 4.32706 15.975 3.66508 16.5288 3.76487L16.5795 3.7763L16.7768 3.82733C16.6281 3.21441 16.2807 2.66793 15.7888 2.27313C15.297 1.87833 14.6883 1.65739 14.0577 1.64479C13.4272 1.63219 12.8101 1.82863 12.3029 2.20346C11.7957 2.5783 11.4267 3.11047 11.2537 3.71696C11.0806 4.32345 11.1131 4.97017 11.3461 5.55625C11.5791 6.14233 11.9995 6.63483 12.5418 6.95692C13.0841 7.27901 13.7177 7.4126 14.3438 7.33684C14.9699 7.26108 15.5534 6.98023 16.0032 6.5381C16.0567 6.48548 16.12 6.44392 16.1896 6.41577C16.2591 6.38763 16.3336 6.37347 16.4086 6.37408C16.4836 6.3747 16.5578 6.3901 16.6269 6.41938C16.696 6.44867 16.7586 6.49127 16.8112 6.54477C16.8639 6.59826 16.9054 6.6616 16.9336 6.73116C16.9617 6.80072 16.9759 6.87514 16.9753 6.95018C16.9746 7.02521 16.9592 7.09939 16.93 7.16847C16.9007 7.23756 16.8581 7.3002 16.8046 7.35282C15.5549 8.58232 13.5937 8.88322 12.0004 7.96338C10.0876 6.85881 9.43213 4.41352 10.5367 2.50033ZM14.0001 2.02422C14.1421 2.02422 14.279 2.07707 14.3841 2.17248C14.4892 2.26789 14.555 2.39902 14.5688 2.54032L14.5714 2.59555V4.26345L15.3561 5.04808C15.4601 5.15153 15.5203 5.29104 15.5243 5.43769C15.5283 5.58435 15.4757 5.72692 15.3774 5.83586C15.2792 5.9448 15.1428 6.01176 14.9965 6.02287C14.8502 6.03399 14.7052 5.9884 14.5916 5.89555L14.5482 5.85632L13.596 4.9041C13.5026 4.81069 13.4444 4.6878 13.4314 4.55635L13.4288 4.49998V2.59555C13.4288 2.44402 13.489 2.2987 13.5961 2.19156C13.7033 2.08441 13.8486 2.02422 14.0001 2.02422Z" fill="#EF4665"/>
<path fill-rule="evenodd" clip-rule="evenodd" d="M13.771 19.4977C12.6173 19.4553 9.3476 19.0034 5.92331 15.5799C2.49983 12.1556 2.04876 8.88676 2.00549 7.73224C1.9414 5.97283 3.289 4.26389 4.84571 3.5965C5.03317 3.51555 5.23846 3.48473 5.44142 3.50707C5.64439 3.5294 5.83806 3.60412 6.00343 3.72389C7.28534 4.65808 8.16985 6.07138 8.92938 7.18263C9.0965 7.42677 9.16795 7.72387 9.13013 8.0173C9.0923 8.31074 8.94784 8.58 8.72428 8.77379L7.16115 9.93472C7.08564 9.98925 7.03248 10.0693 7.01155 10.1601C6.99063 10.2509 7.00336 10.3462 7.04738 10.4282C7.40151 11.0716 8.03125 12.0298 8.75232 12.7509C9.47419 13.472 10.4773 14.1434 11.1655 14.5376C11.2518 14.586 11.3534 14.5995 11.4493 14.5754C11.5453 14.5513 11.6284 14.4913 11.6815 14.4078L12.699 12.8591C12.8861 12.6106 13.162 12.4441 13.4691 12.3945C13.7761 12.3449 14.0905 12.4161 14.3462 12.5931C15.4735 13.3734 16.7891 14.2427 17.7521 15.4757C17.8816 15.6423 17.964 15.8406 17.9906 16.0499C18.0172 16.2592 17.9872 16.4718 17.9035 16.6655C17.2329 18.2302 15.536 19.5626 13.771 19.4977Z" fill="#0060AA"/>
</g>
<defs>
<clipPath id="clip0_2076_652">
<rect width="20" height="20" fill="white" transform="translate(0 0.5)"/>
</clipPath>
</defs>
</svg>
