<svg viewBox="0 0 24 24" fill="none" xmlns="http://www.w3.org/2000/svg">
<path fill-rule="evenodd" clip-rule="evenodd" d="M1.08539 1.82372C1.12502 1.50427 1.24251 1.19805 1.42851 0.929426C1.61451 0.660807 1.86388 0.437218 2.15675 0.276468C2.44962 0.115719 2.77791 0.0222511 3.11546 0.00350974C3.45301 -0.0152317 3.79049 0.0412711 4.10103 0.168518C5.67094 0.806973 9.18919 2.32436 13.6535 4.77552C18.1193 7.22809 21.2606 9.36986 22.6251 10.3416C23.7899 11.1727 23.7929 12.8209 22.6265 13.6548C21.2754 14.6209 18.1726 16.7346 13.6535 19.2181C9.13006 21.7016 5.6532 23.2007 4.09808 23.8307C2.75878 24.375 1.25982 23.5495 1.08539 22.1755C0.881391 20.5695 0.5 16.923 0.5 11.9982C0.5 7.07621 0.879912 3.43111 1.08539 1.82372Z" fill="#FFFFFE"/>
</svg>
