<svg width="13" height="10" viewBox="0 0 13 10" fill="none" xmlns="http://www.w3.org/2000/svg">
<path fill-rule="evenodd" clip-rule="evenodd" d="M10.9939 0.0858354C11.1271 0.00587912 11.2862 -0.0194799 11.4378 0.0150806C11.5893 0.0496411 11.7215 0.141434 11.8067 0.271194L12.4019 1.17699C12.4795 1.29532 12.5127 1.43719 12.4956 1.57757C12.4786 1.71795 12.4124 1.8478 12.3087 1.94422L12.3069 1.94662L12.2985 1.95441L12.2642 1.98621L12.129 2.11518C11.3805 2.83957 10.6547 3.58696 9.95266 4.35627C8.63186 5.80554 7.06336 7.70231 6.00768 9.5427C5.7131 10.0562 4.99348 10.1666 4.56664 9.72326L0.667949 5.68137C0.612078 5.62343 0.568452 5.55486 0.539665 5.47976C0.510879 5.40466 0.497519 5.32454 0.500379 5.24419C0.503239 5.16383 0.522261 5.08486 0.556315 5.01199C0.590369 4.93911 0.638759 4.87381 0.698609 4.81997L1.87693 3.75941C1.98048 3.66625 2.11326 3.61191 2.25254 3.60567C2.39182 3.59943 2.52894 3.64169 2.64044 3.72521L4.62976 5.21348C7.73729 2.15597 9.49937 0.982633 10.9939 0.0858354Z" fill="#EF4665"/>
</svg>
