<svg width="80" height="80" viewBox="0 0 80 80" fill="none" xmlns="http://www.w3.org/2000/svg">
<circle cx="40" cy="40" r="40" fill="#4EA998" fill-opacity="0.2"/>
<rect x="10" y="10" width="60" height="60" rx="30" fill="#4EA998"/>
<path fill-rule="evenodd" clip-rule="evenodd" d="M54.3409 30.1469C54.7629 30.5608 55 31.1221 55 31.7073C55 32.2925 54.7629 32.8538 54.3409 33.2677L37.4672 49.8103C37.2442 50.029 36.9795 50.2024 36.6881 50.3208C36.3967 50.4391 36.0844 50.5 35.769 50.5C35.4536 50.5 35.1413 50.4391 34.8499 50.3208C34.5586 50.2024 34.2938 50.029 34.0708 49.8103L25.6873 41.5927C25.4723 41.3891 25.3008 41.1456 25.1828 40.8763C25.0648 40.607 25.0027 40.3174 25.0001 40.0244C24.9975 39.7313 25.0544 39.4407 25.1676 39.1695C25.2808 38.8982 25.448 38.6518 25.6594 38.4446C25.8707 38.2373 26.1221 38.0735 26.3988 37.9625C26.6754 37.8515 26.9719 37.7957 27.2708 37.7982C27.5697 37.8008 27.8651 37.8617 28.1398 37.9773C28.4144 38.093 28.6628 38.2611 28.8705 38.4719L35.7683 45.2343L51.1561 30.1469C51.3652 29.9418 51.6134 29.7791 51.8867 29.6681C52.1599 29.5571 52.4527 29.5 52.7485 29.5C53.0443 29.5 53.3371 29.5571 53.6103 29.6681C53.8836 29.7791 54.1318 29.9418 54.3409 30.1469Z" fill="#FFFFFE"/>
</svg>
