<svg width="80" height="80" viewBox="0 0 80 80" fill="none" xmlns="http://www.w3.org/2000/svg">
<circle cx="40" cy="40" r="40" fill="#FEBDC8"/>
<rect x="10" y="10" width="60" height="60" rx="30" fill="#EF4665"/>
<path fill-rule="evenodd" clip-rule="evenodd" d="M40.0114 42.6921L46.7467 49.4197C47.1041 49.7767 47.5888 49.9772 48.0943 49.9772C48.5997 49.9772 49.0844 49.7767 49.4418 49.4197C49.7992 49.0627 50 48.5785 50 48.0736C50 47.5688 49.7992 47.0846 49.4418 46.7276L42.704 40L49.4405 33.2724C49.6174 33.0956 49.7577 32.8858 49.8534 32.6549C49.9491 32.4239 49.9983 32.1765 49.9983 31.9265C49.9982 31.6766 49.9489 31.4292 49.8531 31.1983C49.7573 30.9674 49.6169 30.7576 49.4399 30.581C49.2629 30.4043 49.0529 30.2641 48.8217 30.1686C48.5905 30.073 48.3427 30.0238 48.0925 30.0239C47.8423 30.0239 47.5946 30.0732 47.3634 30.1689C47.1323 30.2646 46.9223 30.4048 46.7454 30.5816L40.0114 37.3092L33.2761 30.5816C33.1004 30.3998 32.8903 30.2547 32.6579 30.1548C32.4255 30.055 32.1755 30.0024 31.9226 30.0001C31.6696 29.9978 31.4187 30.0458 31.1846 30.1414C30.9504 30.2369 30.7376 30.3781 30.5586 30.5567C30.3797 30.7353 30.2381 30.9477 30.1422 31.1815C30.0463 31.4154 29.998 31.6659 30.0001 31.9186C30.0021 32.1713 30.0546 32.421 30.1543 32.6532C30.254 32.8854 30.3991 33.0955 30.581 33.2711L37.3188 40L30.5822 46.7289C30.4004 46.9045 30.2553 47.1146 30.1556 47.3468C30.0558 47.579 30.0034 47.8287 30.0013 48.0814C29.9993 48.3341 30.0476 48.5846 30.1435 48.8185C30.2394 49.0523 30.3809 49.2647 30.5599 49.4433C30.7389 49.6219 30.9516 49.7631 31.1858 49.8586C31.42 49.9542 31.6709 50.0022 31.9239 49.9999C32.1768 49.9976 32.4268 49.945 32.6592 49.8452C32.8916 49.7453 33.1017 49.6002 33.2774 49.4184L40.0114 42.6921Z" fill="#FFFFFE"/>
</svg>
