<svg width="20" height="18" viewBox="0 0 20 18" fill="none" xmlns="http://www.w3.org/2000/svg">
<path d="M7.90668 2.27913C9.39347 0.230406 11.6289 -0.367855 13.6853 0.20781C15.905 0.828668 17.8566 2.78808 18.5047 5.51684C18.5382 5.65672 18.5676 5.79661 18.5916 5.93649C17.656 5.59411 16.6384 5.56772 15.6872 5.86117C14.3396 4.8368 12.6707 4.66464 11.187 5.22632C9.32855 5.93111 7.87737 7.71836 7.54127 9.96722C7.11199 12.8466 8.81865 15.4334 11.2321 17.6327L11.6383 17.9943C11.3106 18.0179 10.9776 17.9652 10.6593 17.8953C10.4957 17.8593 10.333 17.8191 10.1714 17.7747L9.60916 17.6133C4.61062 16.1683 1.26431 13.9076 0.304183 10.5289C-0.462245 7.83242 0.274866 5.13271 1.89567 3.45413C3.39712 1.8993 5.62311 1.26876 7.90668 2.27913ZM9.61125 10.2933C10.0594 7.28903 13.4402 5.80844 15.1762 8.38656C15.1929 8.41052 15.218 8.42678 15.2462 8.43182C15.2745 8.43685 15.3035 8.43026 15.327 8.41346C17.8158 6.60146 20.4993 9.18066 19.9203 12.1612C19.5853 13.8893 18.0252 15.3247 15.2401 16.4652L14.7846 16.6482L14.5093 16.7644C14.2716 16.8601 14.0203 16.9365 13.7931 16.8957C13.5669 16.8548 13.3565 16.6934 13.1649 16.5212L12.8403 16.2199C10.4185 14.0776 9.34216 12.102 9.61125 10.2933Z" fill="#FFFFFE"/>
</svg>
