<svg width="18" height="18" viewBox="0 0 18 18" fill="none" xmlns="http://www.w3.org/2000/svg">
<path d="M8.05553 1.03582C8.1518 0.872787 8.2897 0.737514 8.45548 0.643495C8.62126 0.549477 8.80912 0.5 9.00033 0.5C9.19153 0.5 9.37939 0.549477 9.54517 0.643495C9.71095 0.737514 9.84885 0.872787 9.94512 1.03582L12.3902 5.17814L17.1387 6.19343C17.3255 6.23348 17.4984 6.32116 17.6401 6.44771C17.7818 6.57426 17.8875 6.73527 17.9465 6.91468C18.0056 7.0941 18.0159 7.28565 17.9766 7.47024C17.9372 7.65483 17.8495 7.82602 17.7222 7.96673L14.4854 11.5418L14.9753 16.3118C14.9946 16.4996 14.9637 16.6892 14.8856 16.8615C14.8074 17.0338 14.6849 17.1829 14.5301 17.2939C14.3754 17.4049 14.1938 17.4738 14.0036 17.4939C13.8134 17.514 13.6211 17.4844 13.4461 17.4082L9.00033 15.4744L4.55454 17.4082C4.37951 17.4844 4.18729 17.514 3.99707 17.4939C3.80685 17.4738 3.6253 17.4049 3.47054 17.2939C3.31577 17.1829 3.19321 17.0338 3.1151 16.8615C3.03698 16.6892 3.00604 16.4996 3.02537 16.3118L3.51526 11.5418L0.278466 7.96759C0.150942 7.82689 0.0630482 7.65564 0.0235577 7.47093C-0.0159327 7.28622 -0.00563769 7.09452 0.0534149 6.91497C0.112467 6.73542 0.218212 6.57429 0.360091 6.44768C0.50197 6.32107 0.67502 6.2334 0.861964 6.19343L5.61044 5.17814L8.05553 1.03582Z" fill="#FFFFFE"/>
</svg>
