<svg width="20" height="20" viewBox="0 0 20 20" fill="none" xmlns="http://www.w3.org/2000/svg">
<path d="M8.17156 0.636347C8.51391 -0.123341 9.56832 -0.160326 9.98158 0.522393L10.0413 0.636347L11.0968 2.98038C12.0184 5.02646 13.551 6.7461 15.4896 7.90936L15.8158 8.09828L17.6896 9.13786C17.8386 9.22016 17.9643 9.33794 18.0553 9.48047C18.1464 9.623 18.1998 9.78575 18.2108 9.95388C18.2218 10.122 18.1899 10.2902 18.1182 10.4431C18.0464 10.5959 17.9371 10.7287 17.8 10.8292L17.6906 10.8991L15.8158 11.9387C13.838 13.0366 12.2471 14.7043 11.2558 16.7187L11.0968 17.0566L10.0413 19.4006C9.69898 20.1603 8.64457 20.1973 8.23132 19.5146L8.17156 19.4006L7.11613 17.0566C6.19454 15.0105 4.66194 13.2909 2.72326 12.1276L2.39711 11.9387L0.52328 10.8991C0.374314 10.8168 0.248587 10.699 0.157558 10.5565C0.0665288 10.414 0.0130916 10.2512 0.0021164 10.0831C-0.00885883 9.91497 0.0229768 9.7468 0.0947223 9.59392C0.166468 9.44104 0.275841 9.30831 0.412875 9.20783L0.522267 9.13786L2.39711 8.09828C4.37489 7.00038 5.96582 5.33268 6.95711 3.31824L7.11613 2.98038L8.17156 0.636347ZM17.4334 0.143549C17.9361 1.27069 18.7935 2.20796 19.8785 2.81645C20.0405 2.90641 20.0405 3.13632 19.8785 3.22628C18.793 3.83486 17.9352 4.77253 17.4323 5.90018C17.4131 5.94264 17.3818 5.97868 17.3423 6.00398C17.3027 6.02927 17.2566 6.04273 17.2095 6.04273C17.1624 6.04273 17.1163 6.02927 17.0767 6.00398C17.0372 5.97868 17.0059 5.94264 16.9867 5.90018C16.4836 4.7729 15.6259 3.83561 14.5406 3.22728C14.5039 3.20666 14.4735 3.17684 14.4523 3.14086C14.4311 3.10487 14.42 3.06399 14.42 3.02237C14.42 2.98075 14.4311 2.93987 14.4523 2.90388C14.4735 2.86789 14.5039 2.83807 14.5406 2.81745C15.6262 2.20861 16.484 1.27058 16.9867 0.142549C17.0059 0.100098 17.0372 0.0640495 17.0767 0.0387546C17.1163 0.0134598 17.1624 0 17.2095 0C17.2566 0 17.3027 0.0134598 17.3423 0.0387546C17.3818 0.0640495 17.4131 0.100098 17.4323 0.142549L17.4334 0.143549Z" fill="#FFFFFE"/>
</svg>
