<svg width="18" height="20" viewBox="0 0 18 20" fill="none" xmlns="http://www.w3.org/2000/svg">
<path fill-rule="evenodd" clip-rule="evenodd" d="M9 0C11.3869 0 13.6761 0.946092 15.364 2.63015C17.0518 4.3142 18 6.59827 18 8.97988V17.5806C18 19.4065 16.034 20.5609 14.435 19.6749L14.072 19.4804C13.072 18.9695 12.288 18.8019 11.183 19.3666L10.985 19.4744C10.4151 19.7992 9.77382 19.9792 9.11775 19.9983C8.46167 20.0174 7.81096 19.8752 7.223 19.5841L7.015 19.4744C5.738 18.746 4.849 18.9635 3.565 19.6739C1.965 20.5619 0 19.4075 0 17.5816V8.97988C0 6.59827 0.948211 4.3142 2.63604 2.63015C4.32387 0.946092 6.61305 0 9 0ZM5.5 6.98435C5.10218 6.98435 4.72064 7.14204 4.43934 7.42271C4.15804 7.70339 4 8.08407 4 8.481C4 8.87794 4.15804 9.25861 4.43934 9.53929C4.72064 9.81997 5.10218 9.97765 5.5 9.97765C5.89782 9.97765 6.27936 9.81997 6.56066 9.53929C6.84196 9.25861 7 8.87794 7 8.481C7 8.08407 6.84196 7.70339 6.56066 7.42271C6.27936 7.14204 5.89782 6.98435 5.5 6.98435ZM12.5 6.98435C12.1022 6.98435 11.7206 7.14204 11.4393 7.42271C11.158 7.70339 11 8.08407 11 8.481C11 8.87794 11.158 9.25861 11.4393 9.53929C11.7206 9.81997 12.1022 9.97765 12.5 9.97765C12.8978 9.97765 13.2794 9.81997 13.5607 9.53929C13.842 9.25861 14 8.87794 14 8.481C14 8.08407 13.842 7.70339 13.5607 7.42271C13.2794 7.14204 12.8978 6.98435 12.5 6.98435Z" fill="#FFFFFE"/>
</svg>
