<svg width="22" height="18" viewBox="0 0 22 18" fill="none" xmlns="http://www.w3.org/2000/svg">
<path fill-rule="evenodd" clip-rule="evenodd" d="M11.9548 0.5C12.5246 0.500151 13.0847 0.652296 13.5805 0.94162C14.0763 1.23095 14.4909 1.64759 14.784 2.15099L17.1677 6.24277L20.0728 6.61671C20.605 6.68521 21.0945 6.95161 21.4494 7.36582C21.8043 7.78003 22.0001 8.31352 22 8.866V11.8314C22.0002 12.5608 21.7727 13.2708 21.3513 13.8568C20.9298 14.4428 20.3366 14.8737 19.6592 15.0858C19.4574 15.7716 19.0505 16.3743 18.4964 16.8077C17.9424 17.241 17.2696 17.4831 16.5741 17.4991C15.8786 17.5152 15.196 17.3046 14.6236 16.8972C14.0513 16.4899 13.6185 15.9067 13.387 15.2309H8.6119C8.37994 15.9058 7.94707 16.4881 7.375 16.8948C6.80293 17.3015 6.12084 17.5118 5.42595 17.4957C4.73106 17.4796 4.05882 17.238 3.50505 16.8053C2.95127 16.3726 2.54422 15.7708 2.3419 15.0858C1.66433 14.8739 1.07088 14.4431 0.649181 13.8571C0.227482 13.2711 -0.000113632 12.5609 4.25612e-08 11.8314V7.51756C-4.68694e-05 7.22916 0.0533416 6.94341 0.1573 6.67563L1.7259 2.63711C1.97078 2.00634 2.39352 1.46562 2.93956 1.08469C3.48561 0.703766 4.12993 0.500113 4.7894 0.5H11.9548ZM5.5 12.9646C5.20826 12.9646 4.92847 13.084 4.72218 13.2965C4.51589 13.509 4.4 13.7972 4.4 14.0977C4.4 14.3982 4.51589 14.6865 4.72218 14.899C4.92847 15.1115 5.20826 15.2309 5.5 15.2309C5.79174 15.2309 6.07153 15.1115 6.27782 14.899C6.48411 14.6865 6.6 14.3982 6.6 14.0977C6.6 13.7972 6.48411 13.509 6.27782 13.2965C6.07153 13.084 5.79174 12.9646 5.5 12.9646ZM16.5 12.9646C16.2083 12.9646 15.9285 13.084 15.7222 13.2965C15.5159 13.509 15.4 13.7972 15.4 14.0977C15.4 14.3982 15.5159 14.6865 15.7222 14.899C15.9285 15.1115 16.2083 15.2309 16.5 15.2309C16.7917 15.2309 17.0715 15.1115 17.2778 14.899C17.4841 14.6865 17.6 14.3982 17.6 14.0977C17.6 13.7972 17.4841 13.509 17.2778 13.2965C17.0715 13.084 16.7917 12.9646 16.5 12.9646ZM11.9548 2.76629H9.9V6.16572H14.5574L12.8975 3.31699C12.7999 3.14918 12.6618 3.01026 12.4966 2.91375C12.3314 2.81724 12.1447 2.76644 11.9548 2.76629ZM7.7 2.76629H4.7894C4.5696 2.76643 4.35487 2.83441 4.17292 2.96145C3.99098 3.08849 3.85015 3.26877 3.7686 3.47903L2.7247 6.16572H7.7V2.76629Z" fill="#FFFFFE"/>
</svg>
