<svg width="153" height="24" viewBox="0 0 153 24" fill="none" xmlns="http://www.w3.org/2000/svg">
<g clip-path="url(#clip0_2239_6492)">
<path d="M8.56814 7.7767H2.72841V17.957H0V5.1701H11.2966V17.957H8.56814V7.7767Z" fill="#FF4A37"/>
<path d="M13.9512 5.17008H16.6796V6.57172C17.238 6.03074 17.8364 5.61271 18.4746 5.31762C19.1128 5.02254 19.8308 4.875 20.6286 4.875C21.5221 4.875 22.3439 5.04713 23.0938 5.39139C23.8597 5.71926 24.5138 6.18647 25.0563 6.79303C25.5988 7.38319 26.0216 8.08815 26.3248 8.90775C26.628 9.71107 26.7795 10.5881 26.7795 11.5389C26.7795 12.5225 26.612 13.4242 26.2769 14.2439C25.9578 15.0471 25.519 15.7438 24.9605 16.334C24.4022 16.9078 23.732 17.3586 22.9502 17.6865C22.1843 18.0143 21.3626 18.1783 20.485 18.1783C19.7032 18.1783 19.0011 18.0553 18.3788 17.8094C17.7566 17.5635 17.1902 17.2193 16.6796 16.7767V22.875H13.9512V5.17008ZM20.0782 15.5717C20.6207 15.5717 21.1232 15.4816 21.5859 15.3012C22.0646 15.1209 22.4795 14.8586 22.8305 14.5144C23.1815 14.1537 23.4528 13.7275 23.6442 13.2356C23.8517 12.7274 23.9554 12.1537 23.9554 11.5144C23.9554 10.9242 23.8676 10.3832 23.6921 9.89138C23.5166 9.38318 23.2613 8.95695 22.9262 8.6127C22.6071 8.25202 22.2242 7.97333 21.7774 7.77668C21.3307 7.57995 20.836 7.48156 20.2935 7.48156C19.4638 7.48156 18.7299 7.68645 18.0916 8.09633C17.4694 8.50613 16.9987 8.99797 16.6796 9.57172V13.457C16.9987 14.1455 17.4534 14.6701 18.0438 15.0308C18.6341 15.3914 19.3123 15.5717 20.0782 15.5717Z" fill="#FF4A37"/>
<path d="M28.1973 11.5389C28.1973 10.5717 28.3568 9.68648 28.6759 8.88323C28.9951 8.06355 29.4498 7.3586 30.0402 6.76844C30.6306 6.17827 31.3326 5.71926 32.1463 5.39139C32.9601 5.04713 33.8615 4.875 34.8508 4.875C35.8241 4.875 36.7176 5.04713 37.5314 5.39139C38.3611 5.71926 39.071 6.17827 39.6614 6.76844C40.2518 7.3586 40.7065 8.06355 41.0257 8.88323C41.3607 9.68648 41.5282 10.5717 41.5282 11.5389C41.5282 12.5062 41.3607 13.3996 41.0257 14.2192C40.7065 15.0226 40.2518 15.7192 39.6614 16.3094C39.071 16.8996 38.3611 17.3586 37.5314 17.6865C36.7176 18.0143 35.8241 18.1783 34.8508 18.1783C33.8775 18.1783 32.984 18.0143 32.1702 17.6865C31.3565 17.3586 30.6544 16.8996 30.0641 16.3094C29.4737 15.7192 29.011 15.0226 28.6759 14.2192C28.3568 13.3996 28.1973 12.5062 28.1973 11.5389ZM31.0214 11.5389C31.0214 12.1127 31.1092 12.6455 31.2847 13.1373C31.4762 13.6291 31.7394 14.0553 32.0745 14.416C32.4096 14.7767 32.8085 15.0635 33.2712 15.2767C33.7499 15.4733 34.2764 15.5717 34.8508 15.5717C35.4252 15.5717 35.9437 15.4816 36.4064 15.3012C36.8851 15.1045 37.292 14.834 37.6271 14.4898C37.9622 14.1291 38.2254 13.7029 38.4169 13.2111C38.6083 12.7192 38.7041 12.1618 38.7041 11.5389C38.7041 10.9159 38.6004 10.3586 38.393 9.86677C38.2015 9.35857 37.9303 8.93235 37.5792 8.5881C37.2282 8.22742 36.8213 7.95698 36.3586 7.77668C35.8959 7.57995 35.3933 7.48156 34.8508 7.48156C34.3083 7.48156 33.7977 7.57995 33.319 7.77668C32.8563 7.95698 32.4495 8.22742 32.0985 8.5881C31.7634 8.93235 31.5001 9.35857 31.3086 9.86677C31.1172 10.3586 31.0214 10.9159 31.0214 11.5389Z" fill="#FF4A37"/>
<path d="M42.2568 15.3504H43.6977C44.258 14.6127 44.6342 13.7684 44.8264 12.8177C45.0185 11.8668 45.1145 10.7931 45.1145 9.59635V5.1701H55.1524V15.3504H56.9054V20.8832H54.3599V17.957H44.8023V20.8832H42.2568V15.3504ZM52.4148 15.3504V7.7767H47.708V11.0472C47.708 11.8341 47.604 12.621 47.3958 13.4078C47.1877 14.1783 46.8996 14.8259 46.5314 15.3504H52.4148Z" fill="#3981F1"/>
<path d="M57.4609 11.5389C57.4609 10.5717 57.621 9.68648 57.9412 8.88323C58.2613 8.06355 58.7177 7.3586 59.31 6.76844C59.9023 6.17827 60.6068 5.71926 61.4232 5.39139C62.2397 5.04713 63.1442 4.875 64.1368 4.875C65.1133 4.875 66.0099 5.04713 66.8264 5.39139C67.6589 5.71926 68.3713 6.17827 68.9636 6.76844C69.556 7.3586 70.0123 8.06355 70.3324 8.88323C70.6686 9.68648 70.8367 10.5717 70.8367 11.5389C70.8367 12.5062 70.6686 13.3996 70.3324 14.2192C70.0123 15.0226 69.556 15.7192 68.9636 16.3094C68.3713 16.8996 67.6589 17.3586 66.8264 17.6865C66.0099 18.0143 65.1133 18.1783 64.1368 18.1783C63.1603 18.1783 62.2637 18.0143 61.4472 17.6865C60.6307 17.3586 59.9264 16.8996 59.334 16.3094C58.7416 15.7192 58.2774 15.0226 57.9412 14.2192C57.621 13.3996 57.4609 12.5062 57.4609 11.5389ZM60.2946 11.5389C60.2946 12.1127 60.3826 12.6455 60.5587 13.1373C60.7508 13.6291 61.015 14.0553 61.3511 14.416C61.6874 14.7767 62.0876 15.0635 62.5519 15.2767C63.0322 15.4733 63.5605 15.5717 64.1368 15.5717C64.7131 15.5717 65.2334 15.4816 65.6977 15.3012C66.178 15.1045 66.5862 14.834 66.9225 14.4898C67.2586 14.1291 67.5228 13.7029 67.7149 13.2111C67.907 12.7192 68.0031 12.1618 68.0031 11.5389C68.0031 10.9159 67.899 10.3586 67.6909 9.86677C67.4988 9.35857 67.2266 8.93235 66.8744 8.5881C66.5222 8.22742 66.114 7.95698 65.6497 7.77668C65.1854 7.57995 64.6812 7.48156 64.1368 7.48156C63.5925 7.48156 63.0802 7.57995 62.5999 7.77668C62.1357 7.95698 61.7274 8.22742 61.3752 8.5881C61.039 8.93235 60.7748 9.35857 60.5827 9.86677C60.3906 10.3586 60.2946 10.9159 60.2946 11.5389Z" fill="#3981F1"/>
<path d="M72.5312 5.1701H75.2688V10.3586L80.6719 5.1701H84.2499L78.1743 10.9488L84.4663 17.957H80.9604L76.1817 12.6947L75.2688 13.6045V17.957H72.5312V5.1701Z" fill="#3981F1"/>
<path d="M85.3301 5.1701H97.0972V7.7767H92.5823V17.957H89.845V7.7767H85.3301V5.1701Z" fill="#3981F1"/>
<path d="M97.6953 11.5389C97.6953 10.5717 97.8556 9.68648 98.1762 8.88323C98.496 8.06355 98.9521 7.3586 99.5444 6.76844C100.137 6.17827 100.841 5.71926 101.658 5.39139C102.474 5.04713 103.379 4.875 104.371 4.875C105.348 4.875 106.244 5.04713 107.061 5.39139C107.894 5.71926 108.606 6.17827 109.198 6.76844C109.79 7.3586 110.247 8.06355 110.567 8.88323C110.904 9.68648 111.071 10.5717 111.071 11.5389C111.071 12.5062 110.904 13.3996 110.567 14.2192C110.247 15.0226 109.79 15.7192 109.198 16.3094C108.606 16.8996 107.894 17.3586 107.061 17.6865C106.244 18.0143 105.348 18.1783 104.371 18.1783C103.395 18.1783 102.498 18.0143 101.682 17.6865C100.865 17.3586 100.161 16.8996 99.5685 16.3094C98.9761 15.7192 98.512 15.0226 98.1762 14.2192C97.8556 13.3996 97.6953 12.5062 97.6953 11.5389ZM100.529 11.5389C100.529 12.1127 100.618 12.6455 100.793 13.1373C100.986 13.6291 101.249 14.0553 101.586 14.416C101.922 14.7767 102.322 15.0635 102.787 15.2767C103.267 15.4733 103.795 15.5717 104.371 15.5717C104.948 15.5717 105.468 15.4816 105.933 15.3012C106.413 15.1045 106.821 14.834 107.157 14.4898C107.493 14.1291 107.758 13.7029 107.949 13.2111C108.142 12.7192 108.238 12.1618 108.238 11.5389C108.238 10.9159 108.134 10.3586 107.925 9.86677C107.734 9.35857 107.461 8.93235 107.109 8.5881C106.757 8.22742 106.349 7.95698 105.884 7.77668C105.42 7.57995 104.915 7.48156 104.371 7.48156C103.827 7.48156 103.315 7.57995 102.835 7.77668C102.371 7.95698 101.962 8.22742 101.61 8.5881C101.273 8.93235 101.01 9.35857 100.817 9.86677C100.626 10.3586 100.529 10.9159 100.529 11.5389Z" fill="#3981F1"/>
<path d="M112.744 5.17008H115.481V6.57172C116.042 6.03074 116.642 5.61271 117.282 5.31762C117.923 5.02254 118.643 4.875 119.444 4.875C120.34 4.875 121.165 5.04713 121.918 5.39139C122.686 5.71926 123.342 6.18647 123.886 6.79303C124.43 7.38319 124.855 8.08815 125.159 8.90775C125.464 9.71107 125.615 10.5881 125.615 11.5389C125.615 12.5225 125.448 13.4242 125.111 14.2439C124.791 15.0471 124.351 15.7438 123.79 16.334C123.23 16.9078 122.557 17.3586 121.773 17.6865C121.005 18.0143 120.18 18.1783 119.3 18.1783C118.515 18.1783 117.811 18.0553 117.186 17.8094C116.562 17.5635 115.994 17.2193 115.481 16.7767V22.875H112.744V5.17008ZM118.892 15.5717C119.436 15.5717 119.94 15.4816 120.404 15.3012C120.884 15.1209 121.301 14.8586 121.653 14.5144C122.005 14.1537 122.277 13.7275 122.47 13.2356C122.677 12.7274 122.782 12.1537 122.782 11.5144C122.782 10.9242 122.694 10.3832 122.518 9.89138C122.342 9.38318 122.085 8.95695 121.749 8.6127C121.429 8.25202 121.045 7.97333 120.597 7.77668C120.148 7.57995 119.652 7.48156 119.107 7.48156C118.275 7.48156 117.539 7.68645 116.898 8.09633C116.274 8.50613 115.802 8.99797 115.481 9.57172V13.457C115.802 14.1455 116.258 14.6701 116.85 15.0308C117.443 15.3914 118.123 15.5717 118.892 15.5717Z" fill="#3981F1"/>
<path d="M126.974 11.5389C126.974 10.5717 127.134 9.68648 127.454 8.88323C127.774 8.06355 128.23 7.3586 128.823 6.76844C129.415 6.17827 130.12 5.71926 130.936 5.39139C131.752 5.04713 132.657 4.875 133.65 4.875C134.626 4.875 135.523 5.04713 136.339 5.39139C137.171 5.71926 137.884 6.17827 138.476 6.76844C139.069 7.3586 139.525 8.06355 139.845 8.88323C140.181 9.68648 140.349 10.5717 140.349 11.5389C140.349 12.5062 140.181 13.3996 139.845 14.2192C139.525 15.0226 139.069 15.7192 138.476 16.3094C137.884 16.8996 137.171 17.3586 136.339 17.6865C135.523 18.0143 134.626 18.1783 133.65 18.1783C132.673 18.1783 131.776 18.0143 130.96 17.6865C130.144 17.3586 129.439 16.8996 128.847 16.3094C128.254 15.7192 127.79 15.0226 127.454 14.2192C127.134 13.3996 126.974 12.5062 126.974 11.5389ZM129.807 11.5389C129.807 12.1127 129.895 12.6455 130.072 13.1373C130.264 13.6291 130.528 14.0553 130.864 14.416C131.2 14.7767 131.6 15.0635 132.065 15.2767C132.545 15.4733 133.073 15.5717 133.65 15.5717C134.226 15.5717 134.746 15.4816 135.21 15.3012C135.691 15.1045 136.099 14.834 136.435 14.4898C136.771 14.1291 137.035 13.7029 137.228 13.2111C137.42 12.7192 137.516 12.1618 137.516 11.5389C137.516 10.9159 137.412 10.3586 137.204 9.86677C137.011 9.35857 136.739 8.93235 136.387 8.5881C136.035 8.22742 135.627 7.95698 135.162 7.77668C134.698 7.57995 134.194 7.48156 133.65 7.48156C133.105 7.48156 132.593 7.57995 132.113 7.77668C131.648 7.95698 131.24 8.22742 130.888 8.5881C130.552 8.93235 130.288 9.35857 130.096 9.86677C129.903 10.3586 129.807 10.9159 129.807 11.5389Z" fill="#3981F1"/>
<path d="M142.05 5.1701H147.381C149.126 5.1701 150.439 5.42421 151.319 5.93241C152.2 6.4406 152.64 7.31765 152.64 8.56353C152.64 9.1537 152.512 9.65373 152.256 10.0635C152 10.4734 151.663 10.8423 151.247 11.1701C151.84 11.3997 152.28 11.7849 152.568 12.3258C152.856 12.8505 153 13.457 153 14.1455C153 15.4242 152.56 16.3832 151.679 17.0225C150.799 17.6455 149.558 17.957 147.957 17.957H142.05V5.1701ZM144.788 12.6701V15.4242H147.693C148.509 15.4242 149.126 15.3176 149.542 15.1045C149.958 14.8914 150.167 14.5472 150.167 14.0718C150.167 13.5635 149.966 13.2029 149.566 12.9898C149.182 12.7766 148.581 12.6701 147.765 12.6701H144.788ZM144.788 7.7029V10.2357H148.005C148.565 10.2357 149.006 10.1292 149.326 9.916C149.647 9.70293 149.806 9.37502 149.806 8.93237C149.806 8.40782 149.591 8.07175 149.158 7.92423C148.742 7.7767 148.125 7.7029 147.309 7.7029H144.788Z" fill="#3981F1"/>
</g>
<defs>
<clipPath id="clip0_2239_6492">
<rect width="153" height="24" fill="white"/>
</clipPath>
</defs>
</svg>
