<svg width="44" height="33" viewBox="0 0 44 33" fill="none" xmlns="http://www.w3.org/2000/svg">
<path d="M34.2854 9.08684e-08C36.8046 -0.000346673 39.223 0.991788 41.0192 2.76247C42.8154 4.53316 43.8454 6.94053 43.8871 9.4655C44.134 11.8442 44.0984 15.3532 42.4935 19.404C40.853 23.5455 37.6542 28.061 31.8163 32.45C31.5281 32.6667 31.2002 32.8243 30.8512 32.914C30.5022 33.0036 30.139 33.0234 29.7824 32.9724C29.0621 32.8692 28.4122 32.4835 27.9756 31.9C27.5391 31.3165 27.3516 30.5831 27.4545 29.8611C27.5574 29.1391 27.9422 28.4876 28.5243 28.05C32.8149 24.8242 35.273 21.6892 36.6803 18.9475C35.3609 19.2872 33.9844 19.3415 32.6424 19.1069C31.3004 18.8723 30.0236 18.3541 28.8967 17.5868C27.7698 16.8194 26.8187 15.8205 26.1066 14.6564C25.3945 13.4923 24.9377 12.1896 24.7664 10.8349C24.5952 9.48013 24.7135 8.10438 25.1135 6.79901C25.5134 5.49363 26.1859 4.28852 27.0863 3.26371C27.9866 2.23891 29.0942 1.41788 30.3354 0.855171C31.5766 0.29246 32.9231 0.000947696 34.2854 9.08684e-08ZM9.59511 9.08684e-08C12.1143 -0.000346673 14.5328 0.991788 16.3289 2.76247C18.1251 4.53316 19.1551 6.94053 19.1969 9.4655C19.4438 11.8442 19.4081 15.3532 17.8032 19.404C16.1655 23.5455 12.964 28.061 7.12608 32.45C6.83787 32.6667 6.5099 32.8243 6.16091 32.914C5.81192 33.0036 5.44873 33.0234 5.09209 32.9724C4.37182 32.8692 3.72192 32.4835 3.28537 31.9C2.84882 31.3165 2.66138 30.5831 2.76427 29.8611C2.86717 29.1391 3.25198 28.4876 3.83404 28.05C8.12466 24.8242 10.5827 21.6892 11.9901 18.9475C10.6706 19.2872 9.29416 19.3415 7.95215 19.1069C6.61014 18.8723 5.33329 18.3541 4.20643 17.5868C3.07956 16.8194 2.12848 15.8205 1.41637 14.6564C0.704248 13.4923 0.247397 12.1896 0.0761598 10.8349C-0.0950775 9.48013 0.0232191 8.10438 0.423193 6.79901C0.823167 5.49363 1.49566 4.28852 2.396 3.26371C3.29634 2.23891 4.40391 1.41788 5.64514 0.855171C6.88637 0.29246 8.23284 0.000947696 9.59511 9.08684e-08Z" fill="#EF4665"/>
</svg>
