<svg width="39" height="20" viewBox="0 0 39 20" fill="none" xmlns="http://www.w3.org/2000/svg">
<path d="M4.9753 0.28367C5.02878 0.197358 5.10539 0.125742 5.19749 0.0759681C5.28959 0.0261937 5.39396 0 5.50018 0C5.60641 0 5.71077 0.0261937 5.80287 0.0759681C5.89497 0.125742 5.97159 0.197358 6.02507 0.28367L7.38345 2.47666L10.0215 3.01417C10.1253 3.03537 10.2213 3.08179 10.3001 3.14879C10.3788 3.21579 10.4375 3.30102 10.4703 3.39601C10.5031 3.49099 10.5088 3.5924 10.487 3.69013C10.4651 3.78785 10.4164 3.87848 10.3457 3.95298L8.54744 5.84567L8.8196 8.37095C8.83034 8.47039 8.81315 8.57073 8.76975 8.66197C8.72635 8.75321 8.65827 8.83214 8.57229 8.89089C8.48631 8.94963 8.38544 8.98614 8.27977 8.99676C8.17409 9.00739 8.0673 8.99175 7.97006 8.95142L5.50018 7.9276L3.0303 8.95142C2.93306 8.99175 2.82627 9.00739 2.72059 8.99676C2.61492 8.98614 2.51406 8.94963 2.42808 8.89089C2.3421 8.83214 2.27401 8.75321 2.23061 8.66197C2.18721 8.57073 2.17002 8.47039 2.18076 8.37095L2.45292 5.84567L0.654703 3.95343C0.583857 3.87894 0.535027 3.78828 0.513088 3.69049C0.491149 3.59271 0.496868 3.49122 0.529675 3.39616C0.562482 3.3011 0.621229 3.2158 0.70005 3.14877C0.778872 3.08174 0.875011 3.03533 0.978869 3.01417L3.61691 2.47666L4.9753 0.28367Z" fill="#0060AA"/>
<path d="M18.9753 0.28367C19.0288 0.197358 19.1054 0.125742 19.1975 0.0759681C19.2896 0.0261937 19.394 0 19.5002 0C19.6064 0 19.7108 0.0261937 19.8029 0.0759681C19.895 0.125742 19.9716 0.197358 20.0251 0.28367L21.3835 2.47666L24.0215 3.01417C24.1253 3.03537 24.2213 3.08179 24.3001 3.14879C24.3788 3.21579 24.4375 3.30102 24.4703 3.39601C24.5031 3.49099 24.5088 3.5924 24.487 3.69013C24.4651 3.78785 24.4164 3.87848 24.3457 3.95298L22.5474 5.84567L22.8196 8.37095C22.8303 8.47039 22.8132 8.57073 22.7698 8.66197C22.7264 8.75321 22.6583 8.83214 22.5723 8.89089C22.4863 8.94963 22.3854 8.98614 22.2798 8.99676C22.1741 9.00739 22.0673 8.99175 21.9701 8.95142L19.5002 7.9276L17.0303 8.95142C16.9331 8.99175 16.8263 9.00739 16.7206 8.99676C16.6149 8.98614 16.5141 8.94963 16.4281 8.89089C16.3421 8.83214 16.274 8.75321 16.2306 8.66197C16.1872 8.57073 16.17 8.47039 16.1808 8.37095L16.4529 5.84567L14.6547 3.95343C14.5839 3.87894 14.535 3.78828 14.5131 3.69049C14.4911 3.59271 14.4969 3.49122 14.5297 3.39616C14.5625 3.3011 14.6212 3.2158 14.7001 3.14877C14.7789 3.08174 14.875 3.03533 14.9789 3.01417L17.6169 2.47666L18.9753 0.28367Z" fill="#0060AA"/>
<path d="M32.9753 0.28367C33.0288 0.197358 33.1054 0.125742 33.1975 0.0759681C33.2896 0.0261937 33.394 0 33.5002 0C33.6064 0 33.7108 0.0261937 33.8029 0.0759681C33.895 0.125742 33.9716 0.197358 34.0251 0.28367L35.3835 2.47666L38.0215 3.01417C38.1253 3.03537 38.2213 3.08179 38.3001 3.14879C38.3788 3.21579 38.4375 3.30102 38.4703 3.39601C38.5031 3.49099 38.5088 3.5924 38.487 3.69013C38.4651 3.78785 38.4164 3.87848 38.3457 3.95298L36.5474 5.84567L36.8196 8.37095C36.8303 8.47039 36.8132 8.57073 36.7698 8.66197C36.7264 8.75321 36.6583 8.83214 36.5723 8.89089C36.4863 8.94963 36.3854 8.98614 36.2798 8.99676C36.1741 9.00739 36.0673 8.99175 35.9701 8.95142L33.5002 7.9276L31.0303 8.95142C30.9331 8.99175 30.8263 9.00739 30.7206 8.99676C30.6149 8.98614 30.5141 8.94963 30.4281 8.89089C30.3421 8.83214 30.274 8.75321 30.2306 8.66197C30.1872 8.57073 30.17 8.47039 30.1808 8.37095L30.4529 5.84567L28.6547 3.95343C28.5839 3.87894 28.535 3.78828 28.5131 3.69049C28.4911 3.59271 28.4969 3.49122 28.5297 3.39616C28.5625 3.3011 28.6212 3.2158 28.7001 3.14877C28.7789 3.08174 28.875 3.03533 28.9789 3.01417L31.6169 2.47666L32.9753 0.28367Z" fill="#0060AA"/>
<path d="M11.9753 11.2837C12.0288 11.1974 12.1054 11.1257 12.1975 11.076C12.2896 11.0262 12.394 11 12.5002 11C12.6064 11 12.7108 11.0262 12.8029 11.076C12.895 11.1257 12.9716 11.1974 13.0251 11.2837L14.3835 13.4767L17.0215 14.0142C17.1253 14.0354 17.2213 14.0818 17.3001 14.1488C17.3788 14.2158 17.4375 14.301 17.4703 14.396C17.5031 14.491 17.5088 14.5924 17.487 14.6901C17.4651 14.7879 17.4164 14.8785 17.3457 14.953L15.5474 16.8457L15.8196 19.371C15.8303 19.4704 15.8132 19.5707 15.7698 19.662C15.7264 19.7532 15.6583 19.8321 15.5723 19.8909C15.4863 19.9496 15.3854 19.9861 15.2798 19.9968C15.1741 20.0074 15.0673 19.9918 14.9701 19.9514L12.5002 18.9276L10.0303 19.9514C9.93306 19.9918 9.82627 20.0074 9.72059 19.9968C9.61492 19.9861 9.51406 19.9496 9.42808 19.8909C9.3421 19.8321 9.27401 19.7532 9.23061 19.662C9.18721 19.5707 9.17002 19.4704 9.18076 19.371L9.45292 16.8457L7.6547 14.9534C7.58386 14.8789 7.53503 14.7883 7.51309 14.6905C7.49115 14.5927 7.49687 14.4912 7.52967 14.3962C7.56248 14.3011 7.62123 14.2158 7.70005 14.1488C7.77887 14.0817 7.87501 14.0353 7.97887 14.0142L10.6169 13.4767L11.9753 11.2837Z" fill="#0060AA"/>
<path d="M25.9753 11.2837C26.0288 11.1974 26.1054 11.1257 26.1975 11.076C26.2896 11.0262 26.394 11 26.5002 11C26.6064 11 26.7108 11.0262 26.8029 11.076C26.895 11.1257 26.9716 11.1974 27.0251 11.2837L28.3835 13.4767L31.0215 14.0142C31.1253 14.0354 31.2213 14.0818 31.3001 14.1488C31.3788 14.2158 31.4375 14.301 31.4703 14.396C31.5031 14.491 31.5088 14.5924 31.487 14.6901C31.4651 14.7879 31.4164 14.8785 31.3457 14.953L29.5474 16.8457L29.8196 19.371C29.8303 19.4704 29.8132 19.5707 29.7698 19.662C29.7264 19.7532 29.6583 19.8321 29.5723 19.8909C29.4863 19.9496 29.3854 19.9861 29.2798 19.9968C29.1741 20.0074 29.0673 19.9918 28.9701 19.9514L26.5002 18.9276L24.0303 19.9514C23.9331 19.9918 23.8263 20.0074 23.7206 19.9968C23.6149 19.9861 23.5141 19.9496 23.4281 19.8909C23.3421 19.8321 23.274 19.7532 23.2306 19.662C23.1872 19.5707 23.17 19.4704 23.1808 19.371L23.4529 16.8457L21.6547 14.9534C21.5839 14.8789 21.535 14.7883 21.5131 14.6905C21.4911 14.5927 21.4969 14.4912 21.5297 14.3962C21.5625 14.3011 21.6212 14.2158 21.7001 14.1488C21.7789 14.0817 21.875 14.0353 21.9789 14.0142L24.6169 13.4767L25.9753 11.2837Z" fill="#0060AA"/>
</svg>
