<svg width="28" height="20" viewBox="0 0 28 20" fill="none" xmlns="http://www.w3.org/2000/svg">
<path d="M6.4753 0.28367C6.52878 0.197358 6.60539 0.125742 6.69749 0.0759681C6.78959 0.0261937 6.89396 0 7.00018 0C7.10641 0 7.21077 0.0261937 7.30287 0.0759681C7.39497 0.125742 7.47159 0.197358 7.52507 0.28367L8.88345 2.47666L11.5215 3.01417C11.6253 3.03537 11.7213 3.08179 11.8001 3.14879C11.8788 3.21579 11.9375 3.30102 11.9703 3.39601C12.0031 3.49099 12.0088 3.5924 11.987 3.69013C11.9651 3.78785 11.9164 3.87848 11.8457 3.95298L10.0474 5.84567L10.3196 8.37095C10.3303 8.47039 10.3132 8.57073 10.2698 8.66197C10.2264 8.75321 10.1583 8.83214 10.0723 8.89089C9.98631 8.94963 9.88544 8.98614 9.77977 8.99676C9.67409 9.00739 9.5673 8.99175 9.47006 8.95142L7.00018 7.9276L4.5303 8.95142C4.43306 8.99175 4.32627 9.00739 4.22059 8.99676C4.11492 8.98614 4.01406 8.94963 3.92808 8.89089C3.8421 8.83214 3.77401 8.75321 3.73061 8.66197C3.68721 8.57073 3.67002 8.47039 3.68076 8.37095L3.95292 5.84567L2.1547 3.95343C2.08386 3.87894 2.03503 3.78828 2.01309 3.69049C1.99115 3.59271 1.99687 3.49122 2.02967 3.39616C2.06248 3.3011 2.12123 3.2158 2.20005 3.14877C2.27887 3.08174 2.37501 3.03533 2.47887 3.01417L5.11691 2.47666L6.4753 0.28367Z" fill="#0060AA"/>
<path d="M20.4753 0.28367C20.5288 0.197358 20.6054 0.125742 20.6975 0.0759681C20.7896 0.0261937 20.894 0 21.0002 0C21.1064 0 21.2108 0.0261937 21.3029 0.0759681C21.395 0.125742 21.4716 0.197358 21.5251 0.28367L22.8835 2.47666L25.5215 3.01417C25.6253 3.03537 25.7213 3.08179 25.8001 3.14879C25.8788 3.21579 25.9375 3.30102 25.9703 3.39601C26.0031 3.49099 26.0088 3.5924 25.987 3.69013C25.9651 3.78785 25.9164 3.87848 25.8457 3.95298L24.0474 5.84567L24.3196 8.37095C24.3303 8.47039 24.3132 8.57073 24.2698 8.66197C24.2264 8.75321 24.1583 8.83214 24.0723 8.89089C23.9863 8.94963 23.8854 8.98614 23.7798 8.99676C23.6741 9.00739 23.5673 8.99175 23.4701 8.95142L21.0002 7.9276L18.5303 8.95142C18.4331 8.99175 18.3263 9.00739 18.2206 8.99676C18.1149 8.98614 18.0141 8.94963 17.9281 8.89089C17.8421 8.83214 17.774 8.75321 17.7306 8.66197C17.6872 8.57073 17.67 8.47039 17.6808 8.37095L17.9529 5.84567L16.1547 3.95343C16.0839 3.87894 16.035 3.78828 16.0131 3.69049C15.9911 3.59271 15.9969 3.49122 16.0297 3.39616C16.0625 3.3011 16.1212 3.2158 16.2001 3.14877C16.2789 3.08174 16.375 3.03533 16.4789 3.01417L19.1169 2.47666L20.4753 0.28367Z" fill="#0060AA"/>
<path d="M6.4753 11.2837C6.52878 11.1974 6.60539 11.1257 6.69749 11.076C6.78959 11.0262 6.89396 11 7.00018 11C7.10641 11 7.21077 11.0262 7.30287 11.076C7.39497 11.1257 7.47159 11.1974 7.52507 11.2837L8.88345 13.4767L11.5215 14.0142C11.6253 14.0354 11.7213 14.0818 11.8001 14.1488C11.8788 14.2158 11.9375 14.301 11.9703 14.396C12.0031 14.491 12.0088 14.5924 11.987 14.6901C11.9651 14.7879 11.9164 14.8785 11.8457 14.953L10.0474 16.8457L10.3196 19.371C10.3303 19.4704 10.3132 19.5707 10.2698 19.662C10.2264 19.7532 10.1583 19.8321 10.0723 19.8909C9.98631 19.9496 9.88544 19.9861 9.77977 19.9968C9.67409 20.0074 9.5673 19.9918 9.47006 19.9514L7.00018 18.9276L4.5303 19.9514C4.43306 19.9918 4.32627 20.0074 4.22059 19.9968C4.11492 19.9861 4.01406 19.9496 3.92808 19.8909C3.8421 19.8321 3.77401 19.7532 3.73061 19.662C3.68721 19.5707 3.67002 19.4704 3.68076 19.371L3.95292 16.8457L2.1547 14.9534C2.08386 14.8789 2.03503 14.7883 2.01309 14.6905C1.99115 14.5927 1.99687 14.4912 2.02967 14.3962C2.06248 14.3011 2.12123 14.2158 2.20005 14.1488C2.27887 14.0817 2.37501 14.0353 2.47887 14.0142L5.11691 13.4767L6.4753 11.2837Z" fill="#0060AA"/>
<path d="M20.4753 11.2837C20.5288 11.1974 20.6054 11.1257 20.6975 11.076C20.7896 11.0262 20.894 11 21.0002 11C21.1064 11 21.2108 11.0262 21.3029 11.076C21.395 11.1257 21.4716 11.1974 21.5251 11.2837L22.8835 13.4767L25.5215 14.0142C25.6253 14.0354 25.7213 14.0818 25.8001 14.1488C25.8788 14.2158 25.9375 14.301 25.9703 14.396C26.0031 14.491 26.0088 14.5924 25.987 14.6901C25.9651 14.7879 25.9164 14.8785 25.8457 14.953L24.0474 16.8457L24.3196 19.371C24.3303 19.4704 24.3132 19.5707 24.2698 19.662C24.2264 19.7532 24.1583 19.8321 24.0723 19.8909C23.9863 19.9496 23.8854 19.9861 23.7798 19.9968C23.6741 20.0074 23.5673 19.9918 23.4701 19.9514L21.0002 18.9276L18.5303 19.9514C18.4331 19.9918 18.3263 20.0074 18.2206 19.9968C18.1149 19.9861 18.0141 19.9496 17.9281 19.8909C17.8421 19.8321 17.774 19.7532 17.7306 19.662C17.6872 19.5707 17.67 19.4704 17.6808 19.371L17.9529 16.8457L16.1547 14.9534C16.0839 14.8789 16.035 14.7883 16.0131 14.6905C15.9911 14.5927 15.9969 14.4912 16.0297 14.3962C16.0625 14.3011 16.1212 14.2158 16.2001 14.1488C16.2789 14.0817 16.375 14.0353 16.4789 14.0142L19.1169 13.4767L20.4753 11.2837Z" fill="#0060AA"/>
</svg>
