<svg width="28" height="20" viewBox="0 0 28 20" fill="none" xmlns="http://www.w3.org/2000/svg">
<path d="M6.4753 0.28367C6.52878 0.197358 6.60539 0.125742 6.69749 0.0759681C6.78959 0.0261937 6.89396 0 7.00018 0C7.10641 0 7.21077 0.0261937 7.30287 0.0759681C7.39497 0.125742 7.47159 0.197358 7.52507 0.28367L8.88345 2.47666L11.5215 3.01417C11.6253 3.03537 11.7213 3.08179 11.8001 3.14879C11.8788 3.21579 11.9375 3.30102 11.9703 3.39601C12.0031 3.49099 12.0088 3.5924 11.987 3.69013C11.9651 3.78785 11.9164 3.87848 11.8457 3.95298L10.0474 5.84567L10.3196 8.37095C10.3303 8.47039 10.3132 8.57073 10.2698 8.66197C10.2264 8.75321 10.1583 8.83214 10.0723 8.89089C9.98631 8.94963 9.88544 8.98614 9.77977 8.99676C9.67409 9.00739 9.5673 8.99175 9.47006 8.95142L7.00018 7.9276L4.5303 8.95142C4.43306 8.99175 4.32627 9.00739 4.22059 8.99676C4.11492 8.98614 4.01406 8.94963 3.92808 8.89089C3.8421 8.83214 3.77401 8.75321 3.73061 8.66197C3.68721 8.57073 3.67002 8.47039 3.68076 8.37095L3.95292 5.84567L2.1547 3.95343C2.08386 3.87894 2.03503 3.78828 2.01309 3.69049C1.99115 3.59271 1.99687 3.49122 2.02967 3.39616C2.06248 3.3011 2.12123 3.2158 2.20005 3.14877C2.27887 3.08174 2.37501 3.03533 2.47887 3.01417L5.11691 2.47666L6.4753 0.28367Z" />
<path d="M20.4753 0.28367C20.5288 0.197358 20.6054 0.125742 20.6975 0.0759681C20.7896 0.0261937 20.894 0 21.0002 0C21.1064 0 21.2108 0.0261937 21.3029 0.0759681C21.395 0.125742 21.4716 0.197358 21.5251 0.28367L22.8835 2.47666L25.5215 3.01417C25.6253 3.03537 25.7213 3.08179 25.8001 3.14879C25.8788 3.21579 25.9375 3.30102 25.9703 3.39601C26.0031 3.49099 26.0088 3.5924 25.987 3.69013C25.9651 3.78785 25.9164 3.87848 25.8457 3.95298L24.0474 5.84567L24.3196 8.37095C24.3303 8.47039 24.3132 8.57073 24.2698 8.66197C24.2264 8.75321 24.1583 8.83214 24.0723 8.89089C23.9863 8.94963 23.8854 8.98614 23.7798 8.99676C23.6741 9.00739 23.5673 8.99175 23.4701 8.95142L21.0002 7.9276L18.5303 8.95142C18.4331 8.99175 18.3263 9.00739 18.2206 8.99676C18.1149 8.98614 18.0141 8.94963 17.9281 8.89089C17.8421 8.83214 17.774 8.75321 17.7306 8.66197C17.6872 8.57073 17.67 8.47039 17.6808 8.37095L17.9529 5.84567L16.1547 3.95343C16.0839 3.87894 16.035 3.78828 16.0131 3.69049C15.9911 3.59271 15.9969 3.49122 16.0297 3.39616C16.0625 3.3011 16.1212 3.2158 16.2001 3.14877C16.2789 3.08174 16.375 3.03533 16.4789 3.01417L19.1169 2.47666L20.4753 0.28367Z" />
<path d="M13.4753 11.2837C13.5288 11.1974 13.6054 11.1257 13.6975 11.076C13.7896 11.0262 13.894 11 14.0002 11C14.1064 11 14.2108 11.0262 14.3029 11.076C14.395 11.1257 14.4716 11.1974 14.5251 11.2837L15.8835 13.4767L18.5215 14.0142C18.6253 14.0354 18.7213 14.0818 18.8001 14.1488C18.8788 14.2158 18.9375 14.301 18.9703 14.396C19.0031 14.491 19.0088 14.5924 18.987 14.6901C18.9651 14.7879 18.9164 14.8785 18.8457 14.953L17.0474 16.8457L17.3196 19.371C17.3303 19.4704 17.3132 19.5707 17.2698 19.662C17.2264 19.7532 17.1583 19.8321 17.0723 19.8909C16.9863 19.9496 16.8854 19.9861 16.7798 19.9968C16.6741 20.0074 16.5673 19.9918 16.4701 19.9514L14.0002 18.9276L11.5303 19.9514C11.4331 19.9918 11.3263 20.0074 11.2206 19.9968C11.1149 19.9861 11.0141 19.9496 10.9281 19.8909C10.8421 19.8321 10.774 19.7532 10.7306 19.662C10.6872 19.5707 10.67 19.4704 10.6808 19.371L10.9529 16.8457L9.1547 14.9534C9.08386 14.8789 9.03503 14.7883 9.01309 14.6905C8.99115 14.5927 8.99687 14.4912 9.02967 14.3962C9.06248 14.3011 9.12123 14.2158 9.20005 14.1488C9.27887 14.0817 9.37501 14.0353 9.47887 14.0142L12.1169 13.4767L13.4753 11.2837Z" />
</svg>
