<svg width="16" height="16" viewBox="0 0 16 16" fill="none" xmlns="http://www.w3.org/2000/svg">
<path fill-rule="evenodd" clip-rule="evenodd" d="M7.11718 1.60502e-08C5.98228 9.67028e-05 4.86385 0.271595 3.85522 0.791843C2.84658 1.31209 1.97698 2.066 1.31897 2.99068C0.660964 3.91536 0.233624 4.98399 0.072607 6.10741C-0.0884098 7.23083 0.0215652 8.37647 0.393357 9.44874C0.765149 10.521 1.38798 11.4888 2.20988 12.2715C3.03178 13.0541 4.02891 13.6288 5.1181 13.9476C6.20729 14.2665 7.35694 14.3203 8.47113 14.1045C9.58533 13.8887 10.6318 13.4096 11.5231 12.7071L14.581 15.765C14.7389 15.9175 14.9504 16.0019 15.17 16C15.3895 15.9981 15.5995 15.91 15.7548 15.7548C15.91 15.5995 15.9981 15.3895 16 15.17C16.0019 14.9504 15.9175 14.7389 15.765 14.581L12.7071 11.5231C13.5344 10.4736 14.0494 9.21247 14.1934 7.88392C14.3374 6.55538 14.1044 5.21314 13.5211 4.01081C12.9379 2.80849 12.0279 1.79466 10.8954 1.08535C9.76286 0.376043 8.4535 -8.97127e-05 7.11718 1.60502e-08ZM1.67463 7.11717C1.67463 5.67372 2.24804 4.28939 3.26872 3.26871C4.28939 2.24804 5.67373 1.67463 7.11718 1.67463C8.56063 1.67463 9.94496 2.24804 10.9656 3.26871C11.9863 4.28939 12.5597 5.67372 12.5597 7.11717C12.5597 8.56063 11.9863 9.94496 10.9656 10.9656C9.94496 11.9863 8.56063 12.5597 7.11718 12.5597C5.67373 12.5597 4.28939 11.9863 3.26872 10.9656C2.24804 9.94496 1.67463 8.56063 1.67463 7.11717Z" fill="#0060AA"/>
</svg>
