<svg width="92" height="95" viewBox="0 0 92 95" fill="none" xmlns="http://www.w3.org/2000/svg">
<g opacity="0.1">
<path d="M14.0425 34.469C6.33343 34.469 0 40.7753 0 48.6592C0 56.5431 6.25025 62.9344 13.9594 62.9344H31.358V80.7248C31.358 88.6079 37.6083 95 45.3174 95C53.0273 95 59.1429 88.6087 59.1429 80.7248V63.0133L32.0357 34.469H14.0425Z" fill="#0060AA"/>
<path d="M32.8571 14.2878C32.8571 6.39778 38.9849 0 46.693 0C54.3995 0 60.6492 6.39694 60.6492 14.2878V32.094H78.0439C85.7504 32.094 92 38.4918 92 46.3819C92 54.2727 85.7512 60.531 78.0439 60.531H60.7793L32.8571 31.9469V14.2878Z" fill="#EF4665"/>
</g>
</svg>
