<svg width="20" height="18" viewBox="0 0 20 18" fill="none" xmlns="http://www.w3.org/2000/svg">
<path fill-rule="evenodd" clip-rule="evenodd" d="M13.0195 0.000249532C14.0821 0.000249532 15.1012 0.421685 15.8526 1.17185C16.604 1.92201 17.0261 2.93944 17.0261 4.00033V5.12635C18.0304 5.39425 18.8912 6.0412 19.4269 6.93069C19.9625 7.82017 20.1311 8.88263 19.8971 9.89385C19.663 10.9051 19.0446 11.786 18.1724 12.3507C17.3002 12.9154 16.2423 13.1197 15.2221 12.9205C15.0932 12.8944 14.9604 12.8938 14.8313 12.919C14.7022 12.9441 14.5793 12.9943 14.4696 13.0668C14.3599 13.1394 14.2657 13.2327 14.1921 13.3416C14.1186 13.4505 14.0673 13.5728 14.0411 13.7015C14.015 13.8302 14.0144 13.9628 14.0396 14.0917C14.0647 14.2206 14.1151 14.3433 14.1877 14.4528C14.2604 14.5623 14.3539 14.6564 14.463 14.7298C14.572 14.8032 14.6945 14.8544 14.8234 14.8805C15.5128 15.0203 16.2213 15.0385 16.9169 14.9345C16.7452 15.6465 16.3812 16.2978 15.8644 16.8175C15.3477 17.3372 14.698 17.7054 13.9861 17.8819C13.2743 18.0585 12.5275 18.0367 11.8272 17.8189C11.1269 17.601 10.4999 17.1956 10.0145 16.6466C9.529 17.1953 8.90206 17.6005 8.2019 17.8182C7.50174 18.0358 6.75519 18.0576 6.04352 17.881C5.33184 17.7045 4.68231 17.3364 4.16562 16.8169C3.64892 16.2974 3.28487 15.6463 3.11309 14.9345C3.80842 15.038 4.5165 15.0197 5.20555 14.8805C5.33445 14.8544 5.45694 14.8032 5.56602 14.7298C5.6751 14.6564 5.76863 14.5623 5.84128 14.4528C5.91392 14.3433 5.96425 14.2206 5.9894 14.0917C6.01454 13.9628 6.01401 13.8302 5.98784 13.7015C5.96166 13.5728 5.91035 13.4505 5.83684 13.3416C5.76332 13.2327 5.66904 13.1394 5.55938 13.0668C5.44972 12.9943 5.32682 12.9441 5.19771 12.919C5.0686 12.8938 4.9358 12.8944 4.80689 12.9205C4.20982 13.0416 3.593 13.0259 3.00291 12.8745C2.14324 12.6521 1.38191 12.1509 0.838402 11.4497C0.294898 10.7486 0 9.88705 0 9.00043C0 8.11381 0.294898 7.2523 0.838402 6.55112C1.38191 5.84994 2.14324 5.34879 3.00291 5.12635V4.00033C3.00286 3.18781 3.25065 2.39453 3.71332 1.72608C4.17598 1.05762 4.83158 0.545686 5.59286 0.258393C6.35414 -0.0289012 7.185 -0.0779265 7.97487 0.117841C8.76475 0.313608 9.47618 0.744885 10.0145 1.35428C10.3901 0.928185 10.8524 0.586999 11.3706 0.353504C11.8888 0.120008 12.4509 -0.000423895 13.0195 0.000249532ZM10.0145 3.00031C9.76915 3.00034 9.53236 3.09027 9.34902 3.25303C9.16568 3.41579 9.04855 3.64007 9.01985 3.88333L9.01284 4.00033V8.53542C8.40399 8.18386 7.71286 7.99929 7.00953 8.00041C6.74387 8.00041 6.4891 8.10577 6.30125 8.29331C6.1134 8.48085 6.00787 8.73521 6.00787 9.00043C6.00787 9.26565 6.1134 9.52001 6.30125 9.70755C6.4891 9.89509 6.74387 10.0005 7.00953 10.0005C7.51494 10.0003 8.00173 10.1909 8.37233 10.534C8.74292 10.8771 8.96992 11.3473 9.00783 11.8505L9.01284 12.0005V14.0005C9.01312 14.2554 9.11088 14.5006 9.28614 14.6859C9.4614 14.8713 9.70093 14.9828 9.95579 14.9977C10.2107 15.0127 10.4616 14.9299 10.6574 14.7663C10.8532 14.6027 10.979 14.3706 11.0091 14.1175L11.0161 14.0005V11.9945C11.0177 11.4651 11.2295 10.9579 11.605 10.5841C11.9805 10.2103 12.4892 10.0004 13.0195 10.0005C13.2851 10.0005 13.5399 9.89509 13.7277 9.70755C13.9156 9.52001 14.0211 9.26565 14.0211 9.00043C14.0211 8.73521 13.9156 8.48085 13.7277 8.29331C13.5399 8.10577 13.2851 8.00041 13.0195 8.00041C12.4028 7.99998 11.7944 8.14166 11.2415 8.41442L11.0161 8.53542V4.00033C11.0161 3.73511 10.9106 3.48075 10.7228 3.29321C10.5349 3.10567 10.2801 3.00031 10.0145 3.00031Z" fill="#EF4665"/>
</svg>
