<svg width="16" height="18" viewBox="0 0 16 18" fill="none" xmlns="http://www.w3.org/2000/svg">
<path d="M3.92875 0C3.12833 0 2.36069 0.284464 1.79471 0.790812C1.22873 1.29716 0.910759 1.98392 0.910759 2.7C0.910759 3.41608 1.22873 4.10284 1.79471 4.60919C2.36069 5.11554 3.12833 5.4 3.92875 5.4C4.72918 5.4 5.49682 5.11554 6.0628 4.60919C6.62878 4.10284 6.94675 3.41608 6.94675 2.7C6.94675 1.98392 6.62878 1.29716 6.0628 0.790812C5.49682 0.284464 4.72918 0 3.92875 0ZM11.9767 0C11.1763 0 10.4087 0.284464 9.8427 0.790812C9.27671 1.29716 8.95875 1.98392 8.95875 2.7C8.95875 3.41608 9.27671 4.10284 9.8427 4.60919C10.4087 5.11554 11.1763 5.4 11.9767 5.4C12.7772 5.4 13.5448 5.11554 14.1108 4.60919C14.6768 4.10284 14.9947 3.41608 14.9947 2.7C14.9947 1.98392 14.6768 1.29716 14.1108 0.790812C13.5448 0.284464 12.7772 0 11.9767 0ZM0.00837857 8.2629C-0.0169241 8.0138 0.0160825 7.76271 0.105293 7.52566C0.194503 7.2886 0.337959 7.07079 0.52651 6.8861C0.715061 6.70141 0.944567 6.55391 1.20039 6.45299C1.45621 6.35208 1.73274 6.29997 2.01233 6.3H5.84518C6.12477 6.29997 6.40129 6.35208 6.65712 6.45299C6.91294 6.55391 7.14245 6.70141 7.331 6.8861C7.51955 7.07079 7.66301 7.2886 7.75222 7.52566C7.84143 7.76271 7.87443 8.0138 7.84913 8.2629L6.94273 17.1819C6.91989 17.4055 6.80444 17.6134 6.61906 17.7648C6.43367 17.9161 6.19174 18 5.94075 18H1.91676C1.66561 18 1.42355 17.916 1.23814 17.7644C1.05273 17.6129 0.937386 17.4048 0.914783 17.181L0.00837857 8.2629ZM10.7897 6.3C10.3245 6.30004 9.87379 6.44426 9.51412 6.70811C9.15444 6.97196 8.90807 7.33915 8.8169 7.7472L7.97186 11.5236C7.94268 11.6542 7.94627 11.789 7.98235 11.9182C8.01844 12.0474 8.08612 12.1678 8.18053 12.2708C8.27494 12.3737 8.39371 12.4567 8.52829 12.5136C8.66286 12.5705 8.80988 12.6001 8.95875 12.6V17.1C8.95875 17.3387 9.06473 17.5676 9.2534 17.7364C9.44206 17.9052 9.69794 18 9.96474 18H13.9887C14.2555 18 14.5114 17.9052 14.7001 17.7364C14.8887 17.5676 14.9947 17.3387 14.9947 17.1V12.6C15.1435 12.5999 15.2904 12.5703 15.4249 12.5133C15.5593 12.4563 15.678 12.3734 15.7723 12.2704C15.8666 12.1675 15.9342 12.0471 15.9702 11.9179C16.0062 11.7888 16.0098 11.6541 15.9806 11.5236L15.1376 7.7472C15.0464 7.339 14.7999 6.97169 14.44 6.70783C14.0801 6.44396 13.6291 6.29983 13.1638 6.3H10.7897Z" fill="#EF4665"/>
</svg>
