<svg width="20" height="20" viewBox="0 0 20 20" fill="none" xmlns="http://www.w3.org/2000/svg">
<path fill-rule="evenodd" clip-rule="evenodd" d="M14.2504 0.32115C14.4566 0.115502 14.736 0 15.0272 0C15.3185 0 15.5979 0.115502 15.804 0.32115L18.9069 3.42183L18.9146 3.42842L18.9212 3.43611L19.6908 4.20523C19.8912 4.41232 20.0023 4.68979 20 4.97788C19.9977 5.26598 19.8822 5.54164 19.6785 5.7455C19.4748 5.94937 19.1991 6.06512 18.9108 6.06782C18.6225 6.07053 18.3447 5.95997 18.1372 5.75997L16.5814 7.3136L18.5253 9.25619C18.7256 9.46342 18.8364 9.74096 18.8339 10.0291C18.8314 10.3171 18.7158 10.5927 18.5119 10.7964C18.3081 11.0002 18.0323 11.1157 17.744 11.1182C17.4557 11.1207 17.178 11.01 16.9706 10.8098L16.1933 10.033L9.97333 16.2486C9.66703 16.5548 9.30338 16.7976 8.90314 16.9633C8.50291 17.129 8.07394 17.2143 7.64072 17.2143C7.2075 17.2143 6.77853 17.129 6.3783 16.9633C5.97807 16.7976 5.61441 16.5548 5.30811 16.2486L1.87764 19.6778C1.67147 19.884 1.39179 19.9999 1.10012 20C0.808455 20.0001 0.528692 19.8844 0.322379 19.6784C0.116067 19.4724 0.000103171 19.1929 6.88091e-08 18.9014C-0.000103033 18.6099 0.115662 18.3304 0.321829 18.1242L3.7534 14.6939C3.13502 14.0758 2.78764 13.2375 2.78764 12.3635C2.78764 11.4894 3.13502 10.6511 3.7534 10.033L9.97333 3.81738L9.19598 3.04056C8.99569 2.83333 8.88487 2.55578 8.88737 2.2677C8.88988 1.97961 9.00551 1.70403 9.20937 1.50031C9.41323 1.29659 9.689 1.18104 9.97729 1.17853C10.2656 1.17603 10.5433 1.28678 10.7507 1.48693L12.6946 3.42842L14.2493 1.87478C14.0432 1.66874 13.9274 1.38932 13.9274 1.09797C13.9274 0.806618 14.0432 0.527197 14.2493 0.32115M16.5803 4.20633L15.0267 5.75887L14.2493 4.98205L15.804 3.42842L16.5803 4.20633ZM6.86282 11.5866L6.08546 10.8098L7.64017 9.25619L8.41753 10.033C8.61781 10.2402 8.72863 10.5178 8.72613 10.8059C8.72362 11.094 8.60799 11.3695 8.40413 11.5733C8.20027 11.777 7.9245 11.8925 7.63621 11.895C7.34793 11.8975 7.07019 11.7868 6.86282 11.5866ZM9.19378 9.25619L8.41753 8.47938L9.97333 6.92574L10.7507 7.70256C10.8557 7.80391 10.9395 7.92516 10.9971 8.05921C11.0547 8.19326 11.085 8.33744 11.0863 8.48333C11.0876 8.62922 11.0598 8.7739 11.0045 8.90894C10.9492 9.04397 10.8675 9.16665 10.7643 9.26981C10.6611 9.37298 10.5383 9.45456 10.4032 9.50981C10.2681 9.56505 10.1233 9.59285 9.97729 9.59159C9.8313 9.59032 9.68702 9.56001 9.55287 9.50242C9.41873 9.44484 9.29741 9.36113 9.19598 9.25619" fill="#EF4665"/>
</svg>
