<svg width="20" height="12" viewBox="0 0 20 12" fill="none" xmlns="http://www.w3.org/2000/svg">
<path d="M14.6802 0C15.7155 0 16.5102 0.63225 17.099 1.3125L17.2984 1.55325L17.4809 1.79325C17.5389 1.87125 17.5942 1.94925 17.6475 2.02425C18.3842 3.0795 19.0254 4.45725 19.4495 5.8185C19.8707 7.16925 20.1038 8.58 19.9549 9.68925C19.8052 10.803 19.0891 12 17.4884 12C16.0525 12 14.9207 11.385 14.0015 10.7842L12.9625 10.086C12.0985 9.519 11.1531 9 9.99982 9C8.84658 9 7.90021 9.519 7.03809 10.086L5.99904 10.7835C5.07795 11.385 3.94624 12 2.51124 12C0.90962 12 0.193525 10.803 0.0446891 9.68925C-0.10321 8.57925 0.128936 7.16925 0.550168 5.8185C0.974209 4.45725 1.61542 3.0795 2.35211 2.02425L2.51873 1.7925L2.70126 1.55325L2.90065 1.3125C3.48944 0.63225 4.28416 0 5.31946 0C5.79685 0 6.27144 0.093 6.73761 0.2025L7.2927 0.339C7.38443 0.3615 7.47523 0.38325 7.56603 0.4035C8.37573 0.5895 9.20416 0.75 9.99982 0.75C10.7955 0.75 11.6239 0.5895 12.4336 0.4035L13.262 0.20325C13.7282 0.0929999 14.2028 0 14.6802 0ZM6.72357 3C6.10291 3 5.50768 3.19754 5.06881 3.54917C4.62994 3.9008 4.38338 4.37772 4.38338 4.875C4.38338 5.37228 4.62994 5.84919 5.06881 6.20082C5.50768 6.55245 6.10291 6.75 6.72357 6.75C7.34422 6.75 7.93945 6.55245 8.37832 6.20082C8.81719 5.84919 9.06375 5.37228 9.06375 4.875C9.06375 4.37772 8.81719 3.9008 8.37832 3.54917C7.93945 3.19754 7.34422 3 6.72357 3ZM13.2761 3C13.0278 3 12.7897 3.07902 12.6142 3.21967C12.4386 3.36032 12.34 3.55109 12.34 3.75V4.125H11.872C11.6237 4.125 11.3856 4.20402 11.2101 4.34467C11.0345 4.48532 10.9359 4.67609 10.9359 4.875C10.9359 5.07391 11.0345 5.26468 11.2101 5.40533C11.3856 5.54598 11.6237 5.625 11.872 5.625H12.34V6C12.34 6.19891 12.4386 6.38968 12.6142 6.53033C12.7897 6.67098 13.0278 6.75 13.2761 6.75C13.5243 6.75 13.7624 6.67098 13.938 6.53033C14.1135 6.38968 14.2121 6.19891 14.2121 6V5.625H14.6802C14.9284 5.625 15.1665 5.54598 15.3421 5.40533C15.5176 5.26468 15.6163 5.07391 15.6163 4.875C15.6163 4.67609 15.5176 4.48532 15.3421 4.34467C15.1665 4.20402 14.9284 4.125 14.6802 4.125H14.2121V3.75C14.2121 3.55109 14.1135 3.36032 13.938 3.21967C13.7624 3.07902 13.5243 3 13.2761 3ZM6.72357 4.5C6.8477 4.5 6.96674 4.53951 7.05452 4.60983C7.14229 4.68016 7.1916 4.77554 7.1916 4.875C7.1916 4.97446 7.14229 5.06984 7.05452 5.14016C6.96674 5.21049 6.8477 5.25 6.72357 5.25C6.59943 5.25 6.48039 5.21049 6.39261 5.14016C6.30484 5.06984 6.25553 4.97446 6.25553 4.875C6.25553 4.77554 6.30484 4.68016 6.39261 4.60983C6.48039 4.53951 6.59943 4.5 6.72357 4.5Z" fill="#EF4665"/>
</svg>
