<svg width="18" height="18" viewBox="0 0 18 18" fill="none" xmlns="http://www.w3.org/2000/svg">
<path fill-rule="evenodd" clip-rule="evenodd" d="M4.09047 9.14116e-08C3.83387 -0.000101634 3.58661 0.0847022 3.39775 0.237583C3.20889 0.390463 3.09223 0.600246 3.07094 0.8253L2.63326 5.4531C2.62172 5.57507 2.58204 5.69369 2.51663 5.80171C2.45122 5.90972 2.36147 6.00486 2.25286 6.0813L0.768036 7.1271C0.528554 7.29563 0.335193 7.50939 0.202259 7.75258C0.0693258 7.99576 0.000221988 8.26214 6.10352e-05 8.532V16.2C6.10352e-05 16.6774 0.215537 17.1352 0.599088 17.4728C0.982638 17.8104 1.50284 18 2.04527 18H8.18088C8.72331 18 9.24351 17.8104 9.62706 17.4728C10.0106 17.1352 10.2261 16.6774 10.2261 16.2V8.532C10.2261 8.26221 10.1571 7.99588 10.0244 7.7527C9.8916 7.50952 9.69843 7.29572 9.45914 7.1271L7.9733 6.0813C7.86469 6.00486 7.77493 5.90972 7.70952 5.80171C7.64412 5.69369 7.60443 5.57507 7.59289 5.4531L7.15521 0.8253C7.13392 0.600246 7.01726 0.390463 6.8284 0.237583C6.63954 0.0847022 6.39228 -0.000101634 6.13568 9.14116e-08H4.09047ZM12.7775 5.4C12.3909 5.39983 12.0172 5.52245 11.7251 5.74532C11.4329 5.9682 11.242 6.27636 11.1873 6.6132L10.6699 9.7992C10.5442 10.5734 10.7404 11.3614 11.2226 12.0183C11.7048 12.6752 12.4404 13.1566 13.2939 13.374V16.2H12.7826C12.5114 16.2 12.2513 16.2948 12.0595 16.4636C11.8677 16.6324 11.76 16.8613 11.76 17.1C11.76 17.3387 11.8677 17.5676 12.0595 17.7364C12.2513 17.9052 12.5114 18 12.7826 18H15.8504C16.1216 18 16.3817 17.9052 16.5735 17.7364C16.7653 17.5676 16.873 17.3387 16.873 17.1C16.873 16.8613 16.7653 16.6324 16.5735 16.4636C16.3817 16.2948 16.1216 16.2 15.8504 16.2H15.3391V13.374C16.1925 13.1567 16.9279 12.6753 17.41 12.0187C17.8922 11.362 18.0886 10.5741 17.9631 9.8001L17.4457 6.6141C17.3912 6.2771 17.2004 5.96872 16.9082 5.74566C16.6161 5.52261 16.2423 5.39986 15.8555 5.4H12.7775Z" fill="#EF4665"/>
</svg>
