<svg width="20" height="18" viewBox="0 0 20 18" fill="none" xmlns="http://www.w3.org/2000/svg">
<path d="M8.03471 3.79327L8.21198 6.01244L8.47578 5.84408C8.62025 5.75143 8.7387 5.62593 8.82061 5.47873C8.90252 5.33152 8.94536 5.16716 8.94533 5.00023V1.01424C8.94533 0.74525 9.05651 0.487273 9.25439 0.297065C9.45228 0.106858 9.72067 0 10.0005 0C10.2804 0 10.5488 0.106858 10.7466 0.297065C10.9445 0.487273 11.0557 0.74525 11.0557 1.01424V5.00023C11.0557 5.16716 11.0985 5.33152 11.1804 5.47873C11.2623 5.62593 11.3808 5.75143 11.5253 5.84408L11.7891 6.01244L11.9663 3.79327C12.094 2.19685 14.0049 1.36517 15.3366 2.32566L15.9539 2.7699C17.4989 3.88402 18.5284 5.53553 18.8219 7.37052L19.9615 14.4895C20.3392 16.8496 17.8701 18.6895 15.5856 17.7493L14.4724 17.2898C13.46 16.8726 12.6089 16.1613 12.0384 15.2557C11.4679 14.3501 11.2065 13.2955 11.291 12.2399L11.6033 8.33202L10.3551 7.53077C10.2306 7.45098 10.1121 7.36286 10.0005 7.26706C9.88963 7.36366 9.77109 7.45183 9.64598 7.53077L8.39769 8.33202L8.71003 12.2399C8.79475 13.2957 8.53352 14.3505 7.96297 15.2563C7.39241 16.1621 6.54117 16.8736 5.52864 17.2908L4.41437 17.7493C2.13095 18.6895 -0.339241 16.8496 0.0385155 14.4895L1.17812 7.37052C1.47181 5.53537 2.50174 3.88384 4.04716 2.7699L4.66339 2.32566C5.99609 1.36517 7.90703 2.19685 8.03471 3.79327Z" fill="#EF4665"/>
</svg>
