<svg width="77" height="21" viewBox="0 0 77 21" fill="none" xmlns="http://www.w3.org/2000/svg">
<g clip-path="url(#clip0_4282_1290)">
<path fill-rule="evenodd" clip-rule="evenodd" d="M24.982 15.995C29.2313 15.995 32.6535 12.5229 32.6535 8.27617C32.6535 4.0007 29.2028 0.557373 24.982 0.557373C20.7613 0.557373 17.3105 4.0007 17.3105 8.24748C17.3105 12.5229 20.7328 15.995 24.982 15.995ZM24.982 12.4656C27.292 12.4656 29.1457 10.5717 29.1457 8.27617C29.1457 5.95192 27.2635 4.08679 24.982 4.08679C22.672 4.08679 20.8183 5.98062 20.8183 8.27617C20.8183 10.5717 22.672 12.4656 24.982 12.4656Z" fill="#13A546"/>
<path fill-rule="evenodd" clip-rule="evenodd" d="M28.6895 15.7654L32.1402 19.8113C32.7676 20.5573 33.8798 20.6434 34.6213 20.0122C35.3628 19.3809 35.4483 18.2618 34.8209 17.5157L31.4558 13.5559C30.7143 14.4741 29.7732 15.2202 28.6895 15.7654Z" fill="#13A546"/>
<path d="M47.9969 13.4125C47.9969 13.929 47.8258 14.3594 47.5121 14.675C47.1699 15.0194 46.7706 15.1628 46.2858 15.1628C45.744 15.1628 45.2877 14.962 44.9454 14.5602L41.0384 9.85436L39.3843 11.4039V13.3838C39.3843 13.8716 39.2132 14.2733 38.871 14.6176C38.5288 14.962 38.101 15.1341 37.6447 15.1341C37.1884 15.1341 36.7606 14.962 36.4184 14.6176C36.0762 14.2733 35.9336 13.8429 35.9336 13.3838V3.22595C35.9336 2.73815 36.1047 2.33643 36.4184 1.99209C36.7606 1.64776 37.1884 1.47559 37.6732 1.47559C38.158 1.47559 38.5573 1.64776 38.871 1.99209C39.2132 2.33643 39.3843 2.76684 39.3843 3.22595V7.53011L44.8884 1.90601C45.2021 1.59037 45.5729 1.4469 46.0291 1.4469C46.4854 1.4469 46.8847 1.61907 47.1699 1.9347C47.4836 2.25034 47.6262 2.62337 47.6262 3.08248C47.6262 3.54159 47.4836 3.94331 47.1699 4.23026L43.5766 7.78836L47.6547 12.3508C47.8829 12.5803 47.9969 12.9534 47.9969 13.4125Z" fill="#2C2B67"/>
<path d="M54.4422 13.4125V4.71813H52.0752C51.6474 4.71813 51.2766 4.57466 50.9629 4.28771C50.6777 4.00077 50.5352 3.62774 50.5352 3.19732C50.5352 2.76691 50.6777 2.42258 50.9629 2.10694C51.2766 1.7913 51.6474 1.64783 52.0752 1.64783H60.3455C60.7733 1.64783 61.1155 1.7913 61.4292 2.10694C61.7429 2.39388 61.8855 2.76691 61.8855 3.19732C61.8855 3.59905 61.7429 3.97207 61.4292 4.28771C61.144 4.57466 60.7733 4.71813 60.3455 4.71813H57.95V13.4412C57.95 13.929 57.7789 14.3308 57.4366 14.6751C57.0944 15.0194 56.6666 15.1916 56.2103 15.1916C55.7255 15.1916 55.3263 15.0194 54.984 14.6751C54.6418 14.3308 54.4422 13.9003 54.4422 13.4125Z" fill="#2C2B67"/>
<path d="M66.1354 17.3149L66.3065 17.2862C67.2191 17.2575 67.818 16.9419 68.1317 16.3106L68.6165 15.1628L64.0535 3.79984C63.968 3.65637 63.9395 3.42681 63.9395 3.16856C63.9395 2.68076 64.1106 2.27904 64.4243 1.9634C64.7665 1.61907 65.1658 1.4469 65.622 1.4469C66.4491 1.4469 66.9909 1.81993 67.2191 2.53729L70.4132 11.0595L73.5787 2.53729C73.8639 1.81993 74.4058 1.4469 75.2043 1.4469C75.6891 1.4469 76.1169 1.61907 76.4306 1.9634C76.7728 2.30773 76.9154 2.70945 76.9154 3.16856C76.9154 3.36942 76.8583 3.59898 76.7728 3.82853L71.3828 17.1714C70.5558 19.2948 68.9587 20.3852 66.5632 20.4139C66.3635 20.4139 66.2209 20.4139 66.1924 20.3852C65.7361 20.3565 65.3654 20.213 65.0517 19.9261C64.738 19.6391 64.6239 19.2661 64.6239 18.807C64.6239 18.3766 64.7665 18.0323 65.0517 17.7453C65.3939 17.4871 65.7361 17.3436 66.1354 17.3149Z" fill="#2C2B67"/>
<path d="M15.257 13.7569V16.9706C15.257 17.4011 15.1144 17.7454 14.8292 18.061C14.544 18.3767 14.1733 18.4914 13.7455 18.4914C13.3177 18.4914 12.947 18.348 12.6333 18.061C12.3481 17.7741 12.2055 17.4011 12.2055 16.9706V14.962H3.10812V16.9706C3.10812 17.4011 2.96553 17.7454 2.68034 18.061C2.39516 18.3767 2.02442 18.4914 1.59664 18.4914C1.16886 18.4914 0.798122 18.348 0.484418 18.061C0.199233 17.7741 0.0566406 17.4011 0.0566406 16.9706V14.2734C0.0566406 12.9534 0.484418 12.2074 1.31146 11.9778C2.05294 10.6005 2.59479 8.21885 2.90849 4.83291L3.02257 3.54166C3.0796 2.93908 3.27923 2.47997 3.64997 2.16433C4.02071 1.81999 4.47701 1.64783 5.04738 1.64783H11.6922C12.3481 1.64783 12.8615 1.81999 13.2037 2.19302C13.5744 2.53735 13.7455 3.05385 13.7455 3.71382V11.9491C14.7722 12.0352 15.257 12.6378 15.257 13.7569ZM10.2948 11.8917V4.68944H6.01701L5.93145 5.86591C5.76034 8.73535 5.30405 10.744 4.59108 11.8917H10.2948Z" fill="#2C2B67"/>
</g>
<defs>
<clipPath id="clip0_4282_1290">
<rect width="77" height="20" fill="white" transform="translate(0 0.5)"/>
</clipPath>
</defs>
</svg>
