<svg width="170" height="21" viewBox="0 0 170 21" fill="none" xmlns="http://www.w3.org/2000/svg">
<g clip-path="url(#clip0_2216_16499)">
<path fill-rule="evenodd" clip-rule="evenodd" d="M111.757 10.5166C111.757 6.62249 109.269 4.29687 105.537 4.27954C101.758 4.27954 99.3184 6.84439 99.3184 10.482C99.3184 14.3935 101.806 16.7199 105.537 16.7199C109.318 16.7199 111.757 14.1519 111.757 10.5166ZM109.569 10.4993C109.569 13.032 108.025 14.7382 105.554 14.7382V14.7358C102.9 14.7186 101.507 12.858 101.507 10.4993C101.507 7.98402 103.035 6.27779 105.522 6.26046C108.176 6.27779 109.569 8.13827 109.569 10.4993Z" fill="#FF0D65"/>
<path fill-rule="evenodd" clip-rule="evenodd" d="M136.913 10.5166C136.913 6.62249 134.426 4.29687 130.694 4.27954C126.913 4.27954 124.476 6.84439 124.475 10.482C124.475 14.3935 126.963 16.7199 130.694 16.7199C134.475 16.7199 136.913 14.1519 136.913 10.5166ZM134.726 10.4993C134.726 13.032 133.182 14.7382 130.711 14.7382L130.711 14.7358C128.058 14.7186 126.665 12.858 126.664 10.4993C126.664 7.98402 128.191 6.27779 130.679 6.26046C133.332 6.27779 134.726 8.13827 134.726 10.4993Z" fill="#FF0D65"/>
<path fill-rule="evenodd" clip-rule="evenodd" d="M139.088 16.5278V4.4668H144.129C146.717 4.4668 148.043 5.46552 148.043 7.46453C148.043 8.8426 147.513 9.75635 146.318 10.2388C147.745 10.4969 148.392 11.4445 148.392 13.0122C148.392 15.511 146.667 16.5278 143.847 16.5278H139.088ZM143.831 9.56666C145.141 9.56666 145.97 8.96385 145.97 7.92966C145.97 6.96478 145.356 6.44772 143.881 6.44772H141.161V9.56666H143.831ZM143.982 14.5461C145.573 14.5461 146.304 14.0117 146.304 12.8572C146.304 11.7027 145.475 11.2548 144.015 11.2548H141.163V14.5461H143.982Z" fill="#FF0D65"/>
<path fill-rule="evenodd" clip-rule="evenodd" d="M154.394 8.22247H152.818V4.4668H150.746V16.5278H154.414C157.797 16.5278 159.621 15.1143 159.621 12.3063C159.621 9.58397 158.076 8.22247 154.394 8.22247ZM152.818 14.5461V10.2042H154.577C156.6 10.2042 157.479 10.7724 157.479 12.2543C157.479 13.8913 156.484 14.5461 154.543 14.5461H152.818Z" fill="#FF0D65"/>
<path d="M163.864 11.3068H169.205L169.207 9.32504H163.867V6.44772H169.82V4.4668H161.791V16.5278H170V14.5461H163.864V11.3068Z" fill="#FF0D65"/>
<path fill-rule="evenodd" clip-rule="evenodd" d="M115.999 12.7714V16.5278H113.926V4.4668H117.789C121.454 4.4668 123.016 5.82755 123.016 8.54985C123.016 11.3587 121.192 12.7714 117.789 12.7714H115.999ZM115.999 6.44772V10.7897H117.939C119.863 10.7897 120.858 10.1349 120.858 8.49866C120.858 7.01672 119.996 6.44772 117.972 6.44772H115.999Z" fill="#FF0D65"/>
<path fill-rule="evenodd" clip-rule="evenodd" d="M87.5592 14.5461C88.2223 12.9092 88.7031 10.6347 88.7535 6.96478L88.7863 4.4668H96.9457V14.5461H98.2887V18.7677H96.3489V16.5278H88.2386V18.7677H86.2988V14.5461H87.5592ZM89.5829 14.5461H94.8723V6.44772H90.6775V7.01672C90.6108 10.1695 90.2434 12.651 89.5829 14.5461Z" fill="#FF0D65"/>
<path d="M80.3289 4.29456C78.488 4.29456 77.145 4.8628 76.4814 5.36252L76.4796 8.36032C77.1602 7.29232 78.57 6.24166 80.3271 6.27547C81.5547 6.3101 82.5164 6.75788 82.5164 7.87782C82.5164 8.77425 82.0022 9.51482 80.5098 9.51482H78.7673V11.2896H80.5256C82.3331 11.2896 83.0962 11.7893 83.0962 12.8573C83.0962 14.0811 81.9688 14.7013 80.559 14.7186C78.4188 14.7359 76.9101 13.7711 76.1973 12.5472V15.2011C76.8141 15.9243 78.4188 16.7176 80.5256 16.7003C83.6439 16.683 85.2522 15.0806 85.2522 12.9958C85.2522 11.41 84.3919 10.4451 82.6008 10.1696C83.9444 9.66988 84.6572 8.73963 84.6572 7.32694C84.6572 5.20751 82.9323 4.31189 80.3289 4.29456Z" fill="#FF0D65"/>
<path d="M31.4826 14.3706C32.2364 14.375 32.979 14.1826 33.6415 13.8114L34.1958 13.5013L35.814 14.733C34.7463 15.914 33.1726 16.563 31.37 16.563C29.6466 16.563 28.0715 15.9311 26.9448 14.7931C25.8181 13.6552 25.1973 12.0736 25.1973 10.3553C25.1973 8.63695 25.8272 7.07877 26.9516 5.98143C28.076 4.88409 29.6504 4.27954 31.3858 4.27954C32.9859 4.27954 34.3849 4.78177 35.4321 5.73229L35.5509 5.83617L33.7572 7.20145C33.0944 6.71187 32.2973 6.45433 31.4826 6.46646C29.2285 6.46646 27.5921 8.12852 27.5921 10.4185C27.5921 12.7086 29.2285 14.3706 31.4826 14.3706Z" fill="#21A038"/>
<path fill-rule="evenodd" clip-rule="evenodd" d="M43.4772 9.09928H40.4343V6.42651H45.2912L47.9091 4.43408H37.9336V16.4036H43.1513C46.0799 16.4036 47.7594 15.0328 47.7594 12.6436C47.7624 10.3583 46.2402 9.09928 43.4772 9.09928ZM43.0416 14.4103H40.4343V11.0925H43.0416C44.6296 11.0925 45.3676 11.6478 45.3676 12.7514C45.3676 13.8793 44.5819 14.4103 43.0416 14.4103Z" fill="#21A038"/>
<path d="M58.8517 4.43408L56.2338 6.42651H52.5905V9.35309H57.9314V11.3463H52.5905V14.4103H58.8517V16.4036H50.0898V4.43408H58.8517Z" fill="#21A038"/>
<path fill-rule="evenodd" clip-rule="evenodd" d="M61.1797 4.43408H65.9506C68.9942 4.43408 70.8837 6.07504 70.8837 8.71734C70.8837 11.3596 68.9924 13.013 65.9488 13.013H63.6805V16.4036H61.1797V4.43408ZM63.6805 11.0198H65.8966C67.4988 11.0198 68.3804 10.2044 68.3804 8.72359C68.3804 7.24271 67.4988 6.42651 65.8966 6.42651H63.6805V11.0198Z" fill="#21A038"/>
<path d="M17.2857 4.3855C17.7411 4.99565 18.1306 5.66234 18.442 6.37301L9.65005 13.0886L5.97656 10.7022V7.83125L9.65005 10.2177L17.2857 4.3855Z" fill="#21A038"/>
<path d="M2.22925 10.4996C2.22925 10.3709 2.23229 10.2429 2.23835 10.1156L0.012124 10.0002C0.00454669 10.1659 0 10.3324 0 10.4996C0 13.2606 1.07977 15.7609 2.82635 17.571L4.40471 15.9352C3.062 14.5422 2.22925 12.6199 2.22925 10.4996Z" fill="url(#paint0_linear_2216_16499)"/>
<path d="M9.64955 2.80947C9.77383 2.80947 9.89732 2.81419 10.0201 2.82047L10.1315 0.512565C9.97164 0.504712 9.81099 0.5 9.64955 0.5C6.9854 0.5 4.57275 1.61901 2.82617 3.42905L4.40453 5.06476C5.74875 3.6717 7.60366 2.80947 9.64955 2.80947Z" fill="url(#paint1_linear_2216_16499)"/>
<path d="M9.64992 18.1897C9.52564 18.1897 9.40214 18.1866 9.27938 18.1803L9.16797 20.4874C9.32783 20.4953 9.48848 20.5 9.64992 20.5C12.3141 20.5 14.7267 19.381 16.4733 17.571L14.8949 15.9352C13.5507 17.3267 11.6957 18.1897 9.64992 18.1897Z" fill="url(#paint2_linear_2216_16499)"/>
<path d="M13.8338 4.1515L15.7108 2.71838C14.0544 1.33081 11.9464 0.5 9.65039 0.5V2.81026C11.2015 2.80947 12.642 3.30576 13.8338 4.1515Z" fill="url(#paint3_linear_2216_16499)"/>
<path d="M19.298 10.4996C19.298 9.88789 19.2449 9.28952 19.1434 8.70764L17.0664 10.2939C17.068 10.3622 17.0695 10.4305 17.0695 10.4988C17.0695 12.7565 16.1253 14.7903 14.625 16.1983L16.1231 17.9141C18.0727 16.0853 19.298 13.4405 19.298 10.4996Z" fill="#21A038"/>
<path d="M9.64945 18.1897C7.47096 18.1897 5.50841 17.2113 4.14979 15.6565L2.49414 17.2089C4.25966 19.2302 6.81173 20.5 9.64945 20.5V18.1897Z" fill="url(#paint4_linear_2216_16499)"/>
<path d="M4.67371 4.8001L3.17567 3.08429C1.22526 4.91396 0 7.55873 0 10.4996H2.22925C2.23001 8.24117 3.17339 6.20808 4.67371 4.8001Z" fill="url(#paint5_linear_2216_16499)"/>
</g>
<defs>
<linearGradient id="paint0_linear_2216_16499" x1="3.27785" y1="17.2814" x2="0.682539" y2="10.0425" gradientUnits="userSpaceOnUse">
<stop offset="0.1444" stop-color="#F2E913"/>
<stop offset="0.3037" stop-color="#E7E518"/>
<stop offset="0.5823" stop-color="#CADB26"/>
<stop offset="0.891" stop-color="#A3CD39"/>
</linearGradient>
<linearGradient id="paint1_linear_2216_16499" x1="3.46328" y1="3.83744" x2="9.79167" y2="1.51038" gradientUnits="userSpaceOnUse">
<stop offset="0.0592" stop-color="#0FA8E0"/>
<stop offset="0.5385" stop-color="#0099F9"/>
<stop offset="0.9234" stop-color="#0291EB"/>
</linearGradient>
<linearGradient id="paint2_linear_2216_16499" x1="9.02086" y1="19.1057" x2="16.1385" y2="17.5534" gradientUnits="userSpaceOnUse">
<stop offset="0.1226" stop-color="#A3CD39"/>
<stop offset="0.2846" stop-color="#86C339"/>
<stop offset="0.8693" stop-color="#21A038"/>
</linearGradient>
<linearGradient id="paint3_linear_2216_16499" x1="9.18404" y1="1.27379" x2="15.2857" y2="3.0904" gradientUnits="userSpaceOnUse">
<stop offset="0.0566" stop-color="#0291EB"/>
<stop offset="0.79" stop-color="#0C8ACB"/>
</linearGradient>
<linearGradient id="paint4_linear_2216_16499" x1="3.05328" y1="16.9274" x2="9.71137" y2="19.3279" gradientUnits="userSpaceOnUse">
<stop offset="0.1324" stop-color="#F2E913"/>
<stop offset="0.2977" stop-color="#EBE716"/>
<stop offset="0.5306" stop-color="#D9E01F"/>
<stop offset="0.8023" stop-color="#BBD62D"/>
<stop offset="0.9829" stop-color="#A3CD39"/>
</linearGradient>
<linearGradient id="paint5_linear_2216_16499" x1="0.830826" y1="10.7794" x2="3.65008" y2="3.70262" gradientUnits="userSpaceOnUse">
<stop offset="0.0698" stop-color="#A3CD39"/>
<stop offset="0.2599" stop-color="#81C55F"/>
<stop offset="0.9216" stop-color="#0FA8E0"/>
</linearGradient>
<clipPath id="clip0_2216_16499">
<rect width="170" height="20" fill="white" transform="translate(0 0.5)"/>
</clipPath>
</defs>
</svg>
