<svg width="131" height="21" viewBox="0 0 131 21" fill="none" xmlns="http://www.w3.org/2000/svg">
<g clip-path="url(#clip0_4282_7836)">
<path d="M7.33612 6.98051H2.33609V15.4641H0V4.80835H9.67223V15.4641H7.33612V6.98051Z" fill="#FF4A37"/>
<path d="M11.9453 4.8084H14.2814V5.97643C14.7596 5.52561 15.2718 5.17726 15.8183 4.93135C16.3648 4.68545 16.9795 4.5625 17.6626 4.5625C18.4276 4.5625 19.1312 4.70594 19.7733 4.99282C20.4291 5.26605 20.9891 5.65539 21.4536 6.16086C21.9181 6.65266 22.2802 7.24012 22.5397 7.92312C22.7993 8.59256 22.929 9.32344 22.929 10.1157C22.929 10.9354 22.7856 11.6868 22.4987 12.3699C22.2255 13.0393 21.8498 13.6199 21.3716 14.1117C20.8935 14.5898 20.3198 14.9655 19.6504 15.2388C18.9946 15.5119 18.291 15.6486 17.5396 15.6486C16.8702 15.6486 16.2691 15.5461 15.7363 15.3412C15.2035 15.1362 14.7186 14.8494 14.2814 14.4806V19.5625H11.9453V4.8084ZM17.1913 13.4764C17.6558 13.4764 18.0861 13.4013 18.4823 13.251C18.8921 13.1007 19.2473 12.8822 19.5479 12.5953C19.8484 12.2948 20.0807 11.9396 20.2446 11.5297C20.4222 11.1062 20.511 10.6281 20.511 10.0953C20.511 9.6035 20.4359 9.15269 20.2856 8.74281C20.1353 8.31931 19.9167 7.96412 19.6298 7.67725C19.3566 7.37669 19.0287 7.14444 18.6462 6.98056C18.2637 6.81663 17.8402 6.73463 17.3757 6.73463C16.6653 6.73463 16.0369 6.90538 15.4904 7.24694C14.9576 7.58844 14.5546 7.99831 14.2814 8.47644V11.7141C14.5546 12.2879 14.944 12.7251 15.4494 13.0256C15.9549 13.3262 16.5356 13.4764 17.1913 13.4764Z" fill="#FF4A37"/>
<path d="M24.1426 10.1157C24.1426 9.30975 24.2792 8.57206 24.5524 7.90269C24.8257 7.21963 25.215 6.63217 25.7205 6.14037C26.226 5.64856 26.8271 5.26605 27.5238 4.99282C28.2205 4.70594 28.9924 4.5625 29.8394 4.5625C30.6727 4.5625 31.4378 4.70594 32.1345 4.99282C32.8449 5.26605 33.4528 5.64856 33.9583 6.14037C34.4638 6.63217 34.8531 7.21963 35.1264 7.90269C35.4133 8.57206 35.5567 9.30975 35.5567 10.1157C35.5567 10.9218 35.4133 11.6663 35.1264 12.3494C34.8531 13.0188 34.4638 13.5994 33.9583 14.0912C33.4528 14.583 32.8449 14.9655 32.1345 15.2388C31.4378 15.5119 30.6727 15.6486 29.8394 15.6486C29.006 15.6486 28.241 15.5119 27.5443 15.2388C26.8475 14.9655 26.2464 14.583 25.741 14.0912C25.2355 13.5994 24.8393 13.0188 24.5524 12.3494C24.2792 11.6663 24.1426 10.9218 24.1426 10.1157ZM26.5607 10.1157C26.5607 10.5939 26.6358 11.0379 26.7861 11.4477C26.95 11.8576 27.1754 12.2127 27.4623 12.5133C27.7492 12.8139 28.0907 13.0529 28.4869 13.2306C28.8968 13.3944 29.3476 13.4764 29.8394 13.4764C30.3312 13.4764 30.7752 13.4013 31.1714 13.251C31.5812 13.0871 31.9296 12.8617 32.2165 12.5748C32.5034 12.2743 32.7288 11.9191 32.8927 11.5092C33.0566 11.0994 33.1386 10.6349 33.1386 10.1157C33.1386 9.59662 33.0498 9.13219 32.8722 8.72231C32.7083 8.29881 32.476 7.94362 32.1755 7.65675C31.8749 7.35619 31.5265 7.13081 31.1304 6.98056C30.7342 6.81663 30.3039 6.73463 29.8394 6.73463C29.3749 6.73463 28.9377 6.81663 28.5279 6.98056C28.1317 7.13081 27.7834 7.35619 27.4828 7.65675C27.1959 7.94362 26.9705 8.29881 26.8066 8.72231C26.6426 9.13219 26.5607 9.59662 26.5607 10.1157Z" fill="#FF4A37"/>
<path d="M36.1816 13.2919H37.4153C37.8951 12.6772 38.2172 11.9736 38.3817 11.1813C38.5462 10.3889 38.6284 9.49414 38.6284 8.49689V4.80835H47.2229V13.2919H48.7239V17.9026H46.5444V15.4641H38.3611V17.9026H36.1816V13.2919ZM44.879 13.2919V6.98051H40.849V9.70589C40.849 10.3616 40.7599 11.0174 40.5817 11.6731C40.4035 12.3152 40.1568 12.8548 39.8415 13.2919H44.879Z" fill="#3981F1"/>
<path d="M49.1992 10.1157C49.1992 9.30975 49.3363 8.57206 49.6104 7.90269C49.8845 7.21963 50.2752 6.63217 50.7824 6.14037C51.2895 5.64856 51.8927 5.26605 52.5917 4.99282C53.2908 4.70594 54.0653 4.5625 54.9152 4.5625C55.7513 4.5625 56.5189 4.70594 57.218 4.99282C57.9308 5.26605 58.5408 5.64856 59.0479 6.14037C59.5551 6.63217 59.9458 7.21963 60.2199 7.90269C60.5078 8.57206 60.6517 9.30975 60.6517 10.1157C60.6517 10.9218 60.5078 11.6663 60.2199 12.3494C59.9458 13.0188 59.5551 13.5994 59.0479 14.0912C58.5408 14.583 57.9308 14.9655 57.218 15.2388C56.5189 15.5119 55.7513 15.6486 54.9152 15.6486C54.079 15.6486 53.3114 15.5119 52.6123 15.2388C51.9132 14.9655 51.3101 14.583 50.803 14.0912C50.2958 13.5994 49.8983 13.0188 49.6104 12.3494C49.3363 11.6663 49.1992 10.9218 49.1992 10.1157ZM51.6254 10.1157C51.6254 10.5939 51.7008 11.0379 51.8515 11.4477C52.016 11.8576 52.2422 12.2127 52.5301 12.5133C52.8179 12.8139 53.1606 13.0529 53.5582 13.2306C53.9694 13.3944 54.4217 13.4764 54.9152 13.4764C55.4086 13.4764 55.8541 13.4013 56.2516 13.251C56.6628 13.0871 57.0124 12.8617 57.3003 12.5748C57.5881 12.2743 57.8143 11.9191 57.9788 11.5092C58.1432 11.0994 58.2255 10.6349 58.2255 10.1157C58.2255 9.59662 58.1364 9.13219 57.9582 8.72231C57.7937 8.29881 57.5607 7.94362 57.2591 7.65675C56.9575 7.35619 56.608 7.13081 56.2105 6.98056C55.813 6.81663 55.3812 6.73463 54.9152 6.73463C54.4491 6.73463 54.0105 6.81663 53.5993 6.98056C53.2018 7.13081 52.8522 7.35619 52.5506 7.65675C52.2628 7.94362 52.0366 8.29881 51.8721 8.72231C51.7076 9.13219 51.6254 9.59662 51.6254 10.1157Z" fill="#3981F1"/>
<path d="M62.1016 4.80835H64.4455V9.13214L69.0716 4.80835H72.1352L66.9332 9.62395L72.3204 15.4641H69.3187L65.2271 11.0788L64.4455 11.837V15.4641H62.1016V4.80835Z" fill="#3981F1"/>
<path d="M73.0605 4.80835H83.1357V6.98051H79.2699V15.4641H76.9263V6.98051H73.0605V4.80835Z" fill="#3981F1"/>
<path d="M83.6484 10.1157C83.6484 9.30975 83.7857 8.57206 84.0602 7.90269C84.334 7.21963 84.7245 6.63217 85.2317 6.14037C85.7388 5.64856 86.3421 5.26605 87.0413 4.99282C87.74 4.70594 88.5148 4.5625 89.3644 4.5625C90.2009 4.5625 90.9682 4.70594 91.6675 4.99282C92.3805 5.26605 92.99 5.64856 93.4972 6.14037C94.0043 6.63217 94.3954 7.21963 94.6693 7.90269C94.9575 8.57206 95.101 9.30975 95.101 10.1157C95.101 10.9218 94.9575 11.6663 94.6693 12.3494C94.3954 13.0188 94.0043 13.5994 93.4972 14.0912C92.99 14.583 92.3805 14.9655 91.6675 15.2388C90.9682 15.5119 90.2009 15.6486 89.3644 15.6486C88.5285 15.6486 87.7606 15.5119 87.0619 15.2388C86.3626 14.9655 85.7594 14.583 85.2523 14.0912C84.7451 13.5994 84.3477 13.0188 84.0602 12.3494C83.7857 11.6663 83.6484 10.9218 83.6484 10.1157ZM86.0751 10.1157C86.0751 10.5939 86.1505 11.0379 86.3009 11.4477C86.4656 11.8576 86.6914 12.2127 86.9796 12.5133C87.2672 12.8139 87.6103 13.0529 88.0076 13.2306C88.4187 13.3944 88.871 13.4764 89.3644 13.4764C89.8578 13.4764 90.3039 13.4013 90.7012 13.251C91.1123 13.0871 91.4617 12.8617 91.7499 12.5748C92.0374 12.2743 92.2639 11.9191 92.4279 11.5092C92.5926 11.0994 92.675 10.6349 92.675 10.1157C92.675 9.59662 92.5858 9.13219 92.4073 8.72231C92.2433 8.29881 92.01 7.94362 91.7087 7.65675C91.4068 7.35619 91.0574 7.13081 90.6601 6.98056C90.2627 6.81663 89.8304 6.73463 89.3644 6.73463C88.8984 6.73463 88.4599 6.81663 88.0488 6.98056C87.6514 7.13081 87.3015 7.35619 87.0002 7.65675C86.712 7.94362 86.4861 8.29881 86.3215 8.72231C86.1574 9.13219 86.0751 9.59662 86.0751 10.1157Z" fill="#3981F1"/>
<path d="M96.5332 4.8084H98.8769V5.97643C99.3566 5.52561 99.8706 5.17726 100.419 4.93135C100.967 4.68545 101.584 4.5625 102.27 4.5625C103.037 4.5625 103.743 4.70594 104.388 4.99282C105.045 5.26605 105.607 5.65539 106.073 6.16086C106.539 6.65266 106.903 7.24012 107.163 7.92312C107.424 8.59256 107.553 9.32344 107.553 10.1157C107.553 10.9354 107.41 11.6868 107.122 12.3699C106.848 13.0393 106.471 13.6199 105.991 14.1117C105.511 14.5898 104.935 14.9655 104.264 15.2388C103.606 15.5119 102.9 15.6486 102.146 15.6486C101.474 15.6486 100.871 15.5461 100.337 15.3412C99.802 15.1362 99.3154 14.8494 98.8769 14.4806V19.5625H96.5332V4.8084ZM101.797 13.4764C102.263 13.4764 102.695 13.4013 103.092 13.251C103.503 13.1007 103.86 12.8822 104.161 12.5953C104.462 12.2948 104.696 11.9396 104.86 11.5297C105.038 11.1062 105.127 10.6281 105.127 10.0953C105.127 9.6035 105.052 9.15269 104.902 8.74281C104.751 8.31931 104.531 7.96412 104.243 7.67725C103.969 7.37669 103.64 7.14444 103.257 6.98056C102.872 6.81663 102.448 6.73463 101.982 6.73463C101.269 6.73463 100.639 6.90538 100.09 7.24694C99.5556 7.58844 99.1513 7.99831 98.8769 8.47644V11.7141C99.1513 12.2879 99.5418 12.7251 100.049 13.0256C100.556 13.3262 101.139 13.4764 101.797 13.4764Z" fill="#3981F1"/>
<path d="M108.715 10.1157C108.715 9.30975 108.852 8.57206 109.126 7.90269C109.4 7.21963 109.791 6.63217 110.298 6.14037C110.805 5.64856 111.408 5.26605 112.107 4.99282C112.806 4.70594 113.581 4.5625 114.431 4.5625C115.267 4.5625 116.035 4.70594 116.734 4.99282C117.446 5.26605 118.056 5.64856 118.564 6.14037C119.071 6.63217 119.461 7.21963 119.736 7.90269C120.023 8.57206 120.167 9.30975 120.167 10.1157C120.167 10.9218 120.023 11.6663 119.736 12.3494C119.461 13.0188 119.071 13.5994 118.564 14.0912C118.056 14.583 117.446 14.9655 116.734 15.2388C116.035 15.5119 115.267 15.6486 114.431 15.6486C113.595 15.6486 112.827 15.5119 112.128 15.2388C111.429 14.9655 110.826 14.583 110.319 14.0912C109.812 13.5994 109.414 13.0188 109.126 12.3494C108.852 11.6663 108.715 10.9218 108.715 10.1157ZM111.141 10.1157C111.141 10.5939 111.216 11.0379 111.367 11.4477C111.532 11.8576 111.758 12.2127 112.046 12.5133C112.334 12.8139 112.676 13.0529 113.074 13.2306C113.485 13.3944 113.937 13.4764 114.431 13.4764C114.924 13.4764 115.37 13.4013 115.767 13.251C116.179 13.0871 116.528 12.8617 116.816 12.5748C117.104 12.2743 117.33 11.9191 117.494 11.5092C117.659 11.0994 117.741 10.6349 117.741 10.1157C117.741 9.59662 117.652 9.13219 117.474 8.72231C117.309 8.29881 117.076 7.94362 116.774 7.65675C116.473 7.35619 116.124 7.13081 115.726 6.98056C115.328 6.81663 114.897 6.73463 114.431 6.73463C113.965 6.73463 113.526 6.81663 113.115 6.98056C112.717 7.13081 112.368 7.35619 112.067 7.65675C111.778 7.94362 111.553 8.29881 111.388 8.72231C111.223 9.13219 111.141 9.59662 111.141 10.1157Z" fill="#3981F1"/>
<path d="M121.625 4.80835H126.189C127.683 4.80835 128.808 5.0201 129.562 5.4436C130.315 5.86709 130.693 6.59797 130.693 7.6362C130.693 8.12801 130.583 8.5447 130.363 8.8862C130.144 9.22776 129.856 9.53514 129.5 9.80832C130.007 9.99964 130.384 10.3206 130.631 10.7714C130.877 11.2086 131.001 11.7141 131.001 12.2879C131.001 13.3534 130.624 14.1526 129.87 14.6854C129.116 15.2045 128.054 15.4641 126.683 15.4641H121.625V4.80835ZM123.969 11.0583V13.3534H126.457C127.156 13.3534 127.683 13.2646 128.04 13.087C128.396 12.9094 128.575 12.6226 128.575 12.2264C128.575 11.8029 128.403 11.5023 128.061 11.3248C127.731 11.1471 127.217 11.0583 126.519 11.0583H123.969ZM123.969 6.91901V9.02964H126.724C127.204 9.02964 127.581 8.94089 127.855 8.76326C128.129 8.5857 128.266 8.31245 128.266 7.94357C128.266 7.50645 128.081 7.22639 127.711 7.10345C127.355 6.98051 126.827 6.91901 126.128 6.91901H123.969Z" fill="#3981F1"/>
</g>
<defs>
<clipPath id="clip0_4282_7836">
<rect width="131" height="20" fill="white" transform="translate(0 0.5)"/>
</clipPath>
</defs>
</svg>
