<svg width="75" height="25" viewBox="0 0 75 25" fill="none" xmlns="http://www.w3.org/2000/svg">
<g clip-path="url(#clip0_4282_4391)">
<path fill-rule="evenodd" clip-rule="evenodd" d="M8.56526 -0.0412598C8.31927 -0.0394151 8.01067 -0.0362051 7.59129 -0.031077C6.92191 -0.0133318 6.4141 0.0273233 5.91642 0.116086C5.31002 0.22407 4.76102 0.401818 4.23612 0.667295C3.70269 0.936462 3.2142 1.28867 2.79037 1.7098C2.36703 2.12956 2.01177 2.61492 1.73928 3.14602C1.47147 3.66823 1.29213 4.2145 1.18234 4.81935C1.09269 5.31444 1.05202 5.81762 1.03423 6.47541L1.02813 6.74944C1.02652 6.84352 1.02527 6.94088 1.02439 7.04337L1.02148 7.63862L1.02152 17.3742L1.02332 17.7987C1.02472 18.0691 1.02806 18.3017 1.03423 18.5252C1.05205 19.1825 1.09273 19.6858 1.18231 20.1801C1.29217 20.7854 1.47154 21.332 1.73925 21.854C2.01184 22.3848 2.36696 22.87 2.79067 23.2906C3.2149 23.7117 3.70342 24.064 4.23674 24.3331C4.76102 24.5983 5.31002 24.776 5.91664 24.884C6.36887 24.9647 6.82965 25.0056 7.40471 25.0256L7.83566 25.0362C8.05975 25.0393 8.39095 25.0411 9.05217 25.0431L18.4287 25.0416C18.6773 25.0399 18.9777 25.0368 19.4365 25.0312C20.1059 25.0134 20.6137 24.9728 21.1114 24.884C21.7178 24.776 22.2668 24.5983 22.7917 24.3328C23.3245 24.0637 23.8133 23.7113 24.2371 23.2906C24.6611 22.8697 25.0162 22.3843 25.2882 21.8538C25.5562 21.3321 25.7357 20.7851 25.8451 20.1798C25.9266 19.7301 25.9679 19.2716 25.9881 18.6998L25.9935 18.5247C25.9973 18.3909 25.9999 18.2536 26.0018 18.107L26.0061 16.9531L26.0054 7.40956L26.0018 6.8931C25.9999 6.74646 25.9973 6.60903 25.9935 6.47493C25.9758 5.82031 25.9348 5.31511 25.8451 4.81968C25.7358 4.21476 25.5563 3.66812 25.2879 3.14565C25.0163 2.6154 24.661 2.12982 24.2368 1.70921C23.814 1.28908 23.3253 0.936794 22.7913 0.667111C22.2668 0.401818 21.7178 0.224071 21.1111 0.11605C20.6589 0.035403 20.1981 -0.00554732 19.6231 -0.0255061L19.1282 -0.0368696C19.0888 -0.0373492 19.0461 -0.0377916 18.9993 -0.0381974L8.56526 -0.0412598Z" fill="#1A1A1A" fill-opacity="0.01"/>
<path fill-rule="evenodd" clip-rule="evenodd" d="M7.60195 0.706655L8.60778 0.696289L19.0732 0.700346C19.2319 0.70197 19.3305 0.703962 19.4292 0.706655C19.9481 0.72049 20.4714 0.751001 20.9845 0.842531C21.5054 0.935278 21.9898 1.08702 22.4628 1.32623C22.9275 1.56094 23.3533 1.86766 23.7222 2.23422C24.091 2.5999 24.4 3.02217 24.6365 3.48388C24.8779 3.95374 25.0304 4.43459 25.1238 4.95164C25.216 5.46094 25.2467 5.98042 25.2607 6.49543C25.2672 6.73177 25.2701 6.96814 25.2713 7.20487L25.2727 7.62578L25.273 16.953C25.273 17.2338 25.273 17.5144 25.2713 17.7956C25.2701 18.0319 25.2672 18.2683 25.2607 18.5046C25.2467 19.0192 25.216 19.5391 25.1238 20.048C25.0304 20.565 24.8779 21.0463 24.6365 21.5162C24.4 21.9775 24.091 22.3997 23.7222 22.7658C23.3533 23.132 22.9275 23.4391 22.4628 23.6738C21.9898 23.913 21.5054 24.0648 20.9845 24.1575C20.4714 24.249 19.9481 24.2795 19.4292 24.2934L17.8661 24.3056L7.95769 24.2997C7.799 24.2981 7.7005 24.2961 7.60195 24.2934C7.08311 24.2795 6.55975 24.249 6.04665 24.1575C5.52579 24.0648 5.04137 23.913 4.56843 23.6738C4.10327 23.4391 3.67786 23.132 3.30901 22.7658C2.94018 22.3997 2.63114 21.9775 2.39427 21.5162C2.15331 21.0463 2.00083 20.565 1.90699 20.048C1.81476 19.5391 1.78445 19.0192 1.77053 18.5046C1.76395 18.2683 1.76108 18.0319 1.75987 17.7956L1.75807 17.3741L1.75781 8.04698C1.75781 7.76626 1.75781 7.48518 1.75987 7.20487C1.76108 6.96814 1.76395 6.73177 1.77053 6.49543C1.78445 5.98042 1.81476 5.46094 1.90699 4.95164C2.00083 4.43459 2.15331 3.95374 2.39427 3.48388C2.63114 3.02217 2.94018 2.5999 3.30901 2.23422C3.67786 1.86766 4.10327 1.56094 4.56843 1.32623C5.04137 1.08702 5.52579 0.935278 6.04665 0.842531C6.55975 0.751001 7.08311 0.72049 7.60195 0.706655Z" fill="#1A1A1A" fill-opacity="0.01"/>
<mask id="mask0_4282_4391" style="mask-type:alpha" maskUnits="userSpaceOnUse" x="1" y="0" width="25" height="25">
<path fill-rule="evenodd" clip-rule="evenodd" d="M7.60195 0.706655L8.60778 0.696289L19.0732 0.700346C19.2319 0.70197 19.3305 0.703962 19.4292 0.706655C19.9481 0.72049 20.4714 0.751001 20.9845 0.842531C21.5054 0.935278 21.9898 1.08702 22.4628 1.32623C22.9275 1.56094 23.3533 1.86766 23.7222 2.23422C24.091 2.5999 24.4 3.02217 24.6365 3.48388C24.8779 3.95374 25.0304 4.43459 25.1238 4.95164C25.216 5.46094 25.2467 5.98042 25.2607 6.49543C25.2672 6.73177 25.2701 6.96814 25.2713 7.20487L25.2727 7.62578L25.273 16.953C25.273 17.2338 25.273 17.5144 25.2713 17.7956C25.2701 18.0319 25.2672 18.2683 25.2607 18.5046C25.2467 19.0192 25.216 19.5391 25.1238 20.048C25.0304 20.565 24.8779 21.0463 24.6365 21.5162C24.4 21.9775 24.091 22.3997 23.7222 22.7658C23.3533 23.132 22.9275 23.4391 22.4628 23.6738C21.9898 23.913 21.5054 24.0648 20.9845 24.1575C20.4714 24.249 19.9481 24.2795 19.4292 24.2934L17.8661 24.3056L7.95769 24.2997C7.799 24.2981 7.7005 24.2961 7.60195 24.2934C7.08311 24.2795 6.55975 24.249 6.04665 24.1575C5.52579 24.0648 5.04137 23.913 4.56843 23.6738C4.10327 23.4391 3.67786 23.132 3.30901 22.7658C2.94018 22.3997 2.63114 21.9775 2.39427 21.5162C2.15331 21.0463 2.00083 20.565 1.90699 20.048C1.81476 19.5391 1.78445 19.0192 1.77053 18.5046C1.76395 18.2683 1.76108 18.0319 1.75987 17.7956L1.75807 17.3741L1.75781 8.04698C1.75781 7.76626 1.75781 7.48518 1.75987 7.20487C1.76108 6.96814 1.76395 6.73177 1.77053 6.49543C1.78445 5.98042 1.81476 5.46094 1.90699 4.95164C2.00083 4.43459 2.15331 3.95374 2.39427 3.48388C2.63114 3.02217 2.94018 2.5999 3.30901 2.23422C3.67786 1.86766 4.10327 1.56094 4.56843 1.32623C5.04137 1.08702 5.52579 0.935278 6.04665 0.842531C6.55975 0.751001 7.08311 0.72049 7.60195 0.706655Z" fill="white"/>
</mask>
<g mask="url(#mask0_4282_4391)">
<path d="M25.273 0.694336H1.75781V24.3054H25.273V0.694336Z" fill="#19AA1E"/>
<path fill-rule="evenodd" clip-rule="evenodd" d="M1.75781 0.694336H25.273V8.44173L1.75781 4.75249V0.694336Z" fill="#FFB919"/>
<path fill-rule="evenodd" clip-rule="evenodd" d="M1.75781 21.7232L25.273 18.0339V24.3056H1.75781V21.7232Z" fill="#82D714"/>
<path fill-rule="evenodd" clip-rule="evenodd" d="M1.75781 4.28589L9.96596 5.57362C10.9877 4.9242 12.2033 4.56815 13.5154 4.56815C15.3327 4.56815 16.9649 5.25121 18.1534 6.45066C18.3033 6.60203 18.4448 6.7603 18.5774 6.92465L25.273 7.97509V8.90858L19.2573 7.96483C19.7042 8.82597 19.9453 9.78543 19.9453 10.7646C19.9453 12.0296 19.6635 13.2908 19.081 14.5571L19.0633 14.5955L18.8159 15.1277H18.2309C17.0229 15.1277 16.2216 15.4906 15.6977 16.1336C15.2863 16.6384 15.0485 17.319 14.9684 18.0616L14.966 18.0849L14.9543 18.2035L14.9493 18.2551L14.9398 18.3561C14.9092 18.6876 14.8887 18.9688 14.8783 19.1979L25.273 17.5671V18.5006L1.75781 22.1898V21.2563L12.1642 19.6237L12.1596 19.4141L12.1582 19.355L12.1574 19.3247L12.1558 19.278C12.1464 19.0238 12.1232 18.6981 12.086 18.3033L12.0789 18.2284L12.0662 18.0988C11.9915 17.3523 11.7572 16.6631 11.3469 16.1507C10.8285 15.5033 10.0346 15.1352 8.83632 15.1279L8.7999 15.1277H8.21489L7.9675 14.5955C7.37297 13.3163 7.08546 12.0424 7.08546 10.7646C7.08546 9.15775 7.7347 7.60395 8.87743 6.45066C8.91043 6.41738 8.94375 6.38447 8.97741 6.35201L1.75781 5.21934V4.28589Z" fill="white"/>
<path fill-rule="evenodd" clip-rule="evenodd" d="M13.5153 5.49048C16.7982 5.49048 19.0266 8.02768 19.0266 10.7646C19.0266 11.8634 18.7879 13.0068 18.2308 14.2055C15.0004 14.2055 14.203 16.5283 14.0522 17.9899L14.0426 18.0873C13.9915 18.6089 13.9619 19.0274 13.9539 19.343L13.0789 19.4802L13.0787 19.4518C13.0754 19.1211 13.0442 18.6571 12.9853 18.0599L12.9827 18.0339C12.8434 16.5755 12.0628 14.2055 8.79978 14.2055C8.24266 13.0068 8.00391 11.8634 8.00391 10.7646C8.00391 8.02768 10.2323 5.49048 13.5153 5.49048Z" fill="#0073FA"/>
</g>
<path fill-rule="evenodd" clip-rule="evenodd" d="M36.1475 6.41284C33.2816 6.41284 31.1321 8.16523 31.1505 11.2088H33.8143C33.7776 9.9914 34.5492 8.81085 36.1475 8.81085C37.36 8.81085 38.1316 9.62248 38.1316 10.6555C38.1316 11.7253 37.2865 12.3156 35.927 12.9797C34.145 13.8467 33.0795 14.2525 31.1505 14.8981V18.4029H41.071V16.0049H34.7513C35.672 15.6194 36.5685 15.1962 37.3783 14.8059C39.5278 13.7729 40.7954 12.6108 40.7954 10.5263C40.7954 8.01766 38.9215 6.41284 36.1475 6.41284ZM45.1126 8.99531H50.2566V6.5973H42.5407V18.4029H45.1126V8.99531ZM54.2982 6.5973H51.7263V18.4029H54.2799L59.0748 10.8584V18.4029H61.6467V6.5973H59.0748L54.2982 14.1418V6.5973ZM74.5617 13.9758H71.8979C71.4937 15.2855 70.2628 16.1893 68.8115 16.1893C66.6988 16.1893 65.321 14.3631 65.321 12.5001C65.321 10.637 66.6621 8.81085 68.885 8.81085C70.3547 8.81085 71.4937 9.71471 71.8979 11.0244H74.5617C74.1759 8.38658 72.0999 6.41284 68.8115 6.41284C65.174 6.41284 62.749 8.97686 62.749 12.5001C62.749 16.0233 65.174 18.5873 68.8115 18.5873C72.0999 18.5873 74.1759 16.6505 74.5617 13.9758Z" fill="#1A1A1A"/>
</g>
<defs>
<clipPath id="clip0_4282_4391">
<rect width="75" height="25" fill="white"/>
</clipPath>
</defs>
</svg>
