<svg width="20" height="18" viewBox="0 0 20 18" fill="none" xmlns="http://www.w3.org/2000/svg">
<path d="M8.30365 0.159867C8.05586 0.0543592 7.78932 -1.68052e-05 7.52 0H2L1.85 0.00500012C1.34684 0.0428433 0.876588 0.269471 0.533497 0.639452C0.190406 1.00943 -0.000159579 1.49542 0 2V6H20V4.5L19.995 4.35C19.9572 3.84684 19.7305 3.37659 19.3605 3.0335C18.9906 2.69041 18.5046 2.49984 18 2.5H10.48L9.082 0.751L8.962 0.614C8.77536 0.41984 8.55144 0.265374 8.30365 0.159867Z" fill="#EF4665"/>
<path d="M20 8V16C20.0002 16.5046 19.8096 16.9906 19.4665 17.3605C19.1234 17.7305 18.6532 17.9572 18.15 17.995L18 18H2C1.49542 18.0002 1.00943 17.8096 0.639452 17.4665C0.269471 17.1234 0.0428433 16.6532 0.00500011 16.15L0 16V8H20Z" fill="#0060AA"/>
</svg>
