<svg width="20" height="20" viewBox="0 0 20 20" fill="none" xmlns="http://www.w3.org/2000/svg">
<path fill-rule="evenodd" clip-rule="evenodd" d="M5.00057 0.27986C6.14557 1.1141 7.03713 2.25279 7.79846 3.34241L8.24124 3.98737L8.65897 4.60328C8.86792 4.90847 8.95726 5.27984 8.90997 5.64663C8.86267 6.01343 8.68205 6.35001 8.40252 6.59224L6.4481 8.0434C6.35368 8.11156 6.28721 8.21167 6.26105 8.32514C6.23489 8.4386 6.25081 8.5577 6.30585 8.66031C6.74863 9.46451 7.53601 10.6623 8.43758 11.5636C9.34016 12.465 10.5944 13.3042 11.4549 13.7969C11.5628 13.8575 11.6898 13.8744 11.8097 13.8442C11.9297 13.8141 12.0336 13.7391 12.1 13.6347L13.3722 11.6988C13.6061 11.3882 13.9512 11.1801 14.3351 11.1181C14.719 11.0562 15.112 11.1451 15.4318 11.3663L16.096 11.826C17.3372 12.6873 18.6705 13.6658 19.6903 14.9707C19.852 15.1788 19.9549 15.4265 19.9882 15.6879C20.0215 15.9493 19.984 16.2149 19.8796 16.4569C19.0411 18.4128 16.9194 20.0783 14.7126 19.9972L14.412 19.9801L14.1786 19.9601L13.9202 19.9301L13.6387 19.892L13.3332 19.8419C13.2797 19.8323 13.2262 19.8223 13.1729 19.8119L12.8363 19.7398C12.7774 19.7268 12.7186 19.7135 12.66 19.6997L12.2933 19.6056L11.9077 19.4954L11.505 19.3652C9.65572 18.7383 7.30861 17.5065 4.90039 15.0989C2.49318 12.6923 1.26102 10.3458 0.633921 8.49707L0.503693 8.09447L0.3935 7.7089L0.299335 7.34235L0.221198 6.99584C0.19863 6.88731 0.177591 6.77847 0.158088 6.66935L0.108 6.3639L0.0679301 6.08248L0.0388793 5.8241L0.0188441 5.59075L0.00281611 5.2903C-0.0783259 3.09104 1.60562 0.954863 3.55303 0.120623C3.78742 0.0194399 4.04409 -0.0190837 4.29787 0.00883272C4.55164 0.0367492 4.79379 0.130147 5.00057 0.27986Z" fill="#0060AA"/>
<path d="M18.9695 0.000466345C18.7155 0.00822094 18.4741 0.112346 18.2941 0.291694L15.0011 3.58469V1.99869L14.9941 1.88169C14.964 1.6286 14.8384 1.39655 14.6429 1.23296C14.4475 1.06937 14.1969 0.986585 13.9425 1.00152C13.6881 1.01646 13.4489 1.12799 13.2739 1.31333C13.099 1.49866 13.0014 1.74381 13.0011 1.99869V5.99869L13.0081 6.11569C13.0368 6.35894 13.1537 6.58322 13.3367 6.74598C13.5198 6.90874 13.7562 6.99866 14.0011 6.99869H18.0011L18.1181 6.99169C18.3712 6.96159 18.6032 6.83598 18.7668 6.64053C18.9304 6.44507 19.0132 6.19453 18.9983 5.94009C18.9833 5.68565 18.8718 5.44651 18.6865 5.27154C18.5011 5.09657 18.256 4.99898 18.0011 4.99869H16.4151L19.7081 1.70569L19.7911 1.61169C19.9465 1.4107 20.0196 1.15809 19.9955 0.905169C19.9714 0.652246 19.8519 0.417977 19.6614 0.249943C19.4708 0.0819096 19.2234 -0.00728825 18.9695 0.000466345Z" fill="#EF4665"/>
</svg>
