<svg width="22" height="20" viewBox="0 0 22 20" fill="none" xmlns="http://www.w3.org/2000/svg">
<path d="M6.34733 2.28457C4.95735 3.74735 4.17647 5.73131 4.17647 7.8V8.95329C3.29431 9.08729 2.48759 9.55138 1.90419 10.2605C1.32078 10.9696 0.999771 11.8763 1 12.8143V13.0929C1 14.0533 1.36255 14.9744 2.0079 15.6536C2.65324 16.3327 3.52852 16.7143 4.44118 16.7143C4.93261 16.7143 5.40391 16.5088 5.7514 16.1431C6.0989 15.7774 6.29412 15.2815 6.29412 14.7643V7.8C6.29412 6.32237 6.85189 4.90525 7.84473 3.8604C8.83757 2.81556 10.1841 2.22857 11.5882 2.22857C12.9923 2.22857 14.3389 2.81556 15.3317 3.8604C16.0988 4.6676 16.6061 5.69698 16.7972 6.8048C16.8911 7.34905 17.3301 7.8 17.8824 7.8H18C18.5523 7.8 19.0063 7.35061 18.9392 6.80242C18.7308 5.10174 17.9938 3.51021 16.8291 2.28457C15.4392 0.821783 13.554 0 11.5882 0C9.62251 0 7.7373 0.821783 6.34733 2.28457Z" fill="#0060AA"/>
<path d="M22 12.47C22 10.7045 20.696 9.24335 19 9H18C17.4477 9 17 9.44771 17 10V13.9722C17 15.6637 16.003 16.9685 14.707 17.5864C14.171 16.8614 13.293 16.9766 12.5 16.9766C12.1022 16.9766 11.7206 17.1348 11.4393 17.4165C11.158 17.6983 11 18.0803 11 18.4787C11 18.8771 11.158 19.2592 11.4393 19.5409C11.7206 19.8227 12.1022 19.9809 12.5 19.9809C12.989 19.9809 13.545 20.062 14.015 19.8898C16.046 19.5273 17.928 18.0962 18.668 15.9731C20.469 16.0562 22 14.498 22 12.7204V12.47Z" fill="#EF4665"/>
</svg>
