<svg width="20" height="20" viewBox="0 0 20 20" fill="none" xmlns="http://www.w3.org/2000/svg">
<path d="M8.99933 0C7.67325 0 6.40148 0.526784 5.46379 1.46447C4.52611 2.40215 3.99933 3.67392 3.99933 5C3.99933 6.32608 4.52611 7.59785 5.46379 8.53553C6.40148 9.47322 7.67325 10 8.99933 10C10.3254 10 11.5972 9.47322 12.5349 8.53553C13.4725 7.59785 13.9993 6.32608 13.9993 5C13.9993 3.67392 13.4725 2.40215 12.5349 1.46447C11.5972 0.526784 10.3254 0 8.99933 0ZM8.99933 11C6.60433 11 4.42433 11.694 2.82133 12.672C2.02133 13.16 1.33733 13.736 0.843329 14.362C0.357329 14.976 -0.000671387 15.713 -0.000671387 16.5C-0.000671387 17.345 0.410329 18.011 1.00233 18.486C1.56233 18.936 2.30133 19.234 3.08633 19.442C4.66433 19.859 6.77033 20 8.99933 20L9.68433 19.995C9.85181 19.9927 10.016 19.9484 10.1619 19.8661C10.3078 19.7838 10.4307 19.6662 10.5193 19.524C10.6079 19.3819 10.6593 19.2198 10.6689 19.0525C10.6786 18.8853 10.646 18.7184 10.5743 18.567C10.1943 17.7647 9.99785 16.8878 9.99933 16C9.99933 14.748 10.3823 13.588 11.0363 12.627C11.1335 12.4842 11.1921 12.3186 11.2063 12.1465C11.2205 11.9743 11.1898 11.8014 11.1173 11.6446C11.0448 11.4878 10.9329 11.3524 10.7925 11.2517C10.6522 11.151 10.4881 11.0884 10.3163 11.07C9.88633 11.024 9.44633 11 8.99933 11Z" fill="#0060AA"/>
<path d="M15.9992 12.978C15.1782 12.528 14.2522 12.585 13.4992 13.024C12.5832 13.558 11.9732 14.615 12.0002 15.813C12.0352 17.381 13.2472 18.61 14.8852 19.583L14.8867 19.5839C15.2292 19.7866 15.5898 20 15.9992 20C16.4086 20 16.7674 19.7876 17.1093 19.5853L17.1132 19.583C18.7512 18.61 19.9632 17.382 19.9992 15.812C20.0252 14.614 19.4152 13.558 18.4992 13.024C17.7462 12.585 16.8202 12.528 15.9992 12.978Z" fill="#D82848"/>
</svg>
