<svg width="22" height="18" viewBox="0 0 22 18" fill="none" xmlns="http://www.w3.org/2000/svg">
<path d="M17.3889 0.5C17.9488 0.5 18.4858 0.723883 18.8817 1.1224C19.2776 1.52091 19.5 2.06141 19.5 2.625V3.6875H13.1667C11.7669 3.6875 10.4245 4.24721 9.43471 5.24349C8.44494 6.23978 7.88889 7.59104 7.88889 9C7.88889 10.409 8.44494 11.7602 9.43471 12.7565C10.4245 13.7528 11.7669 14.3125 13.1667 14.3125H19.5V15.375C19.5 15.9386 19.2776 16.4791 18.8817 16.8776C18.4858 17.2761 17.9488 17.5 17.3889 17.5H2.61111C2.05121 17.5 1.51424 17.2761 1.11833 16.8776C0.72242 16.4791 0.5 15.9386 0.5 15.375V2.625C0.5 2.06141 0.72242 1.52091 1.11833 1.1224C1.51424 0.723883 2.05121 0.5 2.61111 0.5H17.3889Z" fill="#0060AA"/>
<path fill-rule="evenodd" clip-rule="evenodd" d="M19.3 5.69995C19.8835 5.69995 20.4431 5.93174 20.8556 6.34432C21.2682 6.7569 21.5 7.31647 21.5 7.89995V10.1C21.5 10.6834 21.2682 11.243 20.8556 11.6556C20.4431 12.0682 19.8835 12.3 19.3 12.3H13.8C12.9248 12.3 12.0854 11.9523 11.4665 11.3334C10.8477 10.7145 10.5 9.87517 10.5 8.99995C10.5 8.12474 10.8477 7.28537 11.4665 6.6665C12.0854 6.04763 12.9248 5.69995 13.8 5.69995H19.3ZM13.0222 8.22213C13.2285 8.01584 13.5083 7.89995 13.8 7.89995C14.0917 7.89995 14.3715 8.01584 14.5778 8.22213C14.7841 8.42842 14.9 8.70821 14.9 8.99995C14.9 9.29169 14.7841 9.57148 14.5778 9.77777C14.3715 9.98406 14.0917 10.1 13.8 10.1C13.5083 10.1 13.2285 9.98406 13.0222 9.77777C12.8159 9.57148 12.7 9.29169 12.7 8.99995C12.7 8.70821 12.8159 8.42842 13.0222 8.22213Z" fill="#EF4665"/>
</svg>
