<svg width="20" height="19" viewBox="0 0 20 19" fill="none" xmlns="http://www.w3.org/2000/svg">
<path d="M18.1659 0.426281C19.2779 1.06642 20.0319 2.34472 19.9989 3.80677C19.9559 5.69261 18.4779 7.22875 16.3149 8.49816C15.9129 8.73327 15.4839 9 14.9999 9C14.5159 9 14.0869 8.73327 13.6849 8.49816C11.5219 7.22875 10.0439 5.69261 10.0009 3.80677C9.96792 2.34472 10.7219 1.06642 11.8339 0.426281C12.7879 -0.122975 13.9699 -0.173356 14.9999 0.462832C16.0309 -0.173356 17.2119 -0.122975 18.1659 0.426281Z" fill="#EF4665"/>
<path fill-rule="evenodd" clip-rule="evenodd" d="M6.389 9.60294L4.399 10.835C4.02547 10.4721 3.52304 10.2692 3 10.27H2C1.46957 10.27 0.960859 10.4789 0.585786 10.8507C0.210714 11.2224 0 11.7267 0 12.2524V16.2173C0 16.7431 0.210714 17.2473 0.585786 17.6191C0.960859 17.9909 1.46957 18.1997 2 18.1997H3C3.35106 18.1997 3.69594 18.1081 3.99997 17.9341C4.304 17.7601 4.55647 17.5099 4.732 17.2085H5.528C5.68313 17.2084 5.83616 17.244 5.975 17.3126L8.325 18.4773C9.31968 18.97 10.4517 19.1199 11.542 18.9035L14.752 18.2681C15.1909 18.1812 15.6044 17.9976 15.962 17.7309L19.033 15.4481C19.3331 15.225 19.5768 14.9358 19.7446 14.6032C19.9124 14.2707 19.9999 13.904 20 13.5321V13.4766C20 11.7222 18.137 10.5803 16.553 11.3653C15.863 11.7073 15.226 12.2326 14.585 12.6569C14.955 11.5536 14.366 10.3295 13.195 10.0401L9.479 9.11824C8.95751 8.98909 8.41512 8.96546 7.88421 9.04873C7.3533 9.13201 6.84477 9.3205 6.389 9.60294Z" fill="#0060AA"/>
</svg>
