<svg width="36" height="36" viewBox="0 0 36 36" fill="none" xmlns="http://www.w3.org/2000/svg">
<path fill-rule="evenodd" clip-rule="evenodd" d="M25.1355 10.6026C25.3568 10.5118 25.5991 10.4804 25.837 10.5119C26.0749 10.5433 26.2999 10.6364 26.4884 10.7814C26.677 10.9265 26.8222 11.1182 26.9091 11.3365C26.9959 11.5549 27.0212 11.792 26.9822 12.0231L24.951 24.0415C24.754 25.2008 23.45 25.8656 22.3601 25.2881C21.4484 24.805 20.0943 24.0607 18.8763 23.2841C18.2673 22.8953 16.4018 21.6504 16.6311 20.7645C16.8281 20.0071 19.9627 17.1609 21.7538 15.4687C22.4568 14.8038 22.1362 14.4203 21.306 15.0319C19.2444 16.5502 15.9344 18.8592 14.84 19.5092C13.8745 20.0823 13.3712 20.1801 12.7694 20.0823C11.6714 19.904 10.6531 19.628 9.82204 19.2916C8.69899 18.8373 8.75362 17.3312 9.82114 16.8927L25.1355 10.6026Z" fill="#0060AA"/>
</svg>
