<svg width="36" height="36" viewBox="0 0 36 36" fill="none" xmlns="http://www.w3.org/2000/svg">
<path d="M26.2767 23.4991H24.3058C23.5605 23.4991 23.3359 22.8781 21.9998 21.5028C20.8322 20.3452 20.339 20.2013 20.0437 20.2013C19.6351 20.2013 19.5237 20.3167 19.5237 20.8951V22.7182C19.5237 23.2113 19.3683 23.5 18.116 23.5C16.901 23.416 15.7229 23.0364 14.6786 22.3923C13.6342 21.7482 12.7536 20.858 12.1092 19.7952C10.5791 17.8363 9.51449 15.5371 9 13.0805C9 12.7766 9.11228 12.5012 9.67538 12.5012H11.6445C12.1506 12.5012 12.3329 12.7331 12.5315 13.2688C13.4876 16.1633 15.119 18.6811 15.7815 18.6811C16.0354 18.6811 16.1459 18.5656 16.1459 17.9144V14.9328C16.0622 13.5727 15.36 13.458 15.36 12.9659C15.3689 12.836 15.4266 12.7148 15.521 12.6281C15.6153 12.5413 15.7388 12.4958 15.8653 12.5012H18.9606C19.3838 12.5012 19.5237 12.718 19.5237 13.2386V17.2632C19.5237 17.6976 19.7051 17.8416 19.8329 17.8416C20.0868 17.8416 20.282 17.6976 20.7475 17.2197C21.7454 15.9679 22.5606 14.5732 23.1675 13.0796C23.2296 12.9002 23.3471 12.7467 23.5019 12.6425C23.6568 12.5382 23.8405 12.4889 24.0251 12.5021H25.9951C26.5859 12.5021 26.7111 12.8059 26.5859 13.2395C25.8694 14.8906 24.9828 16.4578 23.9414 17.9144C23.7289 18.2476 23.6443 18.4208 23.9414 18.8117C24.1365 19.1156 24.8275 19.7091 25.2913 20.2732C25.9667 20.9662 26.5272 21.7676 26.9512 22.6453C27.1205 23.2104 26.8389 23.4991 26.2767 23.4991Z" fill="#0060AA"/>
</svg>
