<svg width="364" height="156" viewBox="0 0 364 156" fill="none" xmlns="http://www.w3.org/2000/svg">
<path d="M5.91683 14.2439C2.64924 14.2439 0 16.8813 0 20.1347C0 23.388 2.64924 26.0254 5.91683 26.0254H13.2914V33.3668C13.2914 36.6198 15.9407 39.2576 19.2083 39.2576C22.4762 39.2576 25.0695 36.6202 25.0695 33.3668V26.0559L13.2605 14.2439H5.91683Z" fill="white" fill-opacity="0.03"/>
<path d="M13.9584 5.89069C13.9584 2.63772 16.5208 0 19.7887 0C23.056 0 25.7056 2.63738 25.7056 5.89069V13.232H33.0802C36.3474 13.232 38.997 15.8697 38.997 19.1226C38.997 22.376 36.3478 25.0137 33.0802 25.0137H25.823L13.9584 13.2017V5.89069Z" fill="white" fill-opacity="0.07"/>
<path d="M49.5033 14.2439C46.2357 14.2439 43.5864 16.8813 43.5864 20.1347C43.5864 23.388 46.2357 26.0254 49.5033 26.0254H56.8779V33.3668C56.8779 36.6198 59.5271 39.2576 62.7947 39.2576C66.0626 39.2576 68.6559 36.6202 68.6559 33.3668V26.0559L56.8469 14.2439H49.5033Z" fill="white" fill-opacity="0.03"/>
<path d="M57.5448 5.89069C57.5448 2.63772 60.1072 0 63.3752 0C66.6424 0 69.292 2.63738 69.292 5.89069V13.232H76.6666C79.9339 13.232 82.5834 15.8697 82.5834 19.1226C82.5834 22.376 79.9342 25.0137 76.6666 25.0137H69.4094L57.5448 13.2017V5.89069Z" fill="white" fill-opacity="0.07"/>
<path d="M93.0897 14.2439C89.8221 14.2439 87.1729 16.8813 87.1729 20.1347C87.1729 23.388 89.8221 26.0254 93.0897 26.0254H100.464V33.3668C100.464 36.6198 103.114 39.2576 106.381 39.2576C109.649 39.2576 112.242 36.6202 112.242 33.3668V26.0559L100.433 14.2439H93.0897Z" fill="white" fill-opacity="0.03"/>
<path d="M101.131 5.89069C101.131 2.63772 103.694 0 106.962 0C110.229 0 112.878 2.63738 112.878 5.89069V13.232H120.253C123.52 13.232 126.17 15.8697 126.17 19.1226C126.17 22.376 123.521 25.0137 120.253 25.0137H112.996L101.131 13.2017V5.89069Z" fill="white" fill-opacity="0.07"/>
<path d="M136.676 14.2439C133.408 14.2439 130.759 16.8813 130.759 20.1347C130.759 23.388 133.408 26.0254 136.676 26.0254H144.051V33.3668C144.051 36.6198 146.7 39.2576 149.967 39.2576C153.235 39.2576 155.829 36.6202 155.829 33.3668V26.0559L144.02 14.2439H136.676Z" fill="white" fill-opacity="0.03"/>
<path d="M144.718 5.89069C144.718 2.63772 147.28 0 150.548 0C153.815 0 156.465 2.63738 156.465 5.89069V13.232H163.839C167.107 13.232 169.756 15.8697 169.756 19.1226C169.756 22.376 167.107 25.0137 163.839 25.0137H156.582L144.718 13.2017V5.89069Z" fill="white" fill-opacity="0.07"/>
<path d="M180.262 14.2439C176.995 14.2439 174.346 16.8813 174.346 20.1347C174.346 23.388 176.995 26.0254 180.262 26.0254H187.637V33.3668C187.637 36.6198 190.286 39.2576 193.554 39.2576C196.822 39.2576 199.415 36.6202 199.415 33.3668V26.0559L187.606 14.2439H180.262Z" fill="white" fill-opacity="0.03"/>
<path d="M188.304 5.89069C188.304 2.63772 190.866 0 194.134 0C197.402 0 200.051 2.63738 200.051 5.89069V13.232H207.426C210.693 13.232 213.343 15.8697 213.343 19.1226C213.343 22.376 210.693 25.0137 207.426 25.0137H200.169L188.304 13.2017V5.89069Z" fill="white" fill-opacity="0.07"/>
<path d="M223.849 14.2439C220.581 14.2439 217.932 16.8813 217.932 20.1347C217.932 23.388 220.581 26.0254 223.849 26.0254H231.223V33.3668C231.223 36.6198 233.873 39.2576 237.14 39.2576C240.408 39.2576 243.002 36.6202 243.002 33.3668V26.0559L231.192 14.2439H223.849Z" fill="white" fill-opacity="0.03"/>
<path d="M231.89 5.89069C231.89 2.63772 234.453 0 237.721 0C240.988 0 243.638 2.63738 243.638 5.89069V13.232H251.012C254.279 13.232 256.929 15.8697 256.929 19.1226C256.929 22.376 254.28 25.0137 251.012 25.0137H243.755L231.89 13.2017V5.89069Z" fill="white" fill-opacity="0.07"/>
<path d="M267.435 14.2439C264.168 14.2439 261.518 16.8813 261.518 20.1347C261.518 23.388 264.168 26.0254 267.435 26.0254H274.81V33.3668C274.81 36.6198 277.459 39.2576 280.727 39.2576C283.995 39.2576 286.588 36.6202 286.588 33.3668V26.0559L274.779 14.2439H267.435Z" fill="white" fill-opacity="0.03"/>
<path d="M275.477 5.89069C275.477 2.63772 278.039 0 281.307 0C284.574 0 287.224 2.63738 287.224 5.89069V13.232H294.599C297.866 13.232 300.515 15.8697 300.515 19.1226C300.515 22.376 297.866 25.0137 294.599 25.0137H287.341L275.477 13.2017V5.89069Z" fill="white" fill-opacity="0.07"/>
<path d="M311.022 14.2439C307.754 14.2439 305.105 16.8813 305.105 20.1347C305.105 23.388 307.754 26.0254 311.022 26.0254H318.396V33.3668C318.396 36.6198 321.046 39.2576 324.313 39.2576C327.581 39.2576 330.174 36.6202 330.174 33.3668V26.0559L318.365 14.2439H311.022Z" fill="white" fill-opacity="0.03"/>
<path d="M319.063 5.89069C319.063 2.63772 321.626 0 324.894 0C328.161 0 330.81 2.63738 330.81 5.89069V13.232H338.185C341.452 13.232 344.102 15.8697 344.102 19.1226C344.102 22.376 341.453 25.0137 338.185 25.0137H330.928L319.063 13.2017V5.89069Z" fill="white" fill-opacity="0.07"/>
<path d="M25.815 53.1579C22.5474 53.1579 19.8981 55.7954 19.8981 59.0487C19.8981 62.3021 22.5474 64.9395 25.815 64.9395H33.1896V72.2808C33.1896 75.5339 35.8388 78.1716 39.1064 78.1716C42.3743 78.1716 44.9676 75.5342 44.9676 72.2809V64.97L33.1586 53.1579H25.815Z" fill="white" fill-opacity="0.03"/>
<path d="M33.8565 44.8048C33.8565 41.5518 36.4189 38.9141 39.6869 38.9141C42.9541 38.9141 45.6037 41.5514 45.6037 44.8048V52.146H52.9783C56.2456 52.146 58.8952 54.7837 58.8952 58.0367C58.8952 61.29 56.2459 63.9277 52.9783 63.9277H45.7211L33.8565 52.1157V44.8048Z" fill="white" fill-opacity="0.07"/>
<path d="M69.4014 53.1579C66.1338 53.1579 63.4845 55.7954 63.4845 59.0487C63.4845 62.3021 66.1338 64.9395 69.4014 64.9395H76.776V72.2808C76.776 75.5339 79.4252 78.1716 82.6928 78.1716C85.9607 78.1716 88.554 75.5342 88.554 72.2809V64.97L76.745 53.1579H69.4014Z" fill="white" fill-opacity="0.03"/>
<path d="M77.4429 44.8048C77.4429 41.5518 80.0053 38.9141 83.2733 38.9141C86.5405 38.9141 89.1901 41.5514 89.1901 44.8048V52.146H96.5647C99.832 52.146 102.482 54.7837 102.482 58.0367C102.482 61.29 99.8323 63.9277 96.5647 63.9277H89.3075L77.4429 52.1157V44.8048Z" fill="white" fill-opacity="0.07"/>
<path d="M112.988 53.1579C109.72 53.1579 107.071 55.7954 107.071 59.0487C107.071 62.3021 109.72 64.9395 112.988 64.9395H120.362V72.2808C120.362 75.5339 123.012 78.1716 126.279 78.1716C129.547 78.1716 132.14 75.5342 132.14 72.2809V64.97L120.331 53.1579H112.988Z" fill="white" fill-opacity="0.03"/>
<path d="M121.029 44.8048C121.029 41.5518 123.592 38.9141 126.86 38.9141C130.127 38.9141 132.776 41.5514 132.776 44.8048V52.146H140.151C143.418 52.146 146.068 54.7837 146.068 58.0367C146.068 61.29 143.419 63.9277 140.151 63.9277H132.894L121.029 52.1157V44.8048Z" fill="white" fill-opacity="0.07"/>
<path d="M156.574 53.1579C153.307 53.1579 150.657 55.7954 150.657 59.0487C150.657 62.3021 153.307 64.9395 156.574 64.9395H163.949V72.2808C163.949 75.5339 166.598 78.1716 169.866 78.1716C173.134 78.1716 175.727 75.5342 175.727 72.2809V64.97L163.918 53.1579H156.574Z" fill="white" fill-opacity="0.03"/>
<path d="M164.616 44.8048C164.616 41.5518 167.178 38.9141 170.446 38.9141C173.713 38.9141 176.363 41.5514 176.363 44.8048V52.146H183.738C187.005 52.146 189.654 54.7837 189.654 58.0367C189.654 61.29 187.005 63.9277 183.738 63.9277H176.48L164.616 52.1157V44.8048Z" fill="white" fill-opacity="0.07"/>
<path d="M200.161 53.1579C196.893 53.1579 194.244 55.7954 194.244 59.0487C194.244 62.3021 196.893 64.9395 200.161 64.9395H207.535V72.2808C207.535 75.5339 210.184 78.1716 213.452 78.1716C216.72 78.1716 219.313 75.5342 219.313 72.2809V64.97L207.504 53.1579H200.161Z" fill="white" fill-opacity="0.03"/>
<path d="M208.202 44.8048C208.202 41.5518 210.765 38.9141 214.032 38.9141C217.3 38.9141 219.949 41.5514 219.949 44.8048V52.146H227.324C230.591 52.146 233.241 54.7837 233.241 58.0367C233.241 61.29 230.592 63.9277 227.324 63.9277H220.067L208.202 52.1157V44.8048Z" fill="white" fill-opacity="0.07"/>
<path d="M243.747 53.1579C240.479 53.1579 237.83 55.7954 237.83 59.0487C237.83 62.3021 240.479 64.9395 243.747 64.9395H251.122V72.2808C251.122 75.5339 253.771 78.1716 257.038 78.1716C260.306 78.1716 262.9 75.5342 262.9 72.2809V64.97L251.091 53.1579H243.747Z" fill="white" fill-opacity="0.03"/>
<path d="M251.789 44.8048C251.789 41.5518 254.351 38.9141 257.619 38.9141C260.886 38.9141 263.536 41.5514 263.536 44.8048V52.146H270.91C274.178 52.146 276.827 54.7837 276.827 58.0367C276.827 61.29 274.178 63.9277 270.91 63.9277H263.653L251.789 52.1157V44.8048Z" fill="white" fill-opacity="0.07"/>
<path d="M287.333 53.1579C284.066 53.1579 281.417 55.7954 281.417 59.0487C281.417 62.3021 284.066 64.9395 287.333 64.9395H294.708V72.2808C294.708 75.5339 297.357 78.1716 300.625 78.1716C303.893 78.1716 306.486 75.5342 306.486 72.2809V64.97L294.677 53.1579H287.333Z" fill="white" fill-opacity="0.03"/>
<path d="M295.375 44.8048C295.375 41.5518 297.937 38.9141 301.205 38.9141C304.473 38.9141 307.122 41.5514 307.122 44.8048V52.146H314.497C317.764 52.146 320.414 54.7837 320.414 58.0367C320.414 61.29 317.764 63.9277 314.497 63.9277H307.24L295.375 52.1157V44.8048Z" fill="white" fill-opacity="0.07"/>
<path d="M330.92 53.1579C327.652 53.1579 325.003 55.7954 325.003 59.0487C325.003 62.3021 327.652 64.9395 330.92 64.9395H338.294V72.2808C338.294 75.5339 340.944 78.1716 344.211 78.1716C347.479 78.1716 350.072 75.5342 350.072 72.2809V64.97L338.263 53.1579H330.92Z" fill="white" fill-opacity="0.03"/>
<path d="M338.961 44.8048C338.961 41.5518 341.524 38.9141 344.792 38.9141C348.059 38.9141 350.708 41.5514 350.708 44.8048V52.146H358.083C361.35 52.146 364 54.7837 364 58.0367C364 61.29 361.351 63.9277 358.083 63.9277H350.826L338.961 52.1157V44.8048Z" fill="white" fill-opacity="0.07"/>
<path d="M5.91683 92.0725C2.64924 92.0725 0 94.7099 0 97.9633C0 101.217 2.64924 103.854 5.91683 103.854H13.2914V111.195C13.2914 114.448 15.9407 117.086 19.2083 117.086C22.4762 117.086 25.0695 114.449 25.0695 111.195V103.885L13.2605 92.0725H5.91683Z" fill="white" fill-opacity="0.03"/>
<path d="M13.9584 83.7193C13.9584 80.4663 16.5208 77.8286 19.7887 77.8286C23.056 77.8286 25.7056 80.466 25.7056 83.7193V91.0606H33.0802C36.3474 91.0606 38.997 93.6983 38.997 96.9513C38.997 100.205 36.3478 102.842 33.0802 102.842H25.823L13.9584 91.0303V83.7193Z" fill="white" fill-opacity="0.07"/>
<path d="M49.5033 92.0725C46.2357 92.0725 43.5864 94.7099 43.5864 97.9633C43.5864 101.217 46.2357 103.854 49.5033 103.854H56.8779V111.195C56.8779 114.448 59.5271 117.086 62.7947 117.086C66.0626 117.086 68.6559 114.449 68.6559 111.195V103.885L56.8469 92.0725H49.5033Z" fill="white" fill-opacity="0.03"/>
<path d="M57.5448 83.7193C57.5448 80.4663 60.1072 77.8286 63.3752 77.8286C66.6424 77.8286 69.292 80.466 69.292 83.7193V91.0606H76.6666C79.9339 91.0606 82.5834 93.6983 82.5834 96.9513C82.5834 100.205 79.9342 102.842 76.6666 102.842H69.4094L57.5448 91.0303V83.7193Z" fill="white" fill-opacity="0.07"/>
<path d="M93.0897 92.0725C89.8221 92.0725 87.1729 94.7099 87.1729 97.9633C87.1729 101.217 89.8221 103.854 93.0897 103.854H100.464V111.195C100.464 114.448 103.114 117.086 106.381 117.086C109.649 117.086 112.242 114.449 112.242 111.195V103.885L100.433 92.0725H93.0897Z" fill="white" fill-opacity="0.03"/>
<path d="M101.131 83.7193C101.131 80.4663 103.694 77.8286 106.962 77.8286C110.229 77.8286 112.878 80.466 112.878 83.7193V91.0606H120.253C123.52 91.0606 126.17 93.6983 126.17 96.9513C126.17 100.205 123.521 102.842 120.253 102.842H112.996L101.131 91.0303V83.7193Z" fill="white" fill-opacity="0.07"/>
<path d="M136.676 92.0725C133.408 92.0725 130.759 94.7099 130.759 97.9633C130.759 101.217 133.408 103.854 136.676 103.854H144.051V111.195C144.051 114.448 146.7 117.086 149.967 117.086C153.235 117.086 155.829 114.449 155.829 111.195V103.885L144.02 92.0725H136.676Z" fill="white" fill-opacity="0.03"/>
<path d="M144.718 83.7193C144.718 80.4663 147.28 77.8286 150.548 77.8286C153.815 77.8286 156.465 80.466 156.465 83.7193V91.0606H163.839C167.107 91.0606 169.756 93.6983 169.756 96.9513C169.756 100.205 167.107 102.842 163.839 102.842H156.582L144.718 91.0303V83.7193Z" fill="white" fill-opacity="0.07"/>
<path d="M180.262 92.0725C176.995 92.0725 174.346 94.7099 174.346 97.9633C174.346 101.217 176.995 103.854 180.262 103.854H187.637V111.195C187.637 114.448 190.286 117.086 193.554 117.086C196.822 117.086 199.415 114.449 199.415 111.195V103.885L187.606 92.0725H180.262Z" fill="white" fill-opacity="0.03"/>
<path d="M188.304 83.7193C188.304 80.4663 190.866 77.8286 194.134 77.8286C197.402 77.8286 200.051 80.466 200.051 83.7193V91.0606H207.426C210.693 91.0606 213.343 93.6983 213.343 96.9513C213.343 100.205 210.693 102.842 207.426 102.842H200.169L188.304 91.0303V83.7193Z" fill="white" fill-opacity="0.07"/>
<path d="M223.849 92.0725C220.581 92.0725 217.932 94.7099 217.932 97.9633C217.932 101.217 220.581 103.854 223.849 103.854H231.223V111.195C231.223 114.448 233.873 117.086 237.14 117.086C240.408 117.086 243.002 114.449 243.002 111.195V103.885L231.192 92.0725H223.849Z" fill="white" fill-opacity="0.03"/>
<path d="M231.89 83.7193C231.89 80.4663 234.453 77.8286 237.721 77.8286C240.988 77.8286 243.638 80.466 243.638 83.7193V91.0606H251.012C254.279 91.0606 256.929 93.6983 256.929 96.9513C256.929 100.205 254.28 102.842 251.012 102.842H243.755L231.89 91.0303V83.7193Z" fill="white" fill-opacity="0.07"/>
<path d="M267.435 92.0725C264.168 92.0725 261.518 94.7099 261.518 97.9633C261.518 101.217 264.168 103.854 267.435 103.854H274.81V111.195C274.81 114.448 277.459 117.086 280.727 117.086C283.995 117.086 286.588 114.449 286.588 111.195V103.885L274.779 92.0725H267.435Z" fill="white" fill-opacity="0.03"/>
<path d="M275.477 83.7193C275.477 80.4663 278.039 77.8286 281.307 77.8286C284.574 77.8286 287.224 80.466 287.224 83.7193V91.0606H294.599C297.866 91.0606 300.515 93.6983 300.515 96.9513C300.515 100.205 297.866 102.842 294.599 102.842H287.341L275.477 91.0303V83.7193Z" fill="white" fill-opacity="0.07"/>
<path d="M311.022 92.0725C307.754 92.0725 305.105 94.7099 305.105 97.9633C305.105 101.217 307.754 103.854 311.022 103.854H318.396V111.195C318.396 114.448 321.046 117.086 324.313 117.086C327.581 117.086 330.174 114.449 330.174 111.195V103.885L318.365 92.0725H311.022Z" fill="white" fill-opacity="0.03"/>
<path d="M319.063 83.7193C319.063 80.4663 321.626 77.8286 324.894 77.8286C328.161 77.8286 330.81 80.466 330.81 83.7193V91.0606H338.185C341.452 91.0606 344.102 93.6983 344.102 96.9513C344.102 100.205 341.453 102.842 338.185 102.842H330.928L319.063 91.0303V83.7193Z" fill="white" fill-opacity="0.07"/>
<path d="M25.815 130.987C22.5474 130.987 19.8981 133.624 19.8981 136.877C19.8981 140.131 22.5474 142.768 25.815 142.768H33.1896V150.109C33.1896 153.362 35.8388 156 39.1064 156C42.3743 156 44.9676 153.363 44.9676 150.109V142.799L33.1586 130.987H25.815Z" fill="white" fill-opacity="0.03"/>
<path d="M33.8565 122.633C33.8565 119.38 36.4189 116.743 39.6869 116.743C42.9541 116.743 45.6037 119.38 45.6037 122.633V129.975H52.9783C56.2456 129.975 58.8952 132.612 58.8952 135.865C58.8952 139.119 56.2459 141.756 52.9783 141.756H45.7211L33.8565 129.944V122.633Z" fill="white" fill-opacity="0.07"/>
<path d="M69.4014 130.987C66.1338 130.987 63.4845 133.624 63.4845 136.877C63.4845 140.131 66.1338 142.768 69.4014 142.768H76.776V150.109C76.776 153.362 79.4252 156 82.6928 156C85.9607 156 88.554 153.363 88.554 150.109V142.799L76.745 130.987H69.4014Z" fill="white" fill-opacity="0.03"/>
<path d="M77.4429 122.633C77.4429 119.38 80.0053 116.743 83.2733 116.743C86.5405 116.743 89.1901 119.38 89.1901 122.633V129.975H96.5647C99.832 129.975 102.482 132.612 102.482 135.865C102.482 139.119 99.8323 141.756 96.5647 141.756H89.3075L77.4429 129.944V122.633Z" fill="white" fill-opacity="0.07"/>
<path d="M112.988 130.987C109.72 130.987 107.071 133.624 107.071 136.877C107.071 140.131 109.72 142.768 112.988 142.768H120.362V150.109C120.362 153.362 123.012 156 126.279 156C129.547 156 132.14 153.363 132.14 150.109V142.799L120.331 130.987H112.988Z" fill="white" fill-opacity="0.03"/>
<path d="M121.029 122.633C121.029 119.38 123.592 116.743 126.86 116.743C130.127 116.743 132.776 119.38 132.776 122.633V129.975H140.151C143.418 129.975 146.068 132.612 146.068 135.865C146.068 139.119 143.419 141.756 140.151 141.756H132.894L121.029 129.944V122.633Z" fill="white" fill-opacity="0.07"/>
<path d="M156.574 130.987C153.307 130.987 150.657 133.624 150.657 136.877C150.657 140.131 153.307 142.768 156.574 142.768H163.949V150.109C163.949 153.362 166.598 156 169.866 156C173.134 156 175.727 153.363 175.727 150.109V142.799L163.918 130.987H156.574Z" fill="white" fill-opacity="0.03"/>
<path d="M164.616 122.633C164.616 119.38 167.178 116.743 170.446 116.743C173.713 116.743 176.363 119.38 176.363 122.633V129.975H183.738C187.005 129.975 189.654 132.612 189.654 135.865C189.654 139.119 187.005 141.756 183.738 141.756H176.48L164.616 129.944V122.633Z" fill="white" fill-opacity="0.07"/>
<path d="M200.161 130.987C196.893 130.987 194.244 133.624 194.244 136.877C194.244 140.131 196.893 142.768 200.161 142.768H207.535V150.109C207.535 153.362 210.184 156 213.452 156C216.72 156 219.313 153.363 219.313 150.109V142.799L207.504 130.987H200.161Z" fill="white" fill-opacity="0.03"/>
<path d="M208.202 122.633C208.202 119.38 210.765 116.743 214.032 116.743C217.3 116.743 219.949 119.38 219.949 122.633V129.975H227.324C230.591 129.975 233.241 132.612 233.241 135.865C233.241 139.119 230.592 141.756 227.324 141.756H220.067L208.202 129.944V122.633Z" fill="white" fill-opacity="0.07"/>
<path d="M243.747 130.987C240.479 130.987 237.83 133.624 237.83 136.877C237.83 140.131 240.479 142.768 243.747 142.768H251.122V150.109C251.122 153.362 253.771 156 257.038 156C260.306 156 262.9 153.363 262.9 150.109V142.799L251.091 130.987H243.747Z" fill="white" fill-opacity="0.03"/>
<path d="M251.789 122.633C251.789 119.38 254.351 116.743 257.619 116.743C260.886 116.743 263.536 119.38 263.536 122.633V129.975H270.91C274.178 129.975 276.827 132.612 276.827 135.865C276.827 139.119 274.178 141.756 270.91 141.756H263.653L251.789 129.944V122.633Z" fill="white" fill-opacity="0.07"/>
<path d="M287.333 130.987C284.066 130.987 281.417 133.624 281.417 136.877C281.417 140.131 284.066 142.768 287.333 142.768H294.708V150.109C294.708 153.362 297.357 156 300.625 156C303.893 156 306.486 153.363 306.486 150.109V142.799L294.677 130.987H287.333Z" fill="white" fill-opacity="0.03"/>
<path d="M295.375 122.633C295.375 119.38 297.937 116.743 301.205 116.743C304.473 116.743 307.122 119.38 307.122 122.633V129.975H314.497C317.764 129.975 320.414 132.612 320.414 135.865C320.414 139.119 317.764 141.756 314.497 141.756H307.24L295.375 129.944V122.633Z" fill="white" fill-opacity="0.07"/>
<path d="M330.92 130.987C327.652 130.987 325.003 133.624 325.003 136.877C325.003 140.131 327.652 142.768 330.92 142.768H338.294V150.109C338.294 153.362 340.944 156 344.211 156C347.479 156 350.072 153.363 350.072 150.109V142.799L338.263 130.987H330.92Z" fill="white" fill-opacity="0.03"/>
<path d="M338.961 122.633C338.961 119.38 341.524 116.743 344.792 116.743C348.059 116.743 350.708 119.38 350.708 122.633V129.975H358.083C361.35 129.975 364 132.612 364 135.865C364 139.119 361.351 141.756 358.083 141.756H350.826L338.961 129.944V122.633Z" fill="white" fill-opacity="0.07"/>
</svg>
