<svg width="250" height="50" viewBox="0 0 250 50" fill="none" xmlns="http://www.w3.org/2000/svg">
<path d="M6.24447 15.0073C2.79594 15.0073 0 17.7861 0 21.2138C0 24.6415 2.79594 27.4203 6.24447 27.4203H14.0275V35.1551C14.0275 38.5825 16.8234 41.3616 20.2719 41.3616C23.7208 41.3616 26.4577 38.5829 26.4577 35.1551V27.4524L13.9948 15.0073H6.24447Z" fill="#0060AA"/>
<path d="M14.7313 6.20641C14.7313 2.7791 17.4356 0 20.8845 0C24.3327 0 27.129 2.77873 27.129 6.20641V13.9411H34.912C38.3602 13.9411 41.1565 16.7202 41.1565 20.1475C41.1565 23.5752 38.3605 26.3543 34.912 26.3543H27.2529L14.7313 13.9092V6.20641Z" fill="#EF4665"/>
<path d="M48.4221 23.7921V16.6179H49.2349V19.8053H53.3917V16.6179H54.2045V23.7921H53.3917V20.5637H49.2349V23.7921H48.4221Z" fill="#093654" fill-opacity="0.6"/>
<path d="M57.6901 23.9048C57.1551 23.9048 56.6887 23.7613 56.2908 23.4744C55.8998 23.1806 55.7043 22.774 55.7043 22.2548V22.2343C55.7043 21.6945 55.9101 21.2743 56.3217 20.9736C56.7401 20.673 57.2923 20.5227 57.9782 20.5227C58.5201 20.5227 59.0655 20.5979 59.6142 20.7482V20.5637C59.6142 20.0922 59.477 19.7335 59.2026 19.4876C58.9283 19.2416 58.5373 19.1186 58.0297 19.1186C57.4947 19.1186 56.9562 19.2484 56.4143 19.5081L56.1776 18.8624C56.8019 18.5686 57.4466 18.4217 58.112 18.4217C58.8665 18.4217 59.4393 18.6164 59.8303 19.0059C60.1938 19.368 60.3756 19.8838 60.3756 20.5534V23.7921H59.6142V22.9927C59.1478 23.6008 58.5064 23.9048 57.6901 23.9048ZM57.8445 23.2796C58.3452 23.2796 58.7671 23.1464 59.11 22.8799C59.453 22.6066 59.6245 22.2616 59.6245 21.8448V21.3324C59.0895 21.182 58.5682 21.1069 58.0606 21.1069C57.5667 21.1069 57.1826 21.206 56.9082 21.4041C56.6407 21.6022 56.5069 21.8687 56.5069 22.2035V22.224C56.5069 22.5451 56.6372 22.8014 56.8979 22.9927C57.1585 23.184 57.4741 23.2796 57.8445 23.2796Z" fill="#093654" fill-opacity="0.6"/>
<path d="M62.0641 25.4319V18.4934H62.8563V19.5593C63.4119 18.7735 64.091 18.3807 64.8936 18.3807C65.5727 18.3807 66.166 18.6301 66.6736 19.1288C67.1812 19.6276 67.435 20.2938 67.435 21.1274V21.1479C67.435 21.9746 67.1812 22.6408 66.6736 23.1464C66.166 23.652 65.5727 23.9048 64.8936 23.9048C64.0499 23.9048 63.3708 23.529 62.8563 22.7775V25.4319H62.0641ZM64.7495 23.1977C65.2846 23.1977 65.7304 23.0132 66.0871 22.6442C66.4438 22.2753 66.6221 21.7799 66.6221 21.1581V21.1376C66.6221 20.5227 66.4404 20.0273 66.0768 19.6515C65.7201 19.2757 65.2777 19.0878 64.7495 19.0878C64.2419 19.0878 63.7926 19.2826 63.4017 19.672C63.0175 20.0615 62.8255 20.5466 62.8255 21.1274V21.1479C62.8255 21.7423 63.0175 22.2343 63.4017 22.6237C63.7858 23.0063 64.2351 23.1977 64.7495 23.1977Z" fill="#093654" fill-opacity="0.6"/>
<path d="M69.6889 18.4934V20.7687H70.6561L72.6419 18.4934H73.6297L71.2941 21.0864L73.6914 23.7921H72.7037L70.6767 21.4656H69.6889V23.7921H68.8967V18.4934H69.6889Z" fill="#093654" fill-opacity="0.6"/>
<path d="M76.9518 23.9151C76.163 23.9151 75.5044 23.6486 74.9763 23.1157C74.455 22.5759 74.1943 21.9268 74.1943 21.1684V21.1479C74.1943 20.3826 74.4584 19.7301 74.9866 19.1903C75.5147 18.6506 76.1767 18.3807 76.9724 18.3807C77.7612 18.3807 78.4197 18.6506 78.9479 19.1903C79.476 19.7233 79.7401 20.369 79.7401 21.1274V21.1479C79.7401 21.9131 79.4726 22.5656 78.9376 23.1054C78.4094 23.6452 77.7475 23.9151 76.9518 23.9151ZM76.9724 23.2079C77.5348 23.2079 78.0013 23.0098 78.3717 22.6135C78.7421 22.2172 78.9273 21.7355 78.9273 21.1684V21.1479C78.9273 20.5739 78.7352 20.0854 78.3511 19.6823C77.9738 19.2792 77.5074 19.0776 76.9518 19.0776C76.3893 19.0776 75.9229 19.2792 75.5525 19.6823C75.1889 20.0786 75.0071 20.5603 75.0071 21.1274V21.1479C75.0071 21.7218 75.1958 22.2103 75.573 22.6135C75.9503 23.0098 76.4168 23.2079 76.9724 23.2079Z" fill="#093654" fill-opacity="0.6"/>
<path d="M83.5174 18.4524L85.9354 23.7921H85.0505L83.147 19.4261L81.2333 23.7921H80.3793L82.7869 18.4524H83.5174Z" fill="#093654" fill-opacity="0.6"/>
<path d="M89.3409 23.9151C88.5521 23.9151 87.8936 23.6486 87.3654 23.1157C86.8441 22.5759 86.5834 21.9268 86.5834 21.1684V21.1479C86.5834 20.3826 86.8475 19.7301 87.3757 19.1903C87.9039 18.6506 88.5658 18.3807 89.3615 18.3807C90.1503 18.3807 90.8088 18.6506 91.337 19.1903C91.8652 19.7233 92.1293 20.369 92.1293 21.1274V21.1479C92.1293 21.9131 91.8618 22.5656 91.3267 23.1054C90.7985 23.6452 90.1366 23.9151 89.3409 23.9151ZM89.3615 23.2079C89.924 23.2079 90.3904 23.0098 90.7608 22.6135C91.1312 22.2172 91.3164 21.7355 91.3164 21.1684V21.1479C91.3164 20.5739 91.1244 20.0854 90.7402 19.6823C90.363 19.2792 89.8965 19.0776 89.3409 19.0776C88.7785 19.0776 88.312 19.2792 87.9416 19.6823C87.578 20.0786 87.3963 20.5603 87.3963 21.1274V21.1479C87.3963 21.7218 87.5849 22.2103 87.9622 22.6135C88.3395 23.0098 88.8059 23.2079 89.3615 23.2079Z" fill="#093654" fill-opacity="0.6"/>
<path d="M93.5645 23.7921V18.4934H97.4332V19.2108H94.3567V23.7921H93.5645Z" fill="#093654" fill-opacity="0.6"/>
<path d="M98.6286 23.7921V18.4934H99.4209V22.6032L102.652 18.4934H103.413V23.7921H102.631V19.672L99.3694 23.7921H98.6286Z" fill="#093654" fill-opacity="0.6"/>
<path d="M108.678 23.7921V21.9268C108.115 22.0771 107.608 22.1523 107.155 22.1523C105.715 22.1523 104.994 21.4929 104.994 20.1742V18.4934H105.776V20.1127C105.776 20.5774 105.893 20.9122 106.126 21.1171C106.366 21.3221 106.74 21.4246 107.248 21.4246C107.7 21.4246 108.177 21.3529 108.678 21.2094V18.4934H109.47V23.7921H108.678Z" fill="#093654" fill-opacity="0.6"/>
<path d="M113.564 23.9151C112.823 23.9151 112.196 23.6589 111.681 23.1464C111.167 22.6271 110.91 21.9644 110.91 21.1581V21.1376C110.91 20.3655 111.15 19.713 111.63 19.1801C112.117 18.6471 112.727 18.3807 113.461 18.3807C114.223 18.3807 114.826 18.6471 115.272 19.1801C115.718 19.713 115.941 20.3792 115.941 21.1786C115.941 21.2879 115.938 21.3734 115.931 21.4348H111.712C111.767 21.9951 111.969 22.4358 112.319 22.757C112.676 23.0713 113.098 23.2284 113.585 23.2284C114.216 23.2284 114.775 22.979 115.262 22.4802L115.756 22.9209C115.173 23.5837 114.442 23.9151 113.564 23.9151ZM111.712 20.8507H115.138C115.097 20.3382 114.929 19.9112 114.634 19.5695C114.346 19.2211 113.948 19.0469 113.441 19.0469C112.981 19.0469 112.59 19.2177 112.268 19.5593C111.952 19.9009 111.767 20.3314 111.712 20.8507Z" fill="#093654" fill-opacity="0.6"/>
<path d="M119.725 23.9151C118.95 23.9151 118.302 23.6452 117.781 23.1054C117.259 22.5656 116.999 21.92 116.999 21.1684V21.1479C116.999 20.3826 117.259 19.7301 117.781 19.1903C118.302 18.6506 118.95 18.3807 119.725 18.3807C120.548 18.3807 121.258 18.695 121.855 19.3236L121.33 19.877C120.823 19.3441 120.284 19.0776 119.715 19.0776C119.173 19.0776 118.72 19.2757 118.357 19.672C117.993 20.0683 117.811 20.5534 117.811 21.1274V21.1479C117.811 21.7218 117.997 22.2103 118.367 22.6135C118.744 23.0098 119.211 23.2079 119.766 23.2079C120.356 23.2079 120.898 22.9449 121.392 22.4187L121.896 22.8902C121.293 23.5735 120.569 23.9151 119.725 23.9151Z" fill="#093654" fill-opacity="0.6"/>
<path d="M123.998 18.4934V20.7687H124.965L126.951 18.4934H127.939L125.603 21.0864L128.001 23.7921H127.013L124.986 21.4656H123.998V23.7921H123.206V18.4934H123.998Z" fill="#093654" fill-opacity="0.6"/>
<path d="M130.578 23.9048C130.043 23.9048 129.577 23.7613 129.179 23.4744C128.788 23.1806 128.592 22.774 128.592 22.2548V22.2343C128.592 21.6945 128.798 21.2743 129.21 20.9736C129.628 20.673 130.18 20.5227 130.866 20.5227C131.408 20.5227 131.953 20.5979 132.502 20.7482V20.5637C132.502 20.0922 132.365 19.7335 132.091 19.4876C131.816 19.2416 131.425 19.1186 130.918 19.1186C130.383 19.1186 129.844 19.2484 129.302 19.5081L129.066 18.8624C129.69 18.5686 130.335 18.4217 131 18.4217C131.755 18.4217 132.327 18.6164 132.718 19.0059C133.082 19.368 133.264 19.8838 133.264 20.5534V23.7921H132.502V22.9927C132.036 23.6008 131.394 23.9048 130.578 23.9048ZM130.732 23.2796C131.233 23.2796 131.655 23.1464 131.998 22.8799C132.341 22.6066 132.512 22.2616 132.512 21.8448V21.3324C131.977 21.182 131.456 21.1069 130.949 21.1069C130.455 21.1069 130.071 21.206 129.796 21.4041C129.529 21.6022 129.395 21.8687 129.395 22.2035V22.224C129.395 22.5451 129.525 22.8014 129.786 22.9927C130.047 23.184 130.362 23.2796 130.732 23.2796Z" fill="#093654" fill-opacity="0.6"/>
<path d="M135.528 23.7921H134.582L136.135 21.7526C135.703 21.6569 135.367 21.4724 135.127 21.1991C134.894 20.9258 134.777 20.5842 134.777 20.1742V20.164C134.777 19.6584 134.966 19.2552 135.343 18.9546C135.72 18.6471 136.224 18.4934 136.856 18.4934H139.428V23.7921H138.646V21.8243H137L135.528 23.7921ZM138.646 19.1493H136.866C136.475 19.1493 136.159 19.2416 135.919 19.4261C135.686 19.6105 135.569 19.8565 135.569 20.164V20.1742C135.569 20.4885 135.683 20.7379 135.909 20.9224C136.142 21.1069 136.461 21.1957 136.866 21.1889H138.646V19.1493Z" fill="#093654" fill-opacity="0.6"/>
<path d="M145.089 18.4934V20.7687H146.056L148.042 18.4934H149.03L146.694 21.0864L149.091 23.7921H148.104L146.077 21.4656H145.089V23.7921H144.297V18.4934H145.089Z" fill="#093654" fill-opacity="0.6"/>
<path d="M152.738 18.4524L155.156 23.7921H154.271L152.367 19.4261L150.454 23.7921H149.6L152.007 18.4524H152.738Z" fill="#093654" fill-opacity="0.6"/>
<path d="M156.404 23.7921V18.4934H157.197V22.6032L160.427 18.4934H161.189V23.7921H160.407V19.672L157.145 23.7921H156.404Z" fill="#093654" fill-opacity="0.6"/>
<path d="M162.966 23.7921V18.4934H163.758V20.7584H166.937V18.4934H167.719V23.7921H166.937V21.4758H163.758V23.7921H162.966Z" fill="#093654" fill-opacity="0.6"/>
<path d="M169.497 23.7921V18.4934H170.289V22.6032L173.52 18.4934H174.281V23.7921H173.499V19.672L170.238 23.7921H169.497Z" fill="#093654" fill-opacity="0.6"/>
<path d="M176.851 18.4934V20.7687H177.818L179.804 18.4934H180.791L178.456 21.0864L180.853 23.7921H179.865L177.838 21.4656H176.851V23.7921H176.058V18.4934H176.851Z" fill="#093654" fill-opacity="0.6"/>
<path d="M183.43 23.9048C182.895 23.9048 182.429 23.7613 182.031 23.4744C181.64 23.1806 181.445 22.774 181.445 22.2548V22.2343C181.445 21.6945 181.65 21.2743 182.062 20.9736C182.48 20.673 183.033 20.5227 183.719 20.5227C184.26 20.5227 184.806 20.5979 185.354 20.7482V20.5637C185.354 20.0922 185.217 19.7335 184.943 19.4876C184.669 19.2416 184.278 19.1186 183.77 19.1186C183.235 19.1186 182.696 19.2484 182.155 19.5081L181.918 18.8624C182.542 18.5686 183.187 18.4217 183.852 18.4217C184.607 18.4217 185.18 18.6164 185.571 19.0059C185.934 19.368 186.116 19.8838 186.116 20.5534V23.7921H185.354V22.9927C184.888 23.6008 184.247 23.9048 183.43 23.9048ZM183.585 23.2796C184.086 23.2796 184.507 23.1464 184.85 22.8799C185.193 22.6066 185.365 22.2616 185.365 21.8448V21.3324C184.83 21.182 184.308 21.1069 183.801 21.1069C183.307 21.1069 182.923 21.206 182.648 21.4041C182.381 21.6022 182.247 21.8687 182.247 22.2035V22.224C182.247 22.5451 182.378 22.8014 182.638 22.9927C182.899 23.184 183.214 23.2796 183.585 23.2796Z" fill="#093654" fill-opacity="0.6"/>
<path d="M42.6558 49.6047V46.4861H30.8821V31.1127H34.2775V43.4114H40.4289V31.1127H43.8243V43.4114H45.8307V49.6047H42.6558Z" fill="#093654"/>
<path d="M53.4192 46.7496C51.6259 46.7496 50.1487 46.1859 48.9875 45.0586C47.8263 43.9165 47.2457 42.4524 47.2457 40.6662V40.6223C47.2457 38.9092 47.7969 37.4597 48.8993 36.2738C50.0017 35.0878 51.3981 34.4949 53.0885 34.4949C54.9552 34.4949 56.381 35.1098 57.3658 36.3397C58.3506 37.5695 58.843 39.0849 58.843 40.8858C58.843 41.0322 58.8283 41.325 58.7989 41.7643H50.575C50.7367 42.511 51.0674 43.082 51.5671 43.4773C52.0669 43.8726 52.699 44.0703 53.4633 44.0703C54.4775 44.0703 55.4329 43.6676 56.3295 42.8624L58.2477 44.5534C57.0571 46.0176 55.4476 46.7496 53.4192 46.7496ZM50.5309 39.6779H55.5799C55.477 38.9165 55.2051 38.3089 54.7641 37.855C54.3379 37.4012 53.7793 37.1742 53.0885 37.1742C52.3976 37.1742 51.8317 37.4012 51.3908 37.855C50.9498 38.2943 50.6632 38.9019 50.5309 39.6779Z" fill="#093654"/>
<path d="M61.3407 46.4861V34.7145H64.692V39.041H69.0796V34.7145H72.4309V46.4861H69.0796V42.0937H64.692V46.4861H61.3407Z" fill="#093654"/>
<path d="M78.553 46.4861V37.6794H74.7166V34.7145H85.7407V37.6794H81.9043V46.4861H78.553Z" fill="#093654"/>
<path d="M88.0396 50V34.7145H91.3909V36.4056C92.3169 35.1318 93.5442 34.4949 95.0729 34.4949C96.5428 34.4949 97.8069 35.0439 98.8652 36.142C99.9235 37.2255 100.453 38.7042 100.453 40.5783V40.6223C100.453 42.4963 99.9235 43.9824 98.8652 45.0805C97.8216 46.164 96.5575 46.7057 95.0729 46.7057C93.603 46.7057 92.3757 46.1201 91.3909 44.9488V50H88.0396ZM92.1625 42.9722C92.7211 43.5725 93.4046 43.8726 94.213 43.8726C95.0215 43.8726 95.7049 43.5725 96.2635 42.9722C96.822 42.3719 97.1013 41.5886 97.1013 40.6223V40.5783C97.1013 39.6266 96.822 38.8507 96.2635 38.2504C95.7049 37.6354 95.0215 37.328 94.213 37.328C93.4046 37.328 92.7211 37.6354 92.1625 38.2504C91.6187 38.8507 91.3468 39.6266 91.3468 40.5783V40.6223C91.3468 41.5739 91.6187 42.3572 92.1625 42.9722Z" fill="#093654"/>
<path d="M109.881 46.4861V31.1127H113.276V37.1962H119.538V31.1127H122.933V46.4861H119.538V40.3148H113.276V46.4861H109.881Z" fill="#093654"/>
<path d="M129.631 46.7057C128.469 46.7057 127.499 46.3909 126.72 45.7613C125.956 45.1171 125.574 44.2313 125.574 43.104V43.06C125.574 41.8302 126 40.9004 126.852 40.2709C127.72 39.6266 128.881 39.3045 130.336 39.3045C131.292 39.3045 132.254 39.4656 133.224 39.7877V39.59C133.224 38.1552 132.379 37.4378 130.689 37.4378C129.616 37.4378 128.528 37.6501 127.426 38.0747L126.588 35.5271C128.072 34.8975 129.601 34.5827 131.174 34.5827C132.952 34.5827 134.283 35.022 135.165 35.9004C136.017 36.7496 136.443 38.0015 136.443 39.6559V46.4861H133.202V45.2123C132.306 46.2079 131.115 46.7057 129.631 46.7057ZM130.645 44.3997C131.438 44.3997 132.071 44.2094 132.541 43.8287C133.026 43.448 133.268 42.9502 133.268 42.3353V41.7423C132.607 41.4495 131.894 41.3031 131.13 41.3031C130.41 41.3031 129.844 41.4422 129.432 41.7203C129.021 41.9985 128.815 42.4012 128.815 42.9283V42.9722C128.815 43.4114 128.984 43.7628 129.322 44.0264C129.66 44.2753 130.101 44.3997 130.645 44.3997Z" fill="#093654"/>
<path d="M139.327 50V34.7145H142.679V36.4056C143.605 35.1318 144.832 34.4949 146.361 34.4949C147.83 34.4949 149.095 35.0439 150.153 36.142C151.211 37.2255 151.74 38.7042 151.74 40.5783V40.6223C151.74 42.4963 151.211 43.9824 150.153 45.0805C149.109 46.164 147.845 46.7057 146.361 46.7057C144.891 46.7057 143.663 46.1201 142.679 44.9488V50H139.327ZM143.45 42.9722C144.009 43.5725 144.692 43.8726 145.501 43.8726C146.309 43.8726 146.993 43.5725 147.551 42.9722C148.11 42.3719 148.389 41.5886 148.389 40.6223V40.5783C148.389 39.6266 148.11 38.8507 147.551 38.2504C146.993 37.6354 146.309 37.328 145.501 37.328C144.692 37.328 144.009 37.6354 143.45 38.2504C142.906 38.8507 142.634 39.6266 142.634 40.5783V40.6223C142.634 41.5739 142.906 42.3572 143.45 42.9722Z" fill="#093654"/>
<path d="M157.557 34.7145V39.1069H158.373L161.702 34.7145H165.781L160.952 40.4685L165.957 46.4861H161.966L158.395 41.9839H157.557V46.4861H154.205V34.7145H157.557Z" fill="#093654"/>
<path d="M172.794 46.7496C170.986 46.7496 169.472 46.164 168.252 44.9927C167.032 43.8214 166.422 42.3792 166.422 40.6662V40.6223C166.422 38.9092 167.032 37.4597 168.252 36.2738C169.486 35.0878 171.015 34.4949 172.838 34.4949C174.646 34.4949 176.16 35.0805 177.38 36.2518C178.6 37.4231 179.21 38.8653 179.21 40.5783V40.6223C179.21 42.3353 178.592 43.7848 177.358 44.9707C176.138 46.1567 174.616 46.7496 172.794 46.7496ZM172.838 43.8726C173.764 43.8726 174.506 43.5652 175.065 42.9502C175.623 42.3353 175.902 41.5739 175.902 40.6662V40.6223C175.902 39.7291 175.609 38.9678 175.021 38.3382C174.447 37.694 173.705 37.3719 172.794 37.3719C171.868 37.3719 171.125 37.6794 170.567 38.2943C170.008 38.9092 169.729 39.6706 169.729 40.5783V40.6223C169.729 41.5154 170.016 42.284 170.589 42.9283C171.177 43.5578 171.926 43.8726 172.838 43.8726Z" fill="#093654"/>
<path d="M181.636 46.4861V34.7145H185.12L188.185 39.4583L191.249 34.7145H194.711V46.4861H191.47V39.5242L188.185 44.4876H188.119L184.877 39.59V46.4861H181.636Z" fill="#093654"/>
<path d="M201.05 46.7057C199.889 46.7057 198.919 46.3909 198.14 45.7613C197.375 45.1171 196.993 44.2313 196.993 43.104V43.06C196.993 41.8302 197.419 40.9004 198.272 40.2709C199.139 39.6266 200.3 39.3045 201.756 39.3045C202.711 39.3045 203.674 39.4656 204.644 39.7877V39.59C204.644 38.1552 203.799 37.4378 202.108 37.4378C201.035 37.4378 199.948 37.6501 198.845 38.0747L198.007 35.5271C199.492 34.8975 201.021 34.5827 202.593 34.5827C204.372 34.5827 205.702 35.022 206.584 35.9004C207.437 36.7496 207.863 38.0015 207.863 39.6559V46.4861H204.622V45.2123C203.725 46.2079 202.535 46.7057 201.05 46.7057ZM202.064 44.3997C202.858 44.3997 203.49 44.2094 203.96 43.8287C204.445 43.448 204.688 42.9502 204.688 42.3353V41.7423C204.027 41.4495 203.314 41.3031 202.549 41.3031C201.829 41.3031 201.263 41.4422 200.852 41.7203C200.44 41.9985 200.234 42.4012 200.234 42.9283V42.9722C200.234 43.4114 200.403 43.7628 200.741 44.0264C201.079 44.2753 201.52 44.3997 202.064 44.3997Z" fill="#093654"/>
<path d="M210.747 46.4861V34.7145H214.098V39.041H218.486V34.7145H221.837V46.4861H218.486V42.0937H214.098V46.4861H210.747Z" fill="#093654"/>
<path d="M224.828 46.4861V34.7145H228.158V41.1933L232.766 34.7145H235.918V46.4861H232.589V39.7657L227.805 46.4861H224.828Z" fill="#093654"/>
<path d="M238.91 46.4861V34.7145H242.239V41.1933L246.847 34.7145H250V46.4861H246.671V39.7657L241.886 46.4861H238.91Z" fill="#093654"/>
</svg>
